<svg width="16" height="17" viewBox="0 0 16 17" fill="none" xmlns="http://www.w3.org/2000/svg">
<path d="M1.76218 0.595249C1.35905 0.192127 0.705465 0.192127 0.302343 0.595249C-0.100779 0.998371 -0.100779 1.65196 0.302343 2.05508L6.54017 8.29291L0.302341 14.5307C-0.10078 14.9339 -0.10078 15.5874 0.302341 15.9906C0.705463 16.3937 1.35905 16.3937 1.76217 15.9906L8 9.75274L14.2378 15.9906C14.6409 16.3937 15.2945 16.3937 15.6977 15.9906C16.1008 15.5874 16.1008 14.9339 15.6977 14.5307L9.45983 8.29291L15.6977 2.05509C16.1008 1.65196 16.1008 0.998374 15.6977 0.595253C15.2945 0.192131 14.6409 0.19213 14.2378 0.595253L8 6.83307L1.76218 0.595249Z" fill="black"/>
</svg>
