<svg width="124" height="48" viewBox="0 0 124 48" fill="none" xmlns="http://www.w3.org/2000/svg">
<path d="M124 24L123 24L123 9L124 9L124 24Z" fill="black"/>
<path d="M115 0V1H62V0H115Z" fill="black"/>
<path d="M122 24L121 24L121 11L122 11L122 24Z" fill="black"/>
<path d="M113 2V3H62V2H113Z" fill="black"/>
<path d="M115.15 0C115.052 0.484687 115 0.986276 115 1.5C115 5.64214 118.358 9 122.5 9C123.014 9 123.515 8.948 124 8.84961V9.86523C123.513 9.95199 123.012 10 122.5 10C117.806 10 114 6.19442 114 1.5C114 0.988003 114.048 0.487067 114.135 0H115.15Z" fill="black"/>
<circle cx="120.5" cy="3.5" r="3" fill="#302D2E" stroke="black"/>
<path d="M124 24L123 24L123 39L124 39L124 24Z" fill="black"/>
<path d="M115 48V47H62V48H115Z" fill="black"/>
<path d="M122 24L121 24L121 37L122 37L122 24Z" fill="black"/>
<path d="M113 46V45H62V46H113Z" fill="black"/>
<path d="M115.15 48C115.052 47.5153 115 47.0137 115 46.5C115 42.3579 118.358 39 122.5 39C123.014 39 123.515 39.052 124 39.1504V38.1348C123.513 38.048 123.012 38 122.5 38C117.806 38 114 41.8056 114 46.5C114 47.012 114.048 47.5129 114.135 48H115.15Z" fill="black"/>
<circle cx="3.5" cy="3.5" r="3" transform="matrix(1 0 0 -1 117 48)" fill="#302D2E" stroke="black"/>
<path d="M6.55671e-07 24L1 24L0.999999 9L0 9L6.55671e-07 24Z" fill="black"/>
<path d="M9 0V1H62V0H9Z" fill="black"/>
<path d="M2 24L3 24L3 11L2 11L2 24Z" fill="black"/>
<path d="M11 2V3H62V2H11Z" fill="black"/>
<path d="M8.84961 0C8.948 0.484687 9 0.986276 9 1.5C9 5.64214 5.64214 9 1.5 9C0.986276 9 0.484687 8.948 0 8.84961V9.86523C0.487067 9.95199 0.988003 10 1.5 10C6.19442 10 10 6.19442 10 1.5C10 0.988003 9.95199 0.487067 9.86523 0H8.84961Z" fill="black"/>
<circle cx="3.5" cy="3.5" r="3" transform="matrix(-1 0 0 1 7 0)" fill="#302D2E" stroke="black"/>
<path d="M6.55671e-07 24L1 24L0.999999 39L0 39L6.55671e-07 24Z" fill="black"/>
<path d="M9 48V47H62V48H9Z" fill="black"/>
<path d="M2 24L3 24L3 37L2 37L2 24Z" fill="black"/>
<path d="M11 46V45H62V46H11Z" fill="black"/>
<path d="M8.84961 48C8.948 47.5153 9 47.0137 9 46.5C9 42.3579 5.64214 39 1.5 39C0.986276 39 0.484687 39.052 0 39.1504V38.1348C0.487067 38.048 0.988003 38 1.5 38C6.19442 38 10 41.8056 10 46.5C10 47.012 9.95199 47.5129 9.86523 48H8.84961Z" fill="black"/>
<circle cx="3.5" cy="44.5" r="3" transform="rotate(180 3.5 44.5)" fill="#302D2E" stroke="black"/>
</svg>
