<svg width="421" height="77" viewBox="0 0 421 77" fill="none" xmlns="http://www.w3.org/2000/svg">
<path fill-rule="evenodd" clip-rule="evenodd" d="M55.8613 0V4.09979L54.6895 4.13409C53.4913 4.16915 51.8892 4.26664 50.7565 4.68547C50.1228 4.91977 49.7273 5.31459 49.5079 5.95172C49.1076 7.11417 49.0701 8.89146 49.0701 10.1108V51.5097C49.0701 52.7951 49.1111 54.4769 49.4812 55.7161C49.6552 56.2988 49.9467 56.794 50.5227 57.0425C51.4238 57.4312 52.8478 57.4859 53.8156 57.4859H57.6617L57.5324 58.8045C57.3184 60.9881 57.1619 63.1778 57.0761 65.3701C57.0132 66.9773 56.9512 68.5975 56.9512 70.2061C56.9512 71.2247 56.971 72.2464 57.0328 73.2633C57.0824 74.0779 57.1363 74.8925 57.1991 75.7062L57.299 77.0001H53.0608L52.8795 76.0147C52.3266 73.0079 51.3578 69.7004 49.528 67.1995C48.1507 65.3172 46.4306 63.7487 44.2534 62.8433C42.1912 61.9857 40.037 61.559 37.8019 61.559H19.8597C17.6246 61.559 15.4704 61.9858 13.4082 62.8433C11.2309 63.7487 9.51087 65.3172 8.13363 67.1995C6.30377 69.7004 5.33506 73.0079 4.78207 76.0147L4.60085 77.0001H0.258934L0.472923 75.6155C0.59101 74.8515 0.645578 74.0718 0.669109 73.2996C0.700483 72.269 0.710444 71.2371 0.710444 70.2061C0.710444 68.5975 0.648513 66.9774 0.585572 65.3701C0.499774 63.1778 0.34324 60.9881 0.12925 58.8045L0 57.4859H2.83995C5.07945 57.4859 6.9018 56.6623 8.39776 55.005C10.2608 52.9409 11.4916 50.2543 12.3387 47.6358C13.4981 44.0516 14.2824 40.3164 14.8515 36.5971C15.5137 32.2685 15.9872 27.911 16.3082 23.5446C16.639 19.0433 16.9468 14.5404 17.2295 10.0359L17.2304 10.022L17.2316 10.0083C17.3317 8.84557 17.417 7.16791 17.0703 6.03843C16.8643 5.36734 16.4406 4.97146 15.7854 4.72465C14.5857 4.27277 12.8812 4.16935 11.6098 4.13418L10.436 4.10171V0.00306587L11.7007 0.063042C13.0922 0.129006 14.4847 0.181461 15.877 0.22927C17.3435 0.279617 18.8116 0.312048 20.279 0.312048C21.4955 0.312048 22.7124 0.274012 23.926 0.189797C25.1677 0.103521 26.4123 0.0617007 27.6571 0.0617007C29.6047 0.0617007 31.5549 0.0946109 33.5004 0.188264C35.5453 0.286755 37.5993 0.312048 39.6464 0.312048C41.4011 0.312048 43.156 0.296144 44.9106 0.270467C46.7266 0.243881 48.5426 0.216192 50.3586 0.187018C51.7695 0.164407 53.1843 0.133365 54.5937 0.0632336L55.8613 9.58085e-05V0ZM76.1824 65.082L61.5051 32.815C61.2464 32.2462 60.5028 30.7018 59.9447 30.3685C59.6854 30.2136 59.2227 29.9689 58.9091 29.9689H57.7018V26.1395L58.9994 26.2364C60.744 26.3667 62.4916 26.4585 64.2399 26.5192C65.9242 26.5778 67.61 26.6137 69.2954 26.6137C70.9903 26.6137 72.6936 26.588 74.3858 26.4889C75.7423 26.4095 77.0986 26.3257 78.4544 26.2357L79.742 26.1502V29.9689H78.5347C77.8614 29.9689 77.1864 30.0032 76.518 30.0865C76.39 30.1024 76.1016 30.1508 75.9175 30.2323C75.9529 30.3961 76.0376 30.6131 76.0791 30.7111L82.6783 46.3142L84.3365 41.259C85.0125 39.2693 85.6886 36.7541 85.5192 34.6348C85.4245 33.4505 85.1416 32.0364 84.3229 31.1196C83.6847 30.4049 82.9175 30.0298 81.959 29.9662L80.832 29.8914V26.144L82.1253 26.2361C82.8382 26.2867 83.5523 26.3259 84.2661 26.3614C85.0948 26.4026 85.9241 26.4342 86.7537 26.4554C87.4119 26.4722 88.0714 26.4868 88.7299 26.4868C89.605 26.4868 90.4815 26.4607 91.3558 26.4244C92.0151 26.397 92.7708 26.37 93.4202 26.2524L94.8435 25.9947V29.605L94.0536 29.8947C93.3368 30.1576 92.717 30.7222 92.2287 31.2917C91.3663 32.2974 90.6833 34.0785 90.2546 35.3085L82.2877 58.9115L79.6069 66.6C79.2436 67.6044 78.8122 68.603 78.2713 69.5262C77.7841 70.3576 77.1747 71.1156 76.4085 71.7089C75.6564 72.2912 74.7439 72.6893 73.8427 72.9814C72.5695 73.394 71.0728 73.4845 69.7414 73.4845C68.3459 73.4845 66.9577 73.2483 65.6184 72.8673C64.1541 72.4508 62.8234 71.7513 61.6961 70.7288C60.4161 69.5677 59.8683 68.027 59.8683 66.3198C59.8683 64.4872 60.5993 62.9458 62.0548 61.8188C63.569 60.6463 65.4332 60.2335 67.3201 60.2335C69.0585 60.2335 70.809 60.5882 72.2212 61.6498C73.6749 62.7425 74.2621 64.3486 74.2621 66.1294C74.2621 67.3507 73.8283 68.4721 73.1519 69.4714C73.4341 69.3317 73.7061 69.1602 73.969 68.9561C74.9873 68.1653 75.5973 66.8956 75.9834 65.6985L76.1823 65.0819L76.1824 65.082ZM119.451 24.7016C118.67 24.757 117.886 24.7949 117.104 24.8295C115.712 24.8911 114.306 25.0213 112.919 25.1433C111.032 25.309 108.984 25.5538 107.161 26.083C105.996 26.4213 104.909 26.9764 104.091 27.8868C103.174 28.9088 102.595 30.3399 102.216 31.6398C102.201 31.6903 102.187 31.7408 102.172 31.7915C103.48 30.581 105.001 29.629 106.713 28.9249C109.603 27.736 112.691 27.2479 115.808 27.2479C118.646 27.2479 121.458 27.6989 124.083 28.8015C126.736 29.9163 128.747 31.8133 130.199 34.281C131.973 37.2974 132.435 41.1256 132.435 44.562C132.435 48.0462 131.941 51.8294 130.172 54.8974C128.662 57.5161 126.526 59.4775 123.75 60.6956C120.834 61.9748 117.638 62.447 114.47 62.447C111.573 62.447 108.427 62.1037 105.773 60.8761C103.577 59.8601 101.729 58.3806 100.421 56.3415C99.1033 54.2865 98.3339 51.9462 97.9231 49.5538C97.4505 46.8013 97.2687 43.9905 97.2687 41.2001C97.2687 39.5153 97.3284 37.8298 97.4301 36.1482C97.5403 34.3278 97.7384 32.513 98.0153 30.7104C98.2956 28.8859 98.6984 27.0814 99.2312 25.3134C99.7405 23.6233 100.411 21.9806 101.278 20.4404C102.106 18.9693 103.156 17.6528 104.449 16.5596C105.655 15.5399 107.021 14.7769 108.529 14.3004C110.064 13.8152 111.664 13.5233 113.265 13.3621C115.16 13.1713 117.073 13.0321 118.978 13.0072C120.39 12.9887 121.805 12.9669 123.217 12.9128C124.621 12.859 126.353 12.6895 127.655 12.1242C128.698 11.6709 129.479 10.8645 130.081 9.91843L130.524 9.22114L133.436 9.80088L133.248 10.9465C132.859 13.3023 132.256 15.8882 131.155 18.0242C130.399 19.4928 129.404 21.0046 128.088 22.0358C126.907 22.9609 125.568 23.6069 124.119 23.9962C122.598 24.4049 121.023 24.6186 119.451 24.7015L119.451 24.7016ZM152.822 28.0535C153.489 27.4952 154.231 27.0206 155.048 26.6345C157.006 25.7098 159.144 25.345 161.3 25.345C163.622 25.345 165.768 25.9762 167.667 27.309C169.709 28.742 171.092 30.8249 172.037 33.0961C173.246 35.9999 173.595 39.35 173.595 42.4687C173.595 45.5685 173.323 48.8846 172.357 51.8473C171.614 54.1267 170.508 56.334 168.832 58.0793C167.36 59.6116 165.62 60.7693 163.606 61.4614C161.648 62.1343 159.61 62.447 157.541 62.447C156.06 62.447 154.582 62.2889 153.143 61.9365C153.035 61.9103 152.928 61.882 152.822 61.8519V65.3049C152.822 66.2376 152.931 67.874 153.784 68.4833C154.707 69.1427 155.989 69.3047 157.095 69.3047H158.302V73.0842L157.052 73.0397C155.398 72.9809 153.743 72.9307 152.089 72.8813C149.85 72.8145 147.61 72.7867 145.371 72.7867C143.708 72.7867 142.045 72.8173 140.383 72.881C139.135 72.9288 137.885 72.9768 136.638 73.0389L135.37 73.1021V69.3046H136.577C137.117 69.3046 138.041 69.2401 138.422 68.7856C138.883 68.234 138.938 66.6132 138.938 65.9392V34.4126C138.938 33.355 138.858 31.7273 138.327 30.7801C137.972 30.1478 137.25 30.0323 136.577 30.0323H135.37V26.1786L136.69 26.3017C137.965 26.4207 139.247 26.4868 140.528 26.4868C142.482 26.4868 144.44 26.4247 146.389 26.2686C148.064 26.1345 149.739 25.9307 151.391 25.6197L152.822 25.35V28.0535H152.822ZM195.005 25.345C198.133 25.345 201.286 25.8251 204.144 27.1363C206.915 28.4074 208.975 30.4753 210.407 33.1493C212.129 36.3638 212.588 40.3355 212.588 43.9277C212.588 47.52 212.129 51.4917 210.407 54.7061C208.976 57.3782 206.914 59.4404 204.136 60.691C201.277 61.9782 198.125 62.447 195.005 62.447C191.891 62.447 188.766 61.9675 185.909 60.6926C183.116 59.4463 181.04 57.3892 179.603 54.7061C177.881 51.4917 177.422 47.52 177.422 43.9277C177.422 40.3354 177.881 36.3638 179.603 33.1493C181.041 30.4644 183.116 28.4014 185.901 27.1347C188.756 25.836 191.883 25.345 195.005 25.345V25.345ZM245.172 42.9443C245.353 42.9907 245.532 43.0395 245.71 43.0909C247.73 43.6767 249.756 44.6598 251.029 46.3887C252.21 47.9917 252.665 49.8914 252.665 51.8569C252.665 53.6941 252.253 55.4597 251.272 57.0279C250.202 58.7376 248.478 59.804 246.609 60.4731C244.128 61.3612 241.14 61.5589 238.522 61.5589C236.735 61.5589 234.941 61.5002 233.155 61.4312C230.931 61.3452 228.705 61.3052 226.479 61.3052C224.688 61.3052 222.896 61.3375 221.105 61.3997C219.729 61.4475 218.352 61.4955 216.976 61.5577L215.714 61.6148V57.8231H216.921C217.461 57.8231 218.385 57.7586 218.766 57.3041C219.227 56.7525 219.283 55.1317 219.283 54.4577V33.3977C219.283 32.7238 219.227 31.1029 218.766 30.5514C218.385 30.0969 217.461 30.0324 216.921 30.0324H215.714V26.2349L216.982 26.298C218.261 26.3617 219.542 26.4087 220.821 26.4559C222.494 26.5176 224.168 26.5503 225.842 26.5503C227.896 26.5503 229.951 26.5124 232.003 26.4245C233.706 26.3516 235.415 26.2965 237.121 26.2965C239.768 26.2965 242.812 26.4708 245.34 27.3096C247.108 27.8965 248.893 28.8149 250.034 30.3295C251.038 31.662 251.518 33.1924 251.518 34.8566C251.518 38.0634 249.61 40.3878 246.967 42.0293C246.404 42.3794 245.801 42.6822 245.172 42.9443H245.172ZM275.639 29.6846C274.956 29.8202 274.33 30.1095 273.794 30.6192C272.892 31.4773 272.283 32.5772 271.867 33.7384C271.344 35.1942 271.005 36.7079 270.812 38.2409C270.613 39.8323 270.503 41.4355 270.503 43.0396C270.503 45.0603 270.689 47.5824 271.592 49.4276C272.153 50.5748 272.954 51.7117 274.12 52.3118C275.101 52.8169 276.151 53.129 277.261 53.129C277.885 53.129 278.543 53.0244 279.153 52.8998C279.961 52.7348 280.767 52.3214 281.46 51.8869C282.454 51.2626 283.307 50.3067 283.997 49.37L284.527 48.6505L287.541 49.7093L287.211 50.8068C286.633 52.7224 285.721 54.516 284.603 56.1739C283.364 58.0134 281.765 59.5051 279.863 60.6549C277.705 61.9588 275.237 62.447 272.737 62.447C269.868 62.447 267.073 61.9142 264.475 60.6806C261.784 59.4025 259.802 57.3086 258.39 54.713C256.642 51.5008 256.173 47.5288 256.173 43.9277C256.173 40.3518 256.711 36.5698 258.494 33.4115C260.01 30.7259 262.127 28.6252 264.912 27.2742C267.687 25.9282 270.679 25.3449 273.756 25.3449C275.523 25.3449 277.324 25.5049 279.035 25.9559C280.308 26.2912 281.65 26.7438 282.785 27.4173C284.092 28.1922 285.16 29.2249 285.964 30.5105C286.825 31.8872 287.198 33.4318 287.198 35.0469C287.198 37.0438 286.535 38.8173 285.139 40.2581C283.718 41.7255 281.912 42.4019 279.873 42.4019C277.918 42.4019 276.052 41.8803 274.669 40.4465C273.355 39.084 272.804 37.3632 272.804 35.491C272.804 33.6276 273.409 31.958 274.686 30.5836C274.987 30.2592 275.305 29.959 275.639 29.6846H275.639ZM315.852 35.5624C315.738 35.9974 315.624 36.4326 315.512 36.8683C315.226 37.9754 314.9 39.0875 314.478 40.1512C314.321 40.5448 314.137 40.9226 313.923 41.2807C315.376 41.2857 316.833 41.4341 318.182 41.8214C320.255 42.4167 322.303 43.3918 323.733 45.0471C324.883 46.379 325.647 47.9472 326.116 49.6337C326.628 51.4782 327.299 53.3028 328.012 55.0786C328.32 55.8037 328.709 56.6641 329.176 57.3008C329.431 57.647 329.912 57.7776 330.316 57.835L331.352 57.9824V61.392L330.324 61.5455C329.46 61.6745 328.592 61.7741 327.721 61.8408C326.874 61.9056 326.024 61.9394 325.175 61.9394C322.615 61.9394 319.944 61.5465 317.677 60.2987C315.283 58.9806 314.059 56.6006 313.483 54.0206L313.476 53.9892L313.47 53.9574C313.352 53.2527 313.147 52.5168 312.956 51.8284C312.679 50.83 312.326 49.8516 311.923 48.8968C311.582 48.0883 311.133 47.295 310.529 46.6507C310.047 46.1368 309.421 45.7777 308.769 45.5211C308.319 45.344 307.826 45.2635 307.33 45.2436V54.4577C307.33 55.1316 307.385 56.7525 307.847 57.3041C308.227 57.7585 309.152 57.8231 309.691 57.8231H310.898V61.6148L309.636 61.5577C308.261 61.4954 306.883 61.4474 305.507 61.3996C303.738 61.3382 301.967 61.3052 300.197 61.3052C298.48 61.3052 296.763 61.3378 295.047 61.3996C293.747 61.4464 292.445 61.4927 291.145 61.5574L289.878 61.6205V57.8231H291.085C291.624 57.8231 292.549 57.7585 292.929 57.3041C293.391 56.7525 293.446 55.1316 293.446 54.4577V33.3977C293.446 32.7238 293.391 31.1029 292.929 30.5513C292.549 30.0969 291.624 30.0323 291.085 30.0323H289.878V26.2406L291.14 26.2977C292.547 26.3614 293.955 26.4085 295.363 26.4557C297.143 26.5155 298.925 26.5502 300.707 26.5502C302.412 26.5502 304.118 26.5196 305.823 26.4559C307.092 26.4085 308.362 26.3611 309.631 26.298L310.898 26.2349V30.0323H309.691C309.152 30.0323 308.227 30.0969 307.847 30.5513C307.385 31.1029 307.33 32.7238 307.33 33.3977V41.5982C308.044 41.4763 308.769 41.2846 309.326 40.9752C310.056 40.5696 310.545 39.9508 310.88 39.1936C311.432 37.9444 311.82 36.5215 312.152 35.1995C312.585 33.4761 313.089 31.7446 313.724 30.0836C314.27 28.6572 315.123 27.3957 316.408 26.5334C317.811 25.592 319.631 25.345 321.288 25.345C323.537 25.345 325.979 25.7731 327.646 27.402C329.098 28.8221 329.759 30.619 329.759 32.6365C329.759 34.5973 329.218 36.4542 327.755 37.8252C326.401 39.0937 324.733 39.6743 322.881 39.6743C321.829 39.6743 320.787 39.4674 319.791 39.1369C318.628 38.751 317.632 38.0898 316.817 37.1776C316.381 36.6892 316.066 36.1448 315.852 35.5625L315.852 35.5624ZM358.309 40.4005L350.513 55.7039C350.56 56.2503 350.67 57.0345 350.916 57.3842C351.185 57.767 351.762 57.8231 352.189 57.8231H353.396V61.6238L352.126 61.5573C350.942 61.4952 349.756 61.4471 348.572 61.3994C346.975 61.3349 345.376 61.3052 343.778 61.3052C341.986 61.3052 340.195 61.3374 338.404 61.3996C337.028 61.4475 335.651 61.4954 334.275 61.5577L333.013 61.6148V57.8231H334.22C334.759 57.8231 335.684 57.7585 336.064 57.3041C336.526 56.7525 336.581 55.1316 336.581 54.4577V33.3977C336.581 32.7238 336.526 31.1029 336.064 30.5513C335.684 30.0969 334.759 30.0323 334.22 30.0323H333.013V26.2349L334.28 26.298C335.57 26.3621 336.861 26.4088 338.151 26.4558C339.814 26.5164 341.477 26.5502 343.141 26.5502C344.868 26.5502 346.595 26.5203 348.321 26.4559C349.59 26.4085 350.86 26.3611 352.129 26.298L353.396 26.2349V30.0323H352.189C351.762 30.0323 351.185 30.0883 350.916 30.4712C350.511 31.0476 350.465 32.7231 350.465 33.3977V47.7054L358.283 32.4313C358.246 31.8087 358.146 30.8529 357.875 30.4486C357.626 30.077 356.983 30.0323 356.586 30.0323H355.378V26.2315L356.649 26.2981C357.833 26.3601 359.018 26.4082 360.203 26.456C361.8 26.5204 363.398 26.5502 364.997 26.5502C366.788 26.5502 368.58 26.5179 370.371 26.4557C371.747 26.4079 373.124 26.3599 374.5 26.2977L375.762 26.2406V30.0323H374.555C374.015 30.0323 373.091 30.0968 372.71 30.5513C372.249 31.1028 372.194 32.7238 372.194 33.3976V54.4576C372.194 55.1315 372.249 56.7525 372.71 57.304C373.091 57.7585 374.015 57.823 374.555 57.823H375.762V61.6205L374.494 61.5573C373.215 61.4937 371.934 61.4467 370.655 61.3995C368.982 61.3378 367.308 61.3051 365.634 61.3051C363.907 61.3051 362.18 61.335 360.454 61.3995C359.185 61.4468 357.914 61.4942 356.646 61.5573L355.378 61.6205V57.823H356.586C356.983 57.823 357.626 57.7783 357.875 57.4067C358.267 56.8219 358.309 55.1352 358.309 54.4576V40.4004V40.4005ZM403.547 40.4005L395.751 55.7039C395.798 56.2503 395.908 57.0345 396.154 57.3842C396.423 57.767 396.999 57.8231 397.427 57.8231H398.634V61.6238L397.363 61.5573C396.18 61.4952 394.994 61.4471 393.81 61.3994C392.213 61.3349 390.614 61.3052 389.016 61.3052C387.224 61.3052 385.432 61.3374 383.642 61.3996C382.266 61.4475 380.889 61.4954 379.513 61.5577L378.251 61.6148V57.8231H379.458C379.997 57.8231 380.922 57.7585 381.302 57.3041C381.764 56.7525 381.819 55.1316 381.819 54.4577V33.3977C381.819 32.7238 381.764 31.1029 381.302 30.5513C380.922 30.0969 379.997 30.0323 379.458 30.0323H378.251V26.2349L379.518 26.298C380.807 26.3621 382.099 26.4088 383.389 26.4558C385.051 26.5164 386.715 26.5502 388.379 26.5502C390.106 26.5502 391.833 26.5203 393.558 26.4559C394.828 26.4085 396.098 26.3611 397.366 26.298L398.634 26.2349V30.0323H397.427C396.999 30.0323 396.423 30.0883 396.154 30.4712C395.748 31.0476 395.703 32.7231 395.703 33.3977V47.7054L403.521 32.4313C403.484 31.8087 403.384 30.8529 403.113 30.4486C402.864 30.077 402.221 30.0323 401.823 30.0323H400.616V26.2315L401.887 26.2981C403.071 26.3601 404.256 26.4082 405.441 26.456C407.038 26.5204 408.636 26.5502 410.234 26.5502C412.026 26.5502 413.818 26.5179 415.609 26.4557C416.985 26.4079 418.362 26.3599 419.738 26.2977L421 26.2406V30.0323H419.792C419.253 30.0323 418.328 30.0968 417.948 30.5513C417.486 31.1028 417.431 32.7238 417.431 33.3976V54.4576C417.431 55.1315 417.486 56.7525 417.948 57.304C418.328 57.7585 419.253 57.823 419.792 57.823H421V61.6205L419.732 61.5573C418.453 61.4937 417.172 61.4467 415.893 61.3995C414.22 61.3378 412.546 61.3051 410.872 61.3051C409.145 61.3051 407.418 61.335 405.692 61.3995C404.423 61.4468 403.152 61.4942 401.884 61.5573L400.616 61.6205V57.823H401.823C402.221 57.823 402.864 57.7783 403.113 57.4067C403.505 56.8219 403.547 55.1352 403.547 54.4576V40.4004V40.4005ZM410.997 21.9602C409.483 22.7893 407.77 23.3125 406.085 23.6634C403.981 24.1018 401.804 24.2598 399.657 24.2598C397.491 24.2598 395.288 24.1057 393.165 23.6634C391.475 23.3114 389.762 22.7846 388.244 21.9547C387.117 21.3388 386.169 20.4897 385.384 19.4793C384.496 18.3354 384.049 17.0182 384.049 15.5728C384.049 13.7556 384.606 12.1008 385.883 10.7762C387.198 9.41084 388.922 8.85218 390.8 8.85218C392.639 8.85218 394.275 9.46176 395.596 10.7498C396.936 12.0573 397.551 13.7128 397.551 15.5728C397.551 17.092 397.111 18.4942 396.113 19.6535C395.931 19.8652 395.739 20.0647 395.539 20.2521C395.762 20.2847 395.985 20.315 396.209 20.3432C397.348 20.4873 398.508 20.5874 399.657 20.5874C400.795 20.5874 401.942 20.4885 403.071 20.3435C403.316 20.3121 403.56 20.2773 403.804 20.2391C403.584 20.0299 403.375 19.8051 403.179 19.564C402.243 18.4135 401.827 17.0471 401.827 15.5727C401.827 13.7257 402.423 12.0706 403.742 10.7582C405.06 9.44581 406.722 8.85208 408.578 8.85208C410.433 8.85208 412.096 9.44581 413.414 10.7582C414.732 12.0706 415.329 13.7257 415.329 15.5727C415.329 17.0307 414.863 18.3516 413.951 19.4925C413.137 20.5107 412.156 21.3554 410.997 21.9601L410.997 21.9602ZM11.7756 57.4859H24.0519C25.2252 57.4859 26.8384 57.4294 27.9493 57.0186C28.6018 56.7773 28.9779 56.3438 29.1916 55.6878C29.5875 54.4724 29.6358 52.7785 29.6358 51.5098V10.1109C29.6358 8.88854 29.5809 7.1077 29.131 5.95589C28.9127 5.39713 28.5761 4.82784 28.0137 4.55828C27.3231 4.22726 26.4863 4.13466 25.7287 4.13466H24.6387C24.1643 4.13466 23.7323 4.27019 23.3246 4.51009C22.8399 4.79522 22.4803 5.51718 22.2782 6.01352C21.7914 7.20873 21.6396 8.90028 21.5682 10.1775L21.5671 10.1968L21.5655 10.2159C21.2649 13.6272 21.0048 17.0424 20.7708 20.4589C20.5151 24.1925 20.1907 27.9214 19.803 31.6437C19.4228 35.2937 18.8845 38.9298 18.1503 42.5262C17.4942 45.7397 16.5768 48.9329 15.2664 51.9456C14.3896 53.9616 13.2535 55.8652 11.7756 57.486L11.7756 57.4859ZM114.852 30.9203C114.29 30.9203 113.84 31.4247 113.542 31.8422C112.789 32.8969 112.378 34.7352 112.154 35.9873C111.675 38.6603 111.599 41.598 111.599 44.3083C111.599 47.1456 111.696 50.1274 112.156 52.9316C112.398 54.3996 112.81 56.386 113.591 57.6743C113.83 58.0675 114.317 58.7746 114.852 58.7746C115.2 58.7746 115.512 58.481 115.724 58.2378C116.275 57.6048 116.645 56.5899 116.88 55.7986C117.326 54.295 117.578 52.6677 117.763 51.1132C118.03 48.8663 118.105 46.5696 118.105 44.3084C118.105 42.0897 118.043 39.8295 117.794 37.6235C117.641 36.271 117.404 34.7242 116.911 33.4486C116.626 32.7107 115.859 30.9205 114.852 30.9205L114.852 30.9203ZM152.822 58.016C153.157 58.0969 153.499 58.1402 153.845 58.1402C155.027 58.1402 155.98 57.7489 156.749 56.85C157.783 55.6415 158.32 53.7891 158.618 52.2619C159.144 49.5684 159.265 46.6662 159.265 43.9277C159.265 42.29 159.232 40.6456 159.124 39.0111C159.046 37.8293 158.931 36.6236 158.712 35.4588C158.517 34.4246 158.114 32.6133 157.432 31.7759C157.119 31.3926 156.723 31.0473 156.203 31.0473C155.278 31.0473 154.511 31.3862 153.829 32.0034C153.111 32.653 152.822 33.4535 152.822 34.4126V58.016H152.822ZM195.005 29.0173C194.034 29.0173 193.194 31.3168 192.964 32.0016C192.468 33.4831 192.224 35.1753 192.064 36.7243C191.817 39.1067 191.752 41.5338 191.752 43.9277C191.752 46.3186 191.817 48.7434 192.064 51.1227C192.224 52.6616 192.467 54.3485 192.963 55.8192C193.196 56.507 194.031 58.7746 195.005 58.7746C195.979 58.7746 196.814 56.507 197.047 55.8192C197.543 54.3486 197.786 52.6616 197.946 51.1227C198.193 48.7433 198.258 46.3186 198.258 43.9277C198.258 41.5338 198.193 39.1067 197.946 36.7243C197.785 35.1753 197.542 33.4831 197.046 32.0016C196.816 31.3169 195.976 29.0173 195.005 29.0173H195.005ZM233.167 41.8889C234.036 41.7961 234.945 41.6028 235.617 41.2102C236.344 40.7857 236.802 40.1883 237.05 39.3876C237.406 38.235 237.506 36.9451 237.506 35.7447C237.506 34.6708 237.428 33.5813 237.212 32.5279C237.067 31.8195 236.787 31.1492 236.267 30.6318C235.772 30.1395 234.983 30.0323 234.317 30.0323C234.066 30.0323 233.655 30.0511 233.508 30.2994C233.197 30.8221 233.167 32.7939 233.167 33.3976V41.8889H233.167ZM233.167 45.6477V54.4577C233.167 55.0102 233.205 57.0559 233.525 57.5162C233.717 57.7921 234.21 57.8231 234.508 57.8231C235.334 57.8231 236.332 57.6943 236.961 57.1038C237.57 56.5322 237.943 55.8217 238.149 55.0172C238.408 54.0044 238.526 52.9649 238.526 51.9204C238.526 50.3635 238.324 48.2326 237.216 47.0206C236.271 45.9883 234.577 45.7022 233.167 45.6477V45.6477Z" fill="#2F2F2F"/>
<path d="M53.4468 0.00297759V1.67225C51.5464 1.72791 50.1071 1.93658 49.129 2.29826C48.1508 2.65994 47.494 3.32763 47.1587 4.30143C46.8233 5.27522 46.6556 6.79149 46.6556 8.85032V50.2492C46.6556 52.2524 46.8093 53.7686 47.1167 54.7981C47.4241 55.8275 47.997 56.523 48.8354 56.8847C49.6739 57.2464 50.9315 57.4272 52.6083 57.4272H55.1236C54.8999 59.7086 54.7463 61.9205 54.6625 64.0627C54.5786 66.2051 54.5367 67.8326 54.5367 68.9455C54.5367 70.114 54.5646 71.1573 54.6205 72.0754C54.6764 72.9936 54.7323 73.8143 54.7882 74.5376H52.8599C52.1332 70.587 50.9455 67.4848 49.2966 65.2313C47.6477 62.9777 45.7193 61.3918 43.5115 60.4737C41.3037 59.5556 38.9981 59.0966 36.5947 59.0966H18.6525C16.2491 59.0966 13.9435 59.5556 11.7357 60.4737C9.5278 61.3918 7.59948 62.9777 5.9506 65.2313C4.30172 67.4848 3.11398 70.587 2.38737 74.5376H0.459005C0.570788 73.8143 0.640658 72.9936 0.668616 72.0754C0.696574 71.1573 0.710529 70.114 0.710529 68.9455C0.710529 67.8326 0.668616 66.205 0.584743 64.0627C0.500918 61.9205 0.347223 59.7086 0.123657 57.4272H22.8447C24.7451 57.4272 26.1843 57.2464 27.1625 56.8847C28.1407 56.523 28.7974 55.8275 29.1327 54.7981C29.4681 53.7687 29.6358 52.2524 29.6358 50.2492V8.85032C29.6358 6.79154 29.4402 5.26133 29.049 4.2597C28.6577 3.25812 28.0848 2.57649 27.3302 2.21481C26.5757 1.85309 25.6394 1.67225 24.5216 1.67225H23.4316C22.7608 1.67225 22.1181 1.85309 21.5033 2.21481C20.8884 2.57649 20.3714 3.27201 19.9522 4.30143C19.533 5.33084 19.2675 6.84715 19.1557 8.85032C18.8763 12.022 18.6107 15.4441 18.3593 19.1166C18.1077 22.7891 17.7863 26.5033 17.3951 30.2592C17.0039 34.0151 16.4589 37.6042 15.7602 41.0263C15.0615 44.4483 14.1252 47.5087 12.9515 50.2075C11.7777 52.9062 10.2686 55.0485 8.42407 56.6343C6.57953 58.2202 4.31582 59.0131 1.63289 59.0131V57.4272C4.20399 57.4272 6.35597 56.4674 8.08867 54.5477C9.82142 52.628 11.2188 50.0266 12.2808 46.7436C13.3427 43.4607 14.1951 39.7187 14.8379 35.5175C15.4808 31.3165 15.9698 26.9345 16.3052 22.3717C16.6406 17.8089 16.948 13.3018 17.2274 8.85032C17.3951 6.90277 17.3253 5.42818 17.0179 4.42665C16.7104 3.42507 16.0397 2.7295 15.0056 2.34003C13.9716 1.95052 12.4485 1.72791 10.4363 1.67225V0.00297759C11.61 0.0586423 13.0074 0.114211 14.6284 0.169876C16.2493 0.225541 17.7305 0.253325 19.072 0.253325C20.3575 0.253325 21.6012 0.211601 22.8029 0.128103C24.0046 0.0447022 25.2204 0.00292969 26.45 0.00292969C28.574 0.00292969 30.5024 0.0446543 32.235 0.128103C33.9678 0.211553 36.0358 0.253325 38.4393 0.253325C40.0602 0.253325 41.8209 0.239433 43.7213 0.211601C45.6217 0.183768 47.4383 0.155936 49.171 0.128151C50.9037 0.100319 52.329 0.0586423 53.4469 0.00297759H53.4468ZM92.4291 26.1744V27.5065C91.6219 27.8025 90.8467 28.3839 90.1033 29.2509C89.3599 30.1178 88.6271 31.5874 87.905 33.6596L79.9401 57.257L76.6904 64.6787L61.3976 31.0588C60.6755 29.4518 59.9958 28.458 59.3586 28.0775C58.7214 27.6969 58.1692 27.5065 57.7019 27.5065V26.1744C59.4011 26.3013 61.164 26.3964 62.9906 26.4599C64.8173 26.5233 66.5165 26.555 68.0882 26.555C70.0848 26.555 71.8052 26.5127 73.2495 26.4282C74.6938 26.3436 76.0532 26.259 77.3276 26.1744V27.5065C76.5629 27.5065 75.8408 27.5488 75.1611 27.6334C74.4815 27.718 73.9929 27.9188 73.6956 28.236C73.3982 28.5531 73.4195 29.1135 73.7593 29.917L81.9154 49.2009L81.2145 49.7084L84.2731 40.3836C85.2501 37.5079 85.6643 35.1397 85.5156 33.279C85.3669 31.4182 84.8678 30.0121 84.0182 29.0606C83.1686 28.1091 82.1066 27.591 80.8322 27.5065V26.1744C81.427 26.2167 82.1491 26.259 82.9987 26.3013C83.8483 26.3435 84.6872 26.3753 85.5156 26.3964C86.344 26.4175 87.013 26.4281 87.5228 26.4281C88.2874 26.4281 89.1795 26.4069 90.1989 26.3646C91.2185 26.3223 91.9619 26.2589 92.4292 26.1743L92.4291 26.1744ZM79.9401 57.257L77.2639 64.9324C76.8815 65.9897 76.4674 66.8989 76.0213 67.6601C75.5753 68.4213 75.0549 69.0345 74.4601 69.4997C73.9079 69.9226 73.1752 70.2821 72.2618 70.5781C71.3485 70.8742 70.106 71.0221 68.5342 71.0221C67.3448 71.0221 66.081 70.8318 64.7429 70.4512C63.4048 70.0706 62.2579 69.4468 61.302 68.5799C60.3463 67.7129 59.8683 66.5394 59.8683 65.0593C59.8683 63.5792 60.4418 62.3951 61.5888 61.507C62.7357 60.6189 64.2437 60.1749 66.1128 60.1749C67.8545 60.1749 69.2457 60.5661 70.2865 61.3484C71.3272 62.1308 71.8476 63.3043 71.8476 64.869C71.8476 65.7994 71.5184 66.7298 70.86 67.6601C70.2015 68.5905 69.1501 69.2882 67.7058 69.7534C68.0457 69.7957 68.428 69.8274 68.8528 69.8485C69.2776 69.8697 69.6174 69.8803 69.8723 69.8803C71.2317 69.8803 72.4423 69.4679 73.5043 68.6433C74.5663 67.8186 75.3735 66.5394 75.9257 64.8055L78.1559 57.8912L79.94 57.2569L79.9401 57.257ZM129.893 9.30105L130.849 9.49132C130.382 12.3247 129.723 14.5661 128.874 16.2153C128.024 17.8646 127.111 19.0698 126.134 19.8311C125.114 20.6346 123.935 21.216 122.597 21.5755C121.259 21.935 119.783 22.157 118.169 22.2416C117.574 22.2839 116.799 22.3261 115.843 22.3684C114.887 22.4107 113.475 22.5164 111.606 22.6856C109.142 22.897 107.145 23.2248 105.616 23.6688C104.087 24.1128 102.876 24.8317 101.984 25.8255C101.092 26.8193 100.38 28.2254 99.8494 30.0439C99.3184 31.8624 98.8405 34.2517 98.4157 37.2119L104.405 36.5141L97.5873 42.0328C97.5873 38.6497 98.3413 35.8586 99.8494 33.6596C101.357 31.4605 103.396 29.8324 105.966 28.7752C108.536 27.718 111.414 27.1893 114.6 27.1893C117.489 27.1893 120.091 27.6756 122.406 28.6483C124.721 29.6209 126.569 31.2808 127.95 33.6278C129.33 35.9749 130.021 39.1994 130.021 43.3015C130.021 47.3613 129.32 50.607 127.918 53.0386C126.516 55.4702 124.562 57.2358 122.056 58.3353C119.549 59.4349 116.618 59.9846 113.262 59.9846C109.906 59.9846 107.177 59.4983 105.074 58.5256C102.972 57.553 101.357 56.1892 100.232 54.4341C99.106 52.6791 98.3308 50.5647 97.906 48.0908C97.4812 45.6169 97.2688 42.8997 97.2688 39.9395C97.2688 38.3748 97.3219 36.7149 97.4281 34.96C97.5343 33.205 97.7254 31.4288 98.0016 29.6316C98.2777 27.8342 98.6706 26.0898 99.1804 24.3983C99.6901 22.7067 100.338 21.1631 101.124 19.7676C101.91 18.372 102.876 17.1879 104.023 16.2153C105.128 15.2849 106.349 14.6083 107.687 14.1854C109.025 13.7625 110.522 13.4665 112.179 13.2973C114.303 13.0859 116.172 12.9696 117.786 12.9484C119.401 12.9273 120.824 12.8955 122.056 12.8533C124.137 12.7687 125.762 12.4726 126.93 11.9652C128.098 11.4577 129.086 10.5696 129.893 9.301V9.30105ZM113.645 28.458C112.795 28.458 112.03 28.9338 111.351 29.8853C110.671 30.8368 110.14 32.3804 109.758 34.516C109.375 36.6516 109.184 39.4955 109.184 43.0478C109.184 46.6001 109.375 49.5392 109.758 51.8652C110.14 54.1911 110.671 55.9144 111.351 57.035C112.03 58.1557 112.795 58.716 113.645 58.716C114.282 58.716 114.877 58.3988 115.429 57.7645C115.981 57.1302 116.448 56.1681 116.831 54.8783C117.213 53.5884 117.521 51.9603 117.755 49.9938C117.988 48.0274 118.105 45.7121 118.105 43.0478C118.105 37.7194 117.68 33.9556 116.831 31.7566C115.981 29.5576 114.919 28.4581 113.645 28.4581L113.645 28.458ZM150.408 25.5401V64.0443C150.408 66.1165 150.896 67.5015 151.873 68.1993C152.85 68.897 154.189 69.2459 155.888 69.2459V70.5781C154.698 70.5358 153.042 70.4829 150.918 70.4194C148.794 70.356 146.542 70.3243 144.163 70.3243C142.464 70.3243 140.786 70.3561 139.129 70.4194C137.473 70.4829 136.22 70.5358 135.37 70.5781V69.2459C136.687 69.2459 137.611 68.9288 138.142 68.2945C138.673 67.6601 138.938 66.4549 138.938 64.6787V33.1521C138.938 31.249 138.683 29.8429 138.174 28.9337C137.664 28.0245 136.729 27.5699 135.37 27.5699V26.2378C136.729 26.3646 138.046 26.4281 139.321 26.4281C141.445 26.4281 143.431 26.3541 145.278 26.2061C147.126 26.058 148.836 25.8361 150.408 25.54L150.408 25.5401ZM160.093 25.2864C162.217 25.2864 164.108 25.8678 165.764 27.0308C167.421 28.1938 168.738 29.9487 169.715 32.2958C170.692 34.6429 171.18 37.6137 171.18 41.2082C171.18 44.8028 170.787 47.8054 170.002 50.2159C169.216 52.6264 168.132 54.5505 166.752 55.9884C165.371 57.4262 163.789 58.4517 162.005 59.0649C160.221 59.6781 158.33 59.9847 156.334 59.9847C154.889 59.9847 153.519 59.8261 152.224 59.509C150.928 59.1918 149.856 58.5892 149.006 57.7012L149.643 56.8765C149.983 57.3417 150.429 57.6589 150.981 57.828C151.534 57.9972 152.086 58.0817 152.638 58.0817C154.21 58.0817 155.484 57.5108 156.461 56.369C157.438 55.2272 158.15 53.5145 158.596 51.2308C159.042 48.9472 159.265 46.0927 159.265 42.6673C159.265 38.9035 159.074 36.0068 158.691 33.9769C158.309 31.947 157.799 30.5408 157.162 29.7585C156.525 28.9761 155.803 28.585 154.996 28.585C153.806 28.585 152.744 29.0079 151.81 29.8536C150.875 30.6994 150.408 31.7989 150.408 33.1522V30.0439C151.385 28.4369 152.702 27.2422 154.358 26.4599C156.015 25.6775 157.927 25.2864 160.093 25.2864H160.093ZM193.798 25.2864C197.111 25.2864 199.989 25.8466 202.432 26.9673C204.874 28.088 206.775 29.917 208.135 32.4543C209.494 34.9917 210.174 38.396 210.174 42.6672C210.174 46.9384 209.494 50.3426 208.135 52.88C206.775 55.4174 204.874 57.2358 202.432 58.3353C199.989 59.4349 197.111 59.9846 193.798 59.9846C190.527 59.9846 187.66 59.4349 185.196 58.3353C182.732 57.2358 180.82 55.4174 179.461 52.88C178.102 50.3426 177.422 46.9384 177.422 42.6672C177.422 38.396 178.102 34.9917 179.461 32.4543C180.82 29.917 182.732 28.088 185.196 26.9673C187.66 25.8466 190.527 25.2864 193.798 25.2864ZM193.798 26.555C192.523 26.555 191.461 27.8237 190.612 30.361C189.762 32.8983 189.337 37.0004 189.337 42.6672C189.337 48.3339 189.762 52.4254 190.612 54.9416C191.461 57.4578 192.523 58.716 193.798 58.716C195.072 58.716 196.134 57.4578 196.984 54.9416C197.833 52.4254 198.258 48.3339 198.258 42.6672C198.258 37.0004 197.833 32.8983 196.984 30.361C196.134 27.8237 195.072 26.555 193.798 26.555ZM235.913 26.2378C239.227 26.2378 241.839 26.555 243.751 27.1893C245.663 27.8237 247.032 28.6906 247.861 29.7901C248.689 30.8896 249.103 32.1584 249.103 33.5961C249.103 36.0489 247.776 38.0999 245.121 39.7492C242.466 41.3985 238.292 42.202 232.6 42.1597C232.6 42.1597 232.451 42.1385 232.154 42.0962C231.857 42.0539 231.549 42.0117 231.23 41.9694C230.911 41.9271 230.752 41.9059 230.752 41.9059C232.621 41.8637 234.044 41.557 235.021 40.9861C235.998 40.4152 236.657 39.58 236.997 38.4805C237.337 37.381 237.506 36.0489 237.506 34.4842C237.506 33.2155 237.4 32.0631 237.188 31.0271C236.976 29.9909 236.551 29.1558 235.914 28.5214C235.276 27.8871 234.342 27.57 233.11 27.57C232.218 27.57 231.602 27.8554 231.262 28.4263C230.922 28.9972 230.752 30.2342 230.752 32.1372V53.1972C230.752 55.1425 230.943 56.3901 231.326 56.9398C231.708 57.4896 232.367 57.7644 233.301 57.7644C234.745 57.7644 235.839 57.4155 236.583 56.7178C237.326 56.02 237.836 55.1319 238.112 54.0536C238.388 52.9752 238.526 51.8439 238.526 50.6599C238.526 48.0379 237.984 46.1349 236.901 44.9508C235.818 43.7667 233.981 43.1747 231.39 43.1747H225.527C225.527 43.1747 225.527 42.9633 225.527 42.5404C225.527 42.1175 225.527 41.906 225.527 41.906H233.747L235.213 42.0329C238.993 42.0329 241.978 42.35 244.165 42.9844C246.353 43.6187 247.914 44.5703 248.849 45.8389C249.783 47.1076 250.25 48.6934 250.25 50.5964C250.25 52.3303 249.847 53.8421 249.04 55.132C248.233 56.4218 246.884 57.405 244.994 58.0816C243.103 58.7582 240.544 59.0966 237.315 59.0966C235.956 59.0966 234.183 59.0543 231.995 58.9697C229.807 58.8851 227.566 58.8429 225.272 58.8429C223.488 58.8429 221.683 58.8746 219.856 58.938C218.03 59.0014 216.649 59.0543 215.714 59.0966V57.7644C217.031 57.7644 217.955 57.4473 218.486 56.813C219.017 56.1786 219.283 54.9734 219.283 53.1972V32.1372C219.283 30.361 219.017 29.1558 218.486 28.5214C217.955 27.8871 217.031 27.57 215.714 27.57V26.2378C216.564 26.2801 217.849 26.333 219.569 26.3964C221.29 26.4599 222.978 26.4915 224.635 26.4915C226.802 26.4915 228.873 26.4492 230.848 26.3647C232.823 26.2801 234.512 26.2378 235.914 26.2378H235.913ZM272.549 25.2864C274.418 25.2864 276.075 25.4766 277.519 25.8573C278.964 26.2379 280.111 26.6819 280.96 27.1894C282.107 27.866 283.031 28.7646 283.732 29.8853C284.433 31.006 284.783 32.3063 284.783 33.7865C284.783 35.5203 284.21 36.9794 283.063 38.1635C281.916 39.3475 280.45 39.9396 278.666 39.9396C276.797 39.9396 275.353 39.4109 274.333 38.3537C273.314 37.2965 272.804 35.9221 272.804 34.2305C272.804 32.6235 273.324 31.2596 274.365 30.139C275.406 29.0183 276.627 28.2677 278.029 27.887C277.732 27.6756 277.381 27.4959 276.978 27.3479C276.574 27.1998 276.075 27.1258 275.48 27.1258C273.951 27.1258 272.708 27.5804 271.753 28.4897C270.797 29.3988 270.053 30.5935 269.522 32.0737C268.991 33.5538 268.62 35.1396 268.407 36.8312C268.195 38.5228 268.089 40.1721 268.089 41.7791C268.089 44.7393 268.492 47.0441 269.299 48.6934C270.107 50.3426 271.126 51.4844 272.358 52.1188C273.59 52.7531 274.822 53.0703 276.054 53.0703C276.648 53.0703 277.36 52.9857 278.188 52.8166C279.017 52.6474 279.919 52.2563 280.896 51.6431C281.873 51.0299 282.829 50.0889 283.764 48.8203L284.847 49.2009C284.337 50.8924 283.52 52.5734 282.394 54.2439C281.268 55.9143 279.813 57.2887 278.029 58.3671C276.245 59.4455 274.078 59.9847 271.53 59.9847C268.684 59.9847 266.103 59.4349 263.788 58.3354C261.473 57.2359 259.625 55.4174 258.244 52.8801C256.864 50.3427 256.173 46.9384 256.173 42.6672C256.173 38.6074 256.895 35.2983 258.34 32.7398C259.784 30.1814 261.749 28.2994 264.234 27.0942C266.719 25.889 269.491 25.2864 272.549 25.2864L272.549 25.2864ZM320.081 25.2864C322.587 25.2864 324.424 25.8573 325.593 26.9991C326.761 28.1409 327.345 29.5999 327.345 31.376C327.345 33.2367 326.803 34.6745 325.72 35.6895C324.637 36.7044 323.288 37.2119 321.674 37.2119C320.824 37.2119 319.922 37.0533 318.966 36.7361C318.01 36.419 317.192 35.8798 316.513 35.1186C315.833 34.3574 315.493 33.3636 315.493 32.1372C315.493 31.1645 315.78 30.1708 316.353 29.1559C316.927 28.1409 317.872 27.2951 319.189 26.6185C317.745 26.7031 316.672 27.0625 315.971 27.6969C315.27 28.3312 314.75 29.2721 314.41 30.5197C314.07 31.7672 313.645 33.3636 313.136 35.3089C312.838 36.493 312.509 37.5397 312.148 38.4489C311.787 39.3581 311.277 40.1087 310.619 40.7008C309.96 41.2929 309.015 41.758 307.783 42.0964L307.847 41.6524C311.5 41.0603 314.431 41.0814 316.64 41.7158C318.849 42.3501 320.506 43.3017 321.61 44.5704C322.587 45.7122 323.299 47.0865 323.745 48.6936C324.191 50.3006 324.839 52.1613 325.688 54.2758C326.156 55.3753 326.591 56.1999 326.995 56.7496C327.398 57.2994 328.046 57.6377 328.938 57.7646V59.0967C328.088 59.2235 327.249 59.3187 326.421 59.3822C325.593 59.4456 324.775 59.4773 323.968 59.4773C321.164 59.4773 318.86 58.9803 317.054 57.9866C315.249 56.9928 314.049 55.1638 313.454 52.4996C313.369 51.9921 313.189 51.2415 312.913 50.2476C312.636 49.2539 312.275 48.2283 311.829 47.1711C311.383 46.1139 310.842 45.247 310.204 44.5703C309.652 43.9783 308.919 43.5025 308.006 43.143C307.093 42.7836 305.978 42.6884 304.661 42.8576V41.7158C306.445 41.5889 307.794 41.2718 308.707 40.7643C309.62 40.2568 310.311 39.4744 310.778 38.4173C311.245 37.36 311.691 35.9645 312.116 34.2306C312.626 32.243 313.136 30.5832 313.645 29.2511C314.155 27.919 314.898 26.9252 315.876 26.2697C316.853 25.6142 318.254 25.2865 320.081 25.2865L320.081 25.2864ZM308.484 26.2378V27.57C307.167 27.57 306.243 27.8871 305.712 28.5214C305.181 29.1558 304.916 30.361 304.916 32.1372V53.1972C304.916 54.9733 305.181 56.1786 305.712 56.813C306.243 57.4473 307.167 57.7644 308.484 57.7644V59.0966C307.549 59.0543 306.169 59.0014 304.342 58.938C302.516 58.8745 300.731 58.8429 298.99 58.8429C297.291 58.8429 295.56 58.8746 293.797 58.938C292.034 59.0014 290.727 59.0543 289.878 59.0966V57.7644C291.195 57.7644 292.119 57.4473 292.65 56.813C293.181 56.1786 293.446 54.9734 293.446 53.1972V32.1372C293.446 30.361 293.181 29.1558 292.65 28.5214C292.119 27.8871 291.195 27.57 289.878 27.57V26.2378C290.812 26.2801 292.225 26.333 294.115 26.3964C296.006 26.4599 297.8 26.4915 299.5 26.4915C301.241 26.4915 302.962 26.4598 304.661 26.3964C306.36 26.333 307.634 26.2801 308.484 26.2378ZM373.347 26.2378V27.57C372.031 27.57 371.107 27.8871 370.576 28.5214C370.045 29.1558 369.779 30.361 369.779 32.1372V53.1972C369.779 54.9733 370.045 56.1786 370.576 56.813C371.107 57.4473 372.031 57.7644 373.347 57.7644V59.0966C372.498 59.0543 371.213 59.0014 369.492 58.938C367.772 58.8745 366.083 58.8429 364.427 58.8429C362.643 58.8429 360.901 58.8746 359.202 58.938C357.503 59.0014 356.228 59.0543 355.379 59.0966V57.7644C356.483 57.7644 357.248 57.4473 357.672 56.813C358.097 56.1786 358.31 54.9734 358.31 53.1972V32.1372C358.31 30.361 358.097 29.1558 357.672 28.5214C357.248 27.8871 356.483 27.57 355.379 27.57V26.2378C356.186 26.2801 357.375 26.333 358.947 26.3964C360.519 26.4599 362.133 26.4915 363.789 26.4915C365.574 26.4915 367.379 26.4598 369.206 26.3964C371.032 26.333 372.413 26.2801 373.347 26.2378H373.347ZM350.982 26.2378V27.57C349.92 27.57 349.166 27.8871 348.72 28.5214C348.274 29.1558 348.051 30.361 348.051 32.1372V53.1972C348.051 54.9733 348.274 56.1786 348.72 56.813C349.166 57.4473 349.92 57.7644 350.982 57.7644V59.0966C350.175 59.0543 348.985 59.0014 347.414 58.938C345.842 58.8745 344.228 58.8429 342.571 58.8429C340.787 58.8429 338.981 58.8746 337.155 58.938C335.328 59.0014 333.948 59.0543 333.013 59.0966V57.7644C334.33 57.7644 335.254 57.4473 335.785 56.813C336.316 56.1786 336.581 54.9734 336.581 53.1972V32.1372C336.581 30.361 336.316 29.1558 335.785 28.5214C335.254 27.8871 334.33 27.57 333.013 27.57V26.2378C333.863 26.2801 335.158 26.333 336.9 26.3964C338.641 26.4599 340.319 26.4915 341.934 26.4915C343.718 26.4915 345.459 26.4598 347.159 26.3964C348.858 26.333 350.132 26.2801 350.982 26.2378H350.982ZM359.138 29.7901L360.221 30.361L346.713 56.8764L345.566 56.3055L359.138 29.7901H359.138ZM418.585 26.2378V27.57C417.268 27.57 416.344 27.8871 415.813 28.5214C415.282 29.1558 415.017 30.361 415.017 32.1372V53.1972C415.017 54.9733 415.282 56.1786 415.813 56.813C416.344 57.4473 417.268 57.7644 418.585 57.7644V59.0966C417.736 59.0543 416.451 59.0014 414.73 58.938C413.01 58.8745 411.321 58.8429 409.665 58.8429C407.88 58.8429 406.139 58.8746 404.44 58.938C402.74 59.0014 401.466 59.0543 400.616 59.0966V57.7644C401.721 57.7644 402.486 57.4473 402.91 56.813C403.335 56.1786 403.547 54.9734 403.547 53.1972V32.1372C403.547 30.361 403.335 29.1558 402.91 28.5214C402.485 27.8871 401.721 27.57 400.616 27.57V26.2378C401.424 26.2801 402.613 26.333 404.185 26.3964C405.756 26.4599 407.371 26.4915 409.027 26.4915C410.812 26.4915 412.617 26.4598 414.444 26.3964C416.27 26.333 417.651 26.2801 418.585 26.2378H418.585ZM396.22 26.2378V27.57C395.158 27.57 394.404 27.8871 393.958 28.5214C393.512 29.1558 393.289 30.361 393.289 32.1372V53.1972C393.289 54.9733 393.512 56.1786 393.958 56.813C394.404 57.4473 395.158 57.7644 396.22 57.7644V59.0966C395.413 59.0543 394.223 59.0014 392.651 58.938C391.08 58.8745 389.465 58.8429 387.809 58.8429C386.025 58.8429 384.219 58.8746 382.393 58.938C380.566 59.0014 379.185 59.0543 378.251 59.0966V57.7644C379.568 57.7644 380.492 57.4473 381.023 56.813C381.554 56.1786 381.819 54.9734 381.819 53.1972V32.1372C381.819 30.361 381.554 29.1558 381.023 28.5214C380.492 27.8871 379.568 27.57 378.251 27.57V26.2378C379.1 26.2801 380.396 26.333 382.138 26.3964C383.879 26.4599 385.557 26.4915 387.172 26.4915C388.956 26.4915 390.697 26.4598 392.396 26.3964C394.096 26.333 395.37 26.2801 396.22 26.2378H396.22ZM404.376 29.7901L405.459 30.361L391.951 56.8764L390.804 56.3055L404.376 29.7901H404.376ZM407.371 8.79355C408.985 8.79355 410.312 9.31159 411.353 10.3477C412.394 11.3838 412.914 12.7053 412.914 14.3123C412.914 15.4964 412.543 16.5536 411.799 17.484C411.056 18.4144 410.196 19.1333 409.218 19.6407C407.987 20.3173 406.457 20.846 404.631 21.2266C402.804 21.6072 400.744 21.7975 398.45 21.7975C396.113 21.7975 394.032 21.6072 392.205 21.2266C390.379 20.846 388.849 20.3173 387.618 19.6407C386.683 19.1333 385.855 18.4144 385.133 17.484C384.41 16.5536 384.049 15.4964 384.049 14.3123C384.049 12.7053 384.548 11.3837 385.547 10.3477C386.545 9.31159 387.894 8.79355 389.593 8.79355C391.165 8.79355 392.482 9.31159 393.543 10.3477C394.605 11.3838 395.137 12.7053 395.137 14.3123C395.137 15.6233 394.754 16.7228 393.99 17.6108C393.225 18.4989 392.248 19.1544 391.058 19.5773C392.248 19.8733 393.512 20.1059 394.85 20.275C396.188 20.4442 397.388 20.5287 398.45 20.5287C399.512 20.5287 400.701 20.4442 402.018 20.275C403.335 20.1059 404.588 19.8522 405.778 19.5139C404.588 19.091 403.632 18.4355 402.91 17.5474C402.188 16.6593 401.827 15.581 401.827 14.3123C401.827 12.7053 402.347 11.3837 403.388 10.3477C404.429 9.31159 405.756 8.79355 407.371 8.79355H407.371Z" fill="#503C2F"/>
<path fill-rule="evenodd" clip-rule="evenodd" d="M29.6927 1.83115C30.1315 2.34967 30.4712 2.95585 30.7268 3.61017C31.3351 5.16749 31.4361 7.19389 31.4361 8.85032V50.2492C31.4361 51.8736 31.3515 53.797 30.8452 55.351C30.5988 56.1073 30.2191 56.765 29.7145 57.3044H36.5947C39.2277 57.3044 41.7762 57.8098 44.2055 58.8201C46.8977 59.9396 49.0464 61.8452 50.7518 64.1761C51.5482 65.2644 52.2043 66.4642 52.747 67.7229C52.7676 66.4792 52.8151 65.2326 52.8636 63.993C52.9259 62.4 53.0246 60.8084 53.1548 59.2194H52.6083C51.164 59.2194 49.4591 59.107 48.1197 58.5291C46.7129 57.9223 45.8232 56.7557 45.3911 55.3088C44.9279 53.7576 44.8553 51.8599 44.8553 50.2492V8.85027C44.8553 7.24333 44.9289 5.24998 45.4557 3.72011C45.6884 3.04466 46.033 2.45568 46.4785 1.9627C45.5682 1.97664 44.658 1.99024 43.7477 2.00356C41.9784 2.02943 40.2087 2.04547 38.4392 2.04547C36.3436 2.04547 34.2413 2.01898 32.1479 1.91819C31.3302 1.87882 30.5117 1.8505 29.6928 1.83105L29.6927 1.83115ZM19.1318 2.04552C19.1118 2.04557 19.0918 2.04557 19.0717 2.04557C18.614 2.04557 18.1561 2.0425 17.6983 2.03676C18.0066 2.37999 18.2652 2.76912 18.4691 3.20188C18.6564 2.79891 18.8749 2.4073 19.1318 2.04552ZM2.09241 59.2195C2.22267 60.8084 2.32122 62.4 2.38358 63.993C2.43213 65.2326 2.47963 66.4793 2.50018 67.7229C3.04292 66.4642 3.69904 65.2645 4.49538 64.1761C6.01236 62.1028 7.88009 60.366 10.1691 59.2195H2.09241V59.2195ZM76.8438 60.6716L78.2363 56.6777L80.4058 50.2504L72.1 30.6125C71.7861 29.8703 71.5977 29.052 71.7349 28.2921C70.5196 28.3341 69.302 28.3473 68.0882 28.3473C66.3678 28.3473 64.6471 28.3107 62.9278 28.251C62.5877 28.2392 62.2477 28.2262 61.9076 28.2121C62.366 28.9016 62.7382 29.6614 63.0375 30.3195L76.8438 60.6716ZM86.9791 31.0664C87.4293 30.033 87.9733 29.0133 88.6327 28.2083C88.2626 28.216 87.8925 28.2204 87.5226 28.2204C86.8928 28.2204 86.262 28.2078 85.6322 28.1921C86.2922 29.0397 86.7161 30.0299 86.9791 31.0664ZM65.1343 68.698L67.1517 68.0483C67.976 67.7828 68.8749 67.3533 69.3883 66.628C69.7528 66.1129 70.0473 65.5119 70.0473 64.8691C70.0473 64.0561 69.8792 63.2881 69.2016 62.7788C68.3416 62.1323 67.1611 61.9672 66.1128 61.9672C64.9224 61.9672 63.6571 62.1761 62.6941 62.9219C61.9724 63.4806 61.6687 64.1519 61.6687 65.0594C61.6687 65.9108 61.8699 66.6705 62.5145 67.2552C63.2716 67.9419 64.158 68.4065 65.1344 68.6981L65.1343 68.698ZM109.823 57.9831C109.818 57.9758 109.814 57.9686 109.81 57.9613C108.801 56.2988 108.293 54.0533 107.981 52.1546C107.493 49.1866 107.384 46.0514 107.384 43.0478C107.384 40.154 107.475 37.0551 107.985 34.2016C108.254 32.7 108.676 30.944 109.448 29.5425C108.498 29.7641 107.564 30.0571 106.654 30.4316C104.46 31.3339 102.675 32.7178 101.336 34.6701C100.899 35.308 100.545 35.9956 100.267 36.7163L99.6861 38.2203L99.0936 38.0631C99.0774 38.6886 99.0689 39.3141 99.0689 39.9397C99.0689 42.5603 99.2365 45.2038 99.6803 47.789C100.022 49.7808 100.651 51.7573 101.749 53.4697C102.747 55.0255 104.159 56.1263 105.833 56.9004C107.049 57.463 108.427 57.7964 109.823 57.9831L109.823 57.9831ZM117.564 57.826C118.858 57.5889 120.125 57.2239 121.33 56.6954C123.519 55.735 125.166 54.211 126.356 52.1466C127.843 49.5673 128.22 46.2233 128.22 43.3016C128.22 40.4463 127.875 37.0474 126.396 34.5336C125.274 32.6258 123.759 31.1622 121.706 30.2995C120.374 29.7401 118.983 29.3814 117.565 29.1816C117.949 29.7951 118.259 30.4625 118.511 31.1132C119.791 34.4272 119.905 39.5261 119.905 43.0478C119.905 45.4275 119.823 47.8398 119.542 50.2043C119.337 51.9308 119.052 53.7158 118.557 55.3854C118.314 56.2046 117.998 57.0568 117.564 57.826L117.564 57.826ZM128.094 13.3978C127.949 13.4722 127.801 13.5423 127.65 13.6079C125.972 14.3369 123.94 14.5747 122.125 14.6442C120.688 14.6993 119.248 14.7217 117.81 14.7405C115.993 14.7643 114.167 14.8986 112.36 15.0805C110.967 15.2208 109.568 15.4712 108.232 15.8936C107.104 16.25 106.091 16.8187 105.188 17.5815C104.168 18.4436 103.347 19.4842 102.694 20.644C102.075 21.7437 101.572 22.9049 101.166 24.0983C102.28 23.0647 103.638 22.3761 105.112 21.9482C107.132 21.3618 109.356 21.084 111.447 20.9003C112.879 20.7746 114.328 20.6415 115.763 20.5779C116.522 20.5443 117.283 20.5078 118.04 20.4538L118.057 20.4526L118.074 20.4517C119.437 20.3803 120.809 20.1995 122.128 19.8451C123.186 19.5611 124.159 19.0979 125.02 18.4228C125.968 17.6802 126.729 16.4511 127.272 15.3974C127.591 14.7768 127.862 14.1001 128.094 13.3977L128.094 13.3978ZM148.607 58.5973V27.6487C147.549 27.7954 146.486 27.9074 145.423 27.9926C143.564 28.1416 141.696 28.2088 139.831 28.2191C140.583 29.6719 140.739 31.5548 140.739 33.1522V64.6788C140.739 65.9202 140.632 67.4084 140.063 68.5942C141.43 68.5524 142.797 68.5322 144.163 68.5322C146.032 68.5322 147.902 68.5513 149.77 68.5959C148.858 67.3113 148.608 65.6113 148.608 64.0444V58.5973H148.607ZM157.213 58.1701C158.645 58.0965 160.054 57.8395 161.417 57.3708C162.978 56.8344 164.31 55.9371 165.45 54.75C166.804 53.3404 167.69 51.5005 168.289 49.6626C169.153 47.0127 169.38 43.9789 169.38 41.2083C169.38 38.5056 169.1 35.5012 168.052 32.9819C167.331 31.2503 166.288 29.5913 164.727 28.4955C163.336 27.5191 161.793 27.0786 160.093 27.0786C159.104 27.0786 158.112 27.1693 157.151 27.3886C157.68 27.7024 158.151 28.1269 158.56 28.6297C159.633 29.9464 160.153 32.0106 160.461 33.6466C161.001 36.5152 161.065 39.7536 161.065 42.6673C161.065 45.6034 160.927 48.6855 160.363 51.5729C159.956 53.6549 159.235 55.8914 157.832 57.5312C157.635 57.7612 157.428 57.9742 157.213 58.1701V58.1701ZM189.957 27.3888C188.576 27.6268 187.225 28.0148 185.944 28.5975C183.76 29.5906 182.176 31.194 181.049 33.2978C179.579 36.0417 179.222 39.6075 179.222 42.6673C179.222 45.7271 179.579 49.2929 181.049 52.0368C182.172 54.1321 183.75 55.7262 185.932 56.7C187.216 57.2729 188.57 57.6542 189.952 57.8878C189.506 57.1228 189.166 56.2849 188.905 55.5128C188.335 53.8228 188.049 51.9392 187.865 50.1701C187.607 47.6878 187.537 45.1617 187.537 42.6672C187.537 40.1701 187.608 37.6419 187.865 35.1568C188.049 33.3803 188.335 31.4927 188.904 29.7943C189.165 29.0141 189.506 28.1642 189.957 27.3887V27.3888ZM197.639 57.895C199.034 57.6636 200.401 57.2824 201.69 56.7024C203.861 55.7249 205.428 54.1237 206.546 52.0368C208.016 49.2929 208.373 45.7271 208.373 42.6673C208.373 39.6075 208.016 36.0417 206.546 33.2978C205.423 31.2022 203.851 29.5918 201.678 28.5951C200.393 28.0052 199.028 27.6172 197.634 27.3815C198.087 28.1589 198.429 29.0117 198.692 29.7943C199.26 31.4928 199.546 33.3803 199.73 35.1569C199.988 37.642 200.058 40.1702 200.058 42.6673C200.058 45.1617 199.988 47.6878 199.73 50.1702C199.547 51.9392 199.261 53.8228 198.69 55.5128C198.429 56.2874 198.088 57.1281 197.639 57.8951L197.639 57.895ZM229.416 57.0975C228.987 55.8928 228.952 54.3199 228.952 53.1973V32.1372C228.952 31.0117 228.984 29.4111 229.397 28.2119C227.81 28.2616 226.222 28.2838 224.635 28.2838C223.225 28.2838 221.815 28.2612 220.406 28.2179C220.976 29.4043 221.083 30.8944 221.083 32.1372V53.1972C221.083 54.4436 220.976 55.9389 220.401 57.1269C222.024 57.0766 223.648 57.0506 225.272 57.0506C226.653 57.0506 228.035 57.0658 229.416 57.0975V57.0975ZM238.493 57.2892C240.458 57.236 242.622 57.0259 244.384 56.3952C245.586 55.9651 246.818 55.2928 247.511 54.1844C248.192 53.0963 248.45 51.8682 248.45 50.5965C248.45 49.2826 248.19 47.9757 247.397 46.8988C246.549 45.748 244.993 45.0913 243.662 44.7052C242.023 44.2302 240.167 44.0107 238.377 43.9089C239.939 45.7415 240.326 48.332 240.326 50.66C240.326 51.954 240.177 53.2417 239.856 54.4964C239.592 55.5283 239.144 56.4727 238.493 57.2892V57.2892ZM238.295 40.0524C240.348 39.7747 242.526 39.2485 244.168 38.2289C245.892 37.1579 247.303 35.7236 247.303 33.5962C247.303 32.5806 247.033 31.6791 246.42 30.8655C245.68 29.8826 244.318 29.2669 243.181 28.8896C241.586 28.3601 239.676 28.146 237.87 28.0687C238.41 28.8427 238.759 29.7269 238.952 30.6688C239.208 31.9207 239.307 33.208 239.307 34.4843C239.307 35.9932 239.165 37.5602 238.717 39.0077C238.604 39.3746 238.463 39.7233 238.295 40.0524ZM280.373 53.9653C279.787 54.2318 279.177 54.4443 278.55 54.5723C277.736 54.7386 276.886 54.8626 276.054 54.8626C274.459 54.8626 272.942 54.4373 271.531 53.7107C269.763 52.8007 268.538 51.2303 267.681 49.4784C266.556 47.1795 266.288 44.3038 266.288 41.7792C266.288 40.0509 266.405 38.3237 266.621 36.6091C266.841 34.8592 267.231 33.1328 267.827 31.471C268.403 29.864 269.263 28.3794 270.509 27.1941C270.514 27.1891 270.519 27.1842 270.524 27.1793C268.62 27.3735 266.771 27.8573 265.022 28.7054C262.788 29.7891 261.125 31.4645 259.909 33.6179C258.394 36.3016 257.973 39.635 257.973 42.6673C257.973 45.7293 258.337 49.2892 259.827 52.0266C260.933 54.0602 262.451 55.7148 264.563 56.7179C266.754 57.7584 269.111 58.1925 271.529 58.1925C273.467 58.1925 275.419 57.8477 277.095 56.8352C278.367 56.0663 279.466 55.1148 280.373 53.9653ZM280.546 29.0613L278.503 29.6162C277.39 29.9183 276.469 30.5136 275.687 31.3557C274.926 32.1754 274.604 33.1219 274.604 34.2306C274.604 35.3179 274.863 36.3158 275.632 37.1126C276.423 37.9328 277.565 38.1474 278.666 38.1474C279.885 38.1474 280.915 37.7989 281.767 36.9195C282.621 36.038 282.983 35.0068 282.983 33.7865C282.983 32.7354 282.765 31.7308 282.203 30.8327C281.761 30.1258 281.21 29.5395 280.546 29.0613L280.546 29.0613ZM303.792 28.2191C302.361 28.2627 300.93 28.2838 299.499 28.2838C297.854 28.2838 296.208 28.2548 294.563 28.204C295.139 29.3926 295.246 30.8896 295.246 32.1372V53.1973C295.246 54.4409 295.14 55.9324 294.568 57.1192C296.041 57.0742 297.515 57.0507 298.99 57.0507C300.592 57.0507 302.195 57.0771 303.797 57.1269C303.222 55.9389 303.115 54.4436 303.115 53.1973V43.9568L300.267 44.2834L303.115 42.7848V32.1373C303.115 30.8949 303.222 29.4053 303.792 28.2192L303.792 28.2191ZM311.234 43.0606C311.332 43.153 311.428 43.2485 311.52 43.3474C312.371 44.2544 313.008 45.337 313.489 46.477C313.941 47.5495 314.336 48.6483 314.647 49.7697C314.863 50.5455 315.085 51.3591 315.221 52.1541C315.602 53.8354 316.343 55.5472 317.925 56.418C319.723 57.4075 321.943 57.6849 323.968 57.6849C324.455 57.6849 324.942 57.6727 325.428 57.6488C324.864 56.8384 324.411 55.8712 324.03 54.9739L324.023 54.9576L324.017 54.9412C323.26 53.0582 322.552 51.1265 322.009 49.1707C321.66 47.9131 321.104 46.7328 320.245 45.7386C319.222 44.5536 317.617 43.8615 316.141 43.4377C314.63 43.0039 312.878 42.9553 311.234 43.0606L311.234 43.0606ZM321.94 27.2214L320.014 28.211C319.192 28.6336 318.384 29.2167 317.922 30.0345C317.559 30.6768 317.293 31.3921 317.293 32.1372C317.293 32.7831 317.416 33.4326 317.858 33.9279C318.323 34.4482 318.872 34.8158 319.535 35.0359C320.221 35.2634 320.949 35.4197 321.674 35.4197C322.756 35.4197 323.693 35.1276 324.486 34.3844C325.322 33.6015 325.545 32.4787 325.545 31.376C325.545 30.1664 325.205 29.1318 324.331 28.2779C323.726 27.6868 322.843 27.3769 321.94 27.2215V27.2214ZM368.661 28.2075C367.037 28.2578 365.413 28.2837 363.789 28.2837C362.563 28.2837 361.336 28.2666 360.11 28.2303V31.7361L360.113 31.832L360.11 31.8388V53.1972C360.11 54.4046 360.035 55.9372 359.529 57.1328C361.161 57.0767 362.794 57.0506 364.427 57.0506C365.836 57.0506 367.246 57.0732 368.656 57.1164C368.085 55.9301 367.979 54.4399 367.979 53.1972V32.1372C367.979 30.8908 368.086 29.3955 368.661 28.2075ZM346.25 57.104V32.1372C346.25 30.9212 346.332 29.3961 346.853 28.2008C345.214 28.2573 343.574 28.2838 341.934 28.2838C340.523 28.2838 339.113 28.2601 337.704 28.2167C338.275 29.4032 338.381 30.894 338.381 32.1372V53.1972C338.381 54.4436 338.274 55.9389 337.699 57.1269C339.323 57.0766 340.947 57.0506 342.571 57.0506C343.797 57.0506 345.024 57.0678 346.25 57.104H346.25ZM413.899 28.2075C412.275 28.2578 410.651 28.2837 409.027 28.2837C407.8 28.2837 406.574 28.2666 405.348 28.2303V31.7361L405.351 31.832L405.348 31.8388V53.1972C405.348 54.4046 405.272 55.9372 404.767 57.1328C406.399 57.0767 408.032 57.0506 409.664 57.0506C411.074 57.0506 412.484 57.0732 413.894 57.1164C413.323 55.9301 413.217 54.4399 413.217 53.1972V32.1372C413.217 30.8908 413.324 29.3955 413.899 28.2075ZM391.488 57.104V32.1372C391.488 30.9212 391.57 29.3961 392.091 28.2008C390.452 28.2573 388.811 28.2838 387.171 28.2838C385.761 28.2838 384.351 28.2601 382.942 28.2167C383.513 29.4032 383.619 30.894 383.619 32.1372V53.1972C383.619 54.4436 383.512 55.9389 382.937 57.1269C384.561 57.0766 386.185 57.0506 387.809 57.0506C389.035 57.0506 390.262 57.0678 391.488 57.104H391.488ZM407.825 18.3388C408.003 18.2543 408.178 18.1653 408.349 18.0715L408.367 18.0614L408.386 18.0517C409.177 17.6408 409.836 17.0615 410.39 16.3683C410.878 15.7572 411.114 15.0932 411.114 14.3123C411.114 13.2645 410.83 12.3621 410.08 11.615C409.329 10.8677 408.423 10.5857 407.37 10.5857C406.318 10.5857 405.412 10.8678 404.661 11.615C403.91 12.3621 403.627 13.2645 403.627 14.3123C403.627 15.0952 403.811 15.8063 404.309 16.4198C404.856 17.0926 405.568 17.5363 406.383 17.826L407.825 18.3389L407.825 18.3388ZM389.089 18.3744L390.453 17.8895C391.3 17.5882 392.036 17.1261 392.622 16.4444C393.149 15.8329 393.336 15.1096 393.336 14.3122C393.336 13.261 393.043 12.3689 392.283 11.6277C391.527 10.8898 390.643 10.5857 389.593 10.5857C388.551 10.5857 387.583 10.8235 386.846 11.5882C386.112 12.3493 385.849 13.2743 385.849 14.3122C385.849 15.0951 386.076 15.7685 386.557 16.3881C387.087 17.0716 387.721 17.6526 388.484 18.0696C388.681 18.1774 388.883 18.2788 389.089 18.3744L389.089 18.3744Z" fill="#E4D8C4"/>
<path fill-rule="evenodd" clip-rule="evenodd" d="M31.3878 2.80596C31.4596 2.96069 31.5263 3.11776 31.5884 3.27662C32.2487 4.9672 32.3605 7.04812 32.3605 8.85032V50.2492C32.3605 52.0021 32.2701 53.9602 31.7245 55.635C31.641 55.8914 31.5429 56.1416 31.4298 56.384H36.5946C39.3451 56.384 42.0235 56.9153 44.5617 57.9708C47.4106 59.1555 49.6934 61.1666 51.4989 63.6342C51.6468 63.8363 51.7898 64.0416 51.9283 64.2499C51.9321 64.1523 51.9359 64.0547 51.9397 63.9572C51.9896 62.6823 52.0625 61.4085 52.1561 60.1361C50.6833 60.111 49.0885 59.9502 47.752 59.3736C46.0904 58.6569 45.0144 57.2775 44.5048 55.5711C44.0067 53.9028 43.9308 51.9835 43.9308 50.2493V8.85037C43.9308 7.10287 44.0094 5.08198 44.5811 3.42172C44.6412 3.24744 44.7082 3.07633 44.7825 2.90881C44.4421 2.91388 44.1016 2.91891 43.7612 2.9239C41.9873 2.94986 40.2132 2.96591 38.4391 2.96591C36.3267 2.96591 34.2135 2.93913 32.1032 2.83753C31.8648 2.82608 31.6263 2.81554 31.3878 2.80591L31.3878 2.80596ZM32.7327 3.78684C33.1929 5.40356 33.285 7.21276 33.285 8.85037V50.2493C33.285 51.9512 33.1992 53.8002 32.7406 55.4637H36.5945C39.1207 55.4637 41.5904 55.8932 43.9521 56.7465C43.8238 56.4528 43.7126 56.148 43.6187 55.8334C43.0923 54.071 43.0062 52.081 43.0062 50.2493V8.85042C43.0062 7.23729 43.0745 5.44831 43.4891 3.8483C41.8059 3.87192 40.1225 3.88634 38.439 3.88634C36.5366 3.88634 34.6336 3.86469 32.7327 3.78689V3.78684ZM50.4591 60.9604C50.6871 61.1969 50.9095 61.4397 51.1263 61.6885C51.1395 61.4653 51.1535 61.242 51.1681 61.0188C50.9321 61.0042 50.6954 60.985 50.4591 60.9604ZM4.08164 61.0602C4.09526 61.2696 4.1083 61.4791 4.12076 61.6886C4.30703 61.4748 4.49759 61.2652 4.69243 61.0602H4.08164ZM76.6142 55.7047L78.4305 50.3236L70.3958 31.3268C70.2385 30.9548 70.1067 30.5688 70.011 30.1749C69.3701 30.1844 68.7291 30.188 68.0881 30.188C67.0556 30.188 66.0232 30.175 64.991 30.1519L76.6142 55.7046V55.7047ZM65.1548 66.7568L66.5825 66.297C66.9661 66.1735 67.633 65.9122 67.8767 65.5678C67.9924 65.4043 68.1982 65.0785 68.1982 64.8691C68.1982 64.7609 68.1935 64.3276 68.0873 64.2477C67.5939 63.8768 66.7073 63.8079 66.1127 63.8079C65.3715 63.8079 64.4345 63.9061 63.8291 64.3748C63.5639 64.5802 63.5175 64.7243 63.5175 65.0594C63.5175 65.345 63.5326 65.6887 63.7596 65.8945C64.1745 66.2708 64.6443 66.5509 65.1547 66.7567L65.1548 66.7568ZM106.43 32.5639C104.995 33.3102 103.803 34.3371 102.863 35.708C102.507 36.2275 102.219 36.7897 101.993 37.3764L100.918 40.16C100.927 42.607 101.089 45.0655 101.503 47.4787C101.803 49.2234 102.345 50.9783 103.307 52.479C104.114 53.7366 105.264 54.6074 106.612 55.2311C106.66 55.253 106.707 55.2746 106.755 55.2957C106.498 54.3444 106.308 53.3778 106.156 52.4518C105.648 49.3567 105.535 46.1797 105.535 43.0478C105.535 40.0027 105.627 36.8817 106.165 33.8787C106.243 33.4447 106.33 33.0046 106.43 32.5638L106.43 32.5639ZM120.575 55.0148C120.578 55.0135 120.581 55.0123 120.584 55.011C122.413 54.2086 123.76 52.9516 124.753 51.2304C126.062 48.9586 126.371 45.8782 126.371 43.3016C126.371 40.8021 126.092 37.6595 124.801 35.4637C123.884 33.905 122.673 32.7036 120.987 31.9954C120.894 31.9561 120.8 31.918 120.706 31.881C121.665 35.3364 121.754 39.6532 121.754 43.0478C121.754 45.508 121.669 47.976 121.379 50.4206C121.196 51.9599 120.957 53.5078 120.575 55.0148ZM124.542 16.2942C123.756 16.397 122.966 16.4541 122.196 16.4836C120.743 16.5392 119.288 16.5621 117.834 16.5811C116.068 16.6042 114.303 16.735 112.546 16.9119C111.278 17.0395 110.007 17.2638 108.791 17.6481C107.898 17.9304 107.099 18.3814 106.385 18.9847C106.029 19.2852 105.703 19.6127 105.404 19.9628C107.324 19.4828 109.322 19.2392 111.285 19.0668C112.749 18.9382 114.212 18.8041 115.681 18.7391C116.424 18.7062 117.168 18.6698 117.91 18.6178L117.943 18.6155L117.975 18.6138C119.209 18.548 120.452 18.389 121.646 18.0681C122.461 17.8493 123.212 17.4971 123.876 16.9766C124.109 16.7946 124.332 16.558 124.542 16.2943V16.2942ZM142.337 30.0106C142.528 31.0529 142.588 32.127 142.588 33.1522V64.6788C142.588 65.3436 142.559 66.0263 142.474 66.7018C143.037 66.6949 143.6 66.6915 144.163 66.6915C145.114 66.6915 146.065 66.6964 147.016 66.7071C146.83 65.8331 146.758 64.9302 146.758 64.0445V29.7211C146.363 29.7604 145.967 29.7957 145.571 29.8275C144.495 29.9137 143.416 29.9732 142.337 30.0107V30.0106ZM161.145 55.5088C162.283 55.0596 163.261 54.3658 164.114 53.4781C165.266 52.2776 166.02 50.6592 166.53 49.0944C167.336 46.6248 167.531 43.7925 167.531 41.2083C167.531 38.7541 167.295 35.9718 166.343 33.6867C165.763 32.2915 164.921 30.8841 163.661 29.9999C162.821 29.41 161.923 29.0837 160.947 28.968C161.622 30.3245 162.01 31.8844 162.278 33.3073C162.852 36.3536 162.914 39.5735 162.914 42.6673C162.914 45.7492 162.77 48.8936 162.178 51.9242C161.943 53.1286 161.615 54.3507 161.145 55.5088L161.145 55.5088ZM186.845 55.0891C186.424 53.5469 186.19 51.9381 186.026 50.3594C185.761 47.8056 185.688 45.2333 185.688 42.6672C185.688 40.0988 185.761 37.5242 186.026 34.9681C186.19 33.3796 186.426 31.7624 186.848 30.211C186.802 30.2309 186.757 30.2512 186.712 30.2717C184.897 31.0974 183.614 32.4219 182.681 34.1639C181.369 36.6133 181.071 39.9305 181.071 42.6672C181.071 45.4039 181.369 48.7212 182.681 51.1705C183.607 52.8998 184.879 54.2131 186.688 55.0203C186.741 55.0436 186.793 55.0665 186.845 55.0891H186.845ZM200.746 55.1055C200.807 55.0792 200.868 55.0524 200.928 55.0251C202.728 54.2148 203.992 52.8928 204.915 51.1705C206.227 48.7212 206.524 45.404 206.524 42.6672C206.524 39.9306 206.227 36.6133 204.915 34.1639C203.985 32.4288 202.711 31.0956 200.904 30.2667C200.851 30.2421 200.797 30.218 200.743 30.1942C201.168 31.7508 201.404 33.3739 201.57 34.9681C201.834 37.5242 201.907 40.0988 201.907 42.6672C201.907 45.2333 201.835 47.8056 201.569 50.3594C201.405 51.9437 201.17 53.5583 200.746 55.1055ZM227.175 55.2196C227.116 54.5382 227.103 53.8535 227.103 53.1973V32.1373C227.103 31.4812 227.115 30.7919 227.171 30.1051C226.326 30.1183 225.48 30.1246 224.635 30.1246C224.029 30.1246 223.424 30.1204 222.818 30.1123C222.903 30.7884 222.932 31.4718 222.932 32.1373V53.1973C222.932 53.865 222.903 54.5509 222.817 55.2293C223.635 55.2165 224.454 55.21 225.272 55.21C225.906 55.21 226.541 55.2131 227.175 55.2196ZM241.583 55.1917C242.342 55.0735 243.084 54.9045 243.759 54.663C244.53 54.3868 245.494 53.9272 245.942 53.2111C246.436 52.4217 246.601 51.5156 246.601 50.5964C246.601 49.6943 246.454 48.7321 245.906 47.9873C245.34 47.2201 244.028 46.7285 243.145 46.4724C242.637 46.3252 242.113 46.2065 241.582 46.1102C242.022 47.5753 242.175 49.1409 242.175 50.6599C242.175 52.1063 242.007 53.5486 241.648 54.9509C241.627 55.0315 241.606 55.1117 241.583 55.1916L241.583 55.1917ZM240.925 37.6371C241.74 37.3955 242.523 37.0808 243.189 36.6672C244.311 35.9698 245.454 35.0279 245.454 33.5962C245.454 32.9822 245.314 32.4641 244.941 31.9699C244.469 31.3425 243.319 30.8756 242.597 30.6358C242.009 30.4407 241.381 30.2967 240.74 30.1897C240.748 30.2266 240.756 30.2637 240.763 30.3007C241.045 31.6757 241.156 33.0823 241.156 34.4842C241.156 35.5336 241.092 36.5949 240.925 37.6371V37.6371ZM272.998 56.2694C272.202 56.0421 271.428 55.7303 270.681 55.3457C268.551 54.2488 267.054 52.4004 266.019 50.2846C264.758 47.7087 264.439 44.6137 264.439 41.7792C264.439 39.9747 264.561 38.171 264.786 36.3808C265.022 34.4983 265.444 32.6396 266.086 30.852C266.175 30.6027 266.27 30.3563 266.372 30.1129C266.191 30.1911 266.01 30.2735 265.832 30.3602C263.935 31.2803 262.549 32.6979 261.521 34.5197C260.173 36.9065 259.822 39.9692 259.822 42.6673C259.822 45.4015 260.125 48.7101 261.453 51.1498C262.369 52.833 263.603 54.2228 265.359 55.0565C267.297 55.9771 269.391 56.3518 271.529 56.3518C272.017 56.3518 272.509 56.3273 272.998 56.2694ZM280.085 31.0946L278.989 31.392C278.212 31.6031 277.589 32.019 277.045 32.6053C276.602 33.0818 276.453 33.5881 276.453 34.2305C276.453 34.8173 276.543 35.3996 276.966 35.8378C277.361 36.2472 278.13 36.3066 278.666 36.3066C279.373 36.3066 279.937 36.157 280.436 35.6417C280.956 35.1048 281.134 34.5248 281.134 33.7865C281.134 33.0873 281.009 32.4059 280.634 31.8055C280.472 31.5469 280.29 31.3103 280.085 31.0946ZM301.38 30.1124C300.753 30.1205 300.126 30.1246 299.499 30.1246C298.66 30.1246 297.82 30.1171 296.98 30.1031C297.066 30.7823 297.095 31.4689 297.095 32.1373V43.8706L301.266 41.6758V32.1373C301.266 31.4719 301.295 30.7885 301.38 30.1125L301.38 30.1124ZM297.095 46.5001V53.1973C297.095 53.8633 297.066 54.5474 296.981 55.2242C297.651 55.2147 298.32 55.21 298.99 55.21C299.787 55.21 300.584 55.2165 301.381 55.229C301.295 54.5507 301.266 53.8649 301.266 53.1973V46.0217L297.095 46.5001H297.095ZM314.86 45.0287C314.978 45.2707 315.089 45.5161 315.194 45.7642C315.677 46.9093 316.097 48.0817 316.429 49.2791C316.66 50.1096 316.886 50.9432 317.035 51.7927C317.29 52.8973 317.77 54.2292 318.82 54.8073C319.862 55.381 321.123 55.6579 322.362 55.7736C322.351 55.7468 322.339 55.72 322.328 55.6932L322.313 55.6588L322.299 55.6241C321.516 53.6712 320.79 51.6893 320.227 49.6611C319.952 48.6698 319.52 47.7233 318.843 46.9387C318.081 46.0568 316.725 45.5212 315.628 45.2064C315.38 45.1349 315.122 45.0763 314.86 45.0288L314.86 45.0287ZM322.191 29.1643L320.862 29.8468C320.39 30.0893 319.801 30.4634 319.534 30.937C319.335 31.2884 319.142 31.7288 319.142 32.1373C319.142 32.2538 319.156 32.6112 319.24 32.7051C319.489 32.9836 319.764 33.1717 320.12 33.2897C320.612 33.4532 321.152 33.579 321.674 33.579C322.275 33.579 322.773 33.4613 323.219 33.044C323.636 32.6528 323.695 31.9094 323.695 31.3761C323.695 30.6718 323.55 30.0943 323.036 29.5915C322.835 29.3955 322.511 29.2583 322.191 29.1643ZM366.244 30.1052C365.426 30.118 364.608 30.1246 363.789 30.1246C363.179 30.1246 362.569 30.1204 361.959 30.1118V31.703L361.978 32.2406L361.959 32.2788V53.1973C361.959 53.8604 361.937 54.5486 361.863 55.2317C362.717 55.2171 363.572 55.21 364.427 55.21C365.032 55.21 365.638 55.2141 366.243 55.2222C366.159 54.5462 366.13 53.8627 366.13 53.1973V32.1373C366.13 31.4696 366.159 30.7836 366.244 30.1053V30.1052ZM340.117 30.1119C340.202 30.7881 340.23 31.4717 340.23 32.1373V53.1973C340.23 53.865 340.201 54.5509 340.116 55.2293C340.934 55.2165 341.752 55.21 342.571 55.21C343.181 55.21 343.791 55.2141 344.401 55.2227V32.1373C344.401 31.4729 344.425 30.785 344.501 30.1027C343.645 30.1174 342.789 30.1245 341.934 30.1245C341.328 30.1245 340.722 30.1202 340.117 30.1119V30.1119ZM411.482 30.1052C410.664 30.118 409.846 30.1246 409.027 30.1246C408.417 30.1246 407.807 30.1204 407.196 30.1118V31.703L407.216 32.2406L407.196 32.2788V53.1973C407.196 53.8604 407.174 54.5486 407.101 55.2317C407.955 55.2171 408.81 55.21 409.664 55.21C410.27 55.21 410.876 55.2141 411.481 55.2222C411.396 54.5462 411.367 53.8627 411.367 53.1973V32.1373C411.367 31.4696 411.396 30.7836 411.482 30.1053V30.1052ZM385.354 30.1119C385.439 30.7881 385.468 31.4717 385.468 32.1373V53.1973C385.468 53.865 385.439 54.5509 385.353 55.2293C386.172 55.2165 386.99 55.21 387.809 55.21C388.419 55.21 389.029 55.2141 389.639 55.2227V32.1373C389.639 31.4729 389.663 30.785 389.739 30.1027C388.883 30.1174 388.027 30.1245 387.171 30.1245C386.566 30.1245 385.96 30.1202 385.354 30.1119V30.1119ZM407.685 16.3346C408.176 16.0502 408.589 15.666 408.943 15.2225C409.17 14.9378 409.265 14.6763 409.265 14.3123C409.265 13.7666 409.169 13.311 408.773 12.9166C408.376 12.5221 407.919 12.4265 407.37 12.4265C406.822 12.4265 406.365 12.5221 405.968 12.9166C405.572 13.311 405.476 13.7666 405.476 14.3123C405.476 14.6571 405.523 14.9872 405.746 15.2617C406.077 15.6675 406.516 15.9188 407.005 16.0926L407.686 16.3346H407.685ZM389.226 16.3711L389.831 16.1561C390.371 15.964 390.843 15.6831 391.219 15.2466C391.446 14.9832 391.487 14.6489 391.487 14.3124C391.487 13.7676 391.388 13.3313 390.989 12.9425C390.583 12.5459 390.155 12.4266 389.593 12.4266C389.095 12.4266 388.543 12.4858 388.18 12.8626C387.789 13.2688 387.698 13.7643 387.698 14.3124C387.698 14.6869 387.79 14.966 388.02 15.2627C388.358 15.6987 388.754 16.0841 389.226 16.3711V16.3711ZM3.09119 60.1399C3.18468 61.411 3.25744 62.6836 3.30729 63.9572C3.31114 64.0548 3.31494 64.1524 3.31875 64.2499C3.45714 64.0416 3.60025 63.8363 3.74807 63.6342C4.70465 62.3268 5.79976 61.1417 7.04761 60.1398H3.09119V60.1399ZM76.7301 58.1907L77.3614 56.3803L79.4181 50.287L71.2479 30.9697C71.0163 30.4221 70.8435 29.835 70.7857 29.24C69.8867 29.2605 68.9874 29.2676 68.0881 29.2676C66.5669 29.2676 65.0457 29.2393 63.5252 29.1917C63.648 29.4391 63.7656 29.6892 63.8797 29.9399L76.7301 58.1908V58.1907ZM65.1333 67.731L66.8671 67.1726C67.4808 66.9749 68.2492 66.6394 68.6325 66.0979C68.8786 65.75 69.1228 65.3058 69.1228 64.8691C69.1228 64.3785 69.0673 63.8311 68.6444 63.5132C67.9629 63.0009 66.9406 62.8875 66.1128 62.8875C65.1429 62.8875 64.0489 63.0386 63.2616 63.6483C62.7656 64.0323 62.5931 64.4381 62.5931 65.0594C62.5931 65.6361 62.6927 66.1718 63.1371 66.5749C63.7205 67.1041 64.3948 67.4778 65.1333 67.7311V67.731ZM107.83 30.969C107.553 31.0661 107.279 31.1704 107.007 31.2822C104.983 32.1147 103.338 33.3838 102.1 35.1891C101.703 35.7675 101.382 36.3929 101.13 37.0464L100.251 39.3227L99.9968 39.2552C99.9946 39.4833 99.9934 39.7114 99.9934 39.9396C99.9934 42.5116 100.156 45.0965 100.592 47.6338C100.913 49.5024 101.497 51.3675 102.528 52.9743C103.431 54.3816 104.713 55.3673 106.222 56.0657C106.849 56.3557 107.516 56.5763 108.196 56.7445C107.64 55.3167 107.306 53.7445 107.069 52.3032C106.568 49.2587 106.459 46.1286 106.459 43.0478C106.459 40.0592 106.548 36.9874 107.075 34.0401C107.256 33.0315 107.49 31.9759 107.83 30.969L107.83 30.969ZM119.166 56.5028C119.775 56.3238 120.374 56.1088 120.957 55.8532C122.966 54.9716 124.464 53.5801 125.555 51.6885C126.953 49.2621 127.296 46.0555 127.296 43.3016C127.296 40.6179 126.984 37.3543 125.598 34.9987C124.58 33.2674 123.218 31.9336 121.347 31.1475C120.662 30.8598 119.957 30.6276 119.239 30.4455C119.285 30.5575 119.33 30.67 119.374 30.7829C120.725 34.2793 120.83 39.304 120.83 43.0479C120.83 45.4716 120.747 47.9041 120.46 50.3126C120.248 52.1044 119.958 53.9129 119.444 55.646C119.359 55.933 119.267 56.2193 119.166 56.5029V56.5028ZM126.441 14.9931C125.048 15.3626 123.561 15.5103 122.16 15.564C120.715 15.6193 119.268 15.6419 117.822 15.6608C116.029 15.6843 114.237 15.8167 112.453 15.9962C111.121 16.1302 109.788 16.3672 108.511 16.7709C107.501 17.0901 106.594 17.6008 105.786 18.2832C104.852 19.0732 104.099 20.0314 103.5 21.0941C103.392 21.2873 103.287 21.4825 103.185 21.6795C103.722 21.4346 104.28 21.231 104.853 21.0648C106.956 20.4543 109.189 20.1748 111.366 19.9836C112.816 19.8562 114.267 19.7229 115.722 19.6585C116.473 19.6253 117.225 19.5884 117.975 19.5358L118 19.5341L118.025 19.5328C119.324 19.4636 120.629 19.2946 121.887 18.9566C122.822 18.7055 123.686 18.2972 124.448 17.6997C125.276 17.051 125.963 15.9193 126.441 14.9931H126.441ZM141.178 29.1219C141.563 30.4201 141.663 31.8443 141.663 33.1522V64.6788C141.663 65.6443 141.601 66.672 141.368 67.6402C142.299 67.6212 143.231 67.6118 144.163 67.6118C145.523 67.6118 146.883 67.6218 148.243 67.6445C147.821 66.5026 147.683 65.246 147.683 64.0444V28.695C146.956 28.7807 146.227 28.8515 145.497 28.91C144.06 29.0251 142.619 29.0921 141.178 29.1219ZM159.376 56.9734C159.964 56.8537 160.545 56.6969 161.115 56.5008C162.536 56.0124 163.746 55.1929 164.782 54.114C166.036 52.8084 166.855 51.0812 167.41 49.3785C168.247 46.8111 168.456 43.8953 168.456 41.2083C168.456 38.6237 168.199 35.7402 167.198 33.3343C166.546 31.7704 165.605 30.2382 164.194 29.2477C162.958 28.3801 161.599 27.9989 160.093 27.9989C159.814 27.9989 159.535 28.0066 159.256 28.0229C159.264 28.032 159.271 28.041 159.278 28.0501C160.466 29.5079 161.027 31.6593 161.369 33.4769C161.932 36.4632 161.99 39.6342 161.99 42.6672C161.99 45.6884 161.851 48.7776 161.27 51.7486C160.921 53.5388 160.355 55.3972 159.376 56.9734H159.376ZM188.309 56.5792C188.209 56.3232 188.116 56.065 188.029 55.806C187.43 54.0325 187.138 52.1216 186.945 50.2648C186.684 47.7428 186.612 45.2015 186.612 42.6673C186.612 40.1306 186.684 37.5871 186.945 35.0625C187.138 33.1993 187.43 31.2844 188.027 29.5033C188.116 29.2362 188.212 28.9699 188.314 28.7059C187.636 28.901 186.971 29.1418 186.328 29.4346C184.327 30.3447 182.894 31.81 181.865 33.7309C180.473 36.329 180.146 39.7627 180.146 42.6673C180.146 45.5718 180.473 49.0055 181.865 51.6037C182.888 53.5139 184.313 54.9689 186.31 55.8602C186.958 56.1495 187.627 56.3871 188.309 56.5792H188.309ZM199.281 56.5928C199.973 56.3998 200.652 56.1593 201.309 55.8638C203.296 54.9692 204.711 53.5061 205.73 51.6037C207.122 49.0055 207.449 45.5718 207.449 42.6673C207.449 39.7627 207.122 36.329 205.73 33.7309C204.705 31.8177 203.282 30.3445 201.291 29.4309C200.639 29.1318 199.965 28.8881 199.276 28.6921C199.38 28.9606 199.478 29.2316 199.569 29.5033C200.165 31.2844 200.457 33.1993 200.65 35.0625C200.911 37.5871 200.983 40.1307 200.983 42.6673C200.983 45.2016 200.912 47.7428 200.65 50.2649C200.457 52.1217 200.165 54.0325 199.566 55.8061C199.477 56.0696 199.383 56.3323 199.281 56.5928V56.5928ZM228.224 56.1538C228.054 55.1767 228.027 54.1424 228.027 53.1973V32.1373C228.027 31.1935 228.051 30.1484 228.214 29.1645C227.021 29.1917 225.828 29.2042 224.635 29.2042C223.66 29.2042 222.686 29.1934 221.711 29.1726C221.945 30.1418 222.007 31.1708 222.007 32.1373V53.1973C222.007 54.1666 221.944 55.1991 221.709 56.1711C222.897 56.1441 224.084 56.1303 225.272 56.1303C226.256 56.1303 227.24 56.138 228.224 56.1538ZM240.197 56.2786C241.525 56.1698 242.884 55.9541 244.071 55.5291C245.062 55.1745 246.154 54.6133 246.727 53.6978C247.314 52.7585 247.525 51.6919 247.525 50.5965C247.525 49.4875 247.323 48.3554 246.651 47.4431C245.942 46.4809 244.518 45.912 243.403 45.5888C242.361 45.2866 241.259 45.0984 240.158 44.9769C240.999 46.7197 241.251 48.7472 241.251 50.66C241.251 52.0296 241.092 53.3957 240.752 54.7237C240.614 55.2612 240.43 55.7817 240.197 56.2786L240.197 56.2786ZM239.716 38.8822C241.11 38.5992 242.535 38.1581 243.678 37.448C245.099 36.5654 246.378 35.3867 246.378 33.5962C246.378 32.7823 246.174 32.0723 245.681 31.4177C245.072 30.6091 243.827 30.0739 242.889 29.7627C241.814 29.4059 240.626 29.2087 239.452 29.0968C239.626 29.5452 239.76 30.0101 239.857 30.4847C240.127 31.7989 240.231 33.1444 240.231 34.4842C240.231 35.9544 240.102 37.4569 239.716 38.8822V38.8822ZM277.118 55.7275C276.764 55.7629 276.409 55.783 276.054 55.783C274.311 55.783 272.648 55.3222 271.106 54.5283C269.157 53.5247 267.796 51.8155 266.85 49.8816C265.656 47.4418 265.364 44.4634 265.364 41.7792C265.364 40.0129 265.483 38.2474 265.703 36.495C265.931 34.6791 266.338 32.8859 266.956 31.1616C267.291 30.2291 267.715 29.336 268.244 28.5103C267.276 28.7551 266.335 29.0927 265.427 29.5328C263.36 30.5353 261.836 32.0833 260.715 34.0688C259.283 36.6048 258.898 39.799 258.898 42.6673C258.898 45.5714 259.231 48.9983 260.64 51.5882C261.65 53.4451 263.026 54.9682 264.961 55.8872C267.025 56.8674 269.252 57.2721 271.529 57.2721C273.291 57.2721 275.089 56.9704 276.615 56.0485C276.786 55.9452 276.953 55.8382 277.118 55.7275H277.118ZM280.342 30.0708L278.746 30.5041C277.8 30.7609 277.028 31.2671 276.366 31.9806C275.763 32.6292 275.529 33.3549 275.529 34.2306C275.529 35.069 275.7 35.8544 276.299 36.4752C276.899 37.0974 277.84 37.2271 278.666 37.2271C279.628 37.2271 280.424 36.9802 281.101 36.2806C281.79 35.5701 282.058 34.7648 282.058 33.7865C282.058 32.9114 281.888 32.069 281.419 31.3191C281.121 30.8439 280.764 30.4284 280.342 30.0708ZM302.486 29.1733C301.491 29.1941 300.495 29.2042 299.499 29.2042C298.29 29.2042 297.081 29.1887 295.872 29.1603C296.108 30.1333 296.171 31.167 296.171 32.1373V45.3981L302.191 42.2302V32.1373C302.191 31.171 302.253 30.1423 302.486 29.1733ZM296.171 45.6797V53.1973C296.171 54.1645 296.108 55.1945 295.874 56.1644C296.912 56.142 297.951 56.1304 298.989 56.1304C300.156 56.1304 301.322 56.1443 302.489 56.171C302.253 55.199 302.191 54.1666 302.191 53.1974V44.9893L296.171 45.6798V45.6797ZM313.169 43.9403C313.634 44.6234 314.02 45.3593 314.341 46.1206C314.809 47.2296 315.216 48.365 315.538 49.5245C315.763 50.3332 315.984 51.1468 316.128 51.9743C316.447 53.3684 317.051 54.8854 318.372 55.6128C319.985 56.5002 322.011 56.753 323.837 56.7643C323.599 56.2942 323.383 55.812 323.179 55.3336L323.168 55.3083L323.158 55.2828C322.387 53.3616 321.672 51.4112 321.118 49.416C320.806 48.2917 320.312 47.2281 319.544 46.3388C318.65 45.3038 317.174 44.6926 315.884 44.3222C315.029 44.0766 314.098 43.968 313.169 43.9404L313.169 43.9403ZM322.079 28.1861L320.438 29.0289C319.787 29.3635 319.095 29.8366 318.728 30.4858C318.446 30.9847 318.218 31.5578 318.218 32.1373C318.218 32.5365 318.27 33.0047 318.549 33.3166C318.905 33.7156 319.318 33.9939 319.827 34.1629C320.417 34.3587 321.049 34.4995 321.674 34.4995C322.515 34.4995 323.231 34.2964 323.852 33.7144C324.486 33.1204 324.62 32.2015 324.62 31.3761C324.62 30.4205 324.38 29.6153 323.683 28.9348C323.274 28.5345 322.654 28.3123 322.079 28.1862V28.1861ZM367.352 29.1635C366.165 29.1904 364.977 29.2042 363.789 29.2042C362.871 29.2042 361.952 29.1946 361.034 29.1748V31.7196L361.046 32.0364L361.034 32.0588V53.1973C361.034 54.1559 360.988 55.1956 360.783 56.1751C361.997 56.1448 363.212 56.1304 364.426 56.1304C365.401 56.1304 366.376 56.1411 367.35 56.162C367.117 55.1927 367.054 54.1638 367.054 53.1973V32.1373C367.054 31.168 367.117 30.1355 367.352 29.1635ZM339.01 29.1718C339.243 30.1413 339.306 31.1706 339.306 32.1373V53.1973C339.306 54.1666 339.243 55.1991 339.008 56.1711C340.195 56.1442 341.383 56.1304 342.571 56.1304C343.489 56.1304 344.408 56.14 345.326 56.1598V32.1373C345.326 31.176 345.376 30.1375 345.587 29.1593C344.37 29.1897 343.152 29.2042 341.933 29.2042C340.959 29.2042 339.984 29.193 339.01 29.1718V29.1718ZM412.59 29.1635C411.403 29.1904 410.215 29.2042 409.027 29.2042C408.109 29.2042 407.19 29.1946 406.272 29.1748V31.7196L406.283 32.0364L406.272 32.0588V53.1973C406.272 54.1559 406.225 55.1956 406.02 56.1751C407.235 56.1448 408.45 56.1304 409.664 56.1304C410.639 56.1304 411.613 56.1411 412.588 56.162C412.354 55.1927 412.292 54.1638 412.292 53.1973V32.1373C412.292 31.168 412.355 30.1355 412.59 29.1635ZM384.247 29.1718C384.481 30.1413 384.544 31.1706 384.544 32.1373V53.1973C384.544 54.1666 384.481 55.1991 384.245 56.1711C385.433 56.1442 386.621 56.1304 387.808 56.1304C388.727 56.1304 389.645 56.14 390.564 56.1598V32.1373C390.564 31.176 390.613 30.1375 390.825 29.1593C389.607 29.1897 388.389 29.2042 387.171 29.2042C386.197 29.2042 385.222 29.193 384.247 29.1718V29.1718ZM407.764 17.3399C407.81 17.3156 407.856 17.291 407.902 17.2658L407.93 17.2505L407.958 17.2359C408.633 16.8853 409.194 16.3866 409.666 15.7955C410.024 15.3479 410.189 14.8847 410.189 14.3124C410.189 13.5161 410.002 12.8394 409.426 12.2659C408.85 11.6924 408.17 11.5062 407.37 11.5062C406.57 11.5062 405.891 11.6924 405.315 12.2659C404.739 12.8393 404.551 13.5161 404.551 14.3124C404.551 14.8779 404.664 15.394 405.028 15.8408C405.467 16.3809 406.042 16.7276 406.694 16.9594L407.764 17.3399H407.764ZM389.145 17.3773L390.142 17.0229C390.835 16.7764 391.439 16.4051 391.92 15.8456C392.3 15.4045 392.411 14.8819 392.411 14.3124C392.411 13.515 392.218 12.8527 391.636 12.2852C391.054 11.7172 390.399 11.5062 389.593 11.5062C388.819 11.5062 388.068 11.6495 387.513 12.2255C386.948 12.8112 386.774 13.5177 386.774 14.3124C386.774 14.8907 386.933 15.3674 387.288 15.8255C387.74 16.4074 388.278 16.9077 388.929 17.263C389 17.3021 389.072 17.3402 389.145 17.3773V17.3773Z" fill="#503C2F"/>
<path fill-rule="evenodd" clip-rule="evenodd" d="M389.14 17.3635L390.137 17.009C390.831 16.7625 391.434 16.3912 391.916 15.8318C391.962 15.7781 392.005 15.7231 392.043 15.6671H387.179C387.212 15.7155 387.247 15.7637 387.284 15.8117C387.736 16.3937 388.274 16.894 388.924 17.2492C388.996 17.2883 389.068 17.3264 389.14 17.3635L389.14 17.3635ZM392.401 14.0645C392.365 13.3703 392.155 12.7823 391.632 12.2713C391.334 11.981 391.018 11.784 390.672 11.6607H388.39C388.065 11.7706 387.766 11.9446 387.509 12.2117C387 12.7393 386.808 13.3648 386.775 14.0645H392.401V14.0645ZM31.7229 3.64807C31.9744 4.40367 32.1291 5.22292 32.2226 6.05181H44.0409C44.1238 5.22235 44.264 4.40242 44.4981 3.64807H31.7229ZM32.3366 7.6544C32.3509 8.05675 32.356 8.45301 32.356 8.83663V10.0582H43.9263V8.83663C43.9263 8.45349 43.9301 8.05713 43.942 7.6544H32.3366ZM32.356 11.6607V14.0645H43.9263V11.6607H32.356ZM32.356 15.6671V18.0708H43.9263V15.6671H32.356ZM32.356 19.6734V22.0771H43.9263V19.6734H32.356ZM32.356 23.6797V26.0835H43.9263V23.6797H32.356ZM32.356 27.686V30.0898H43.9263V27.686H32.356ZM32.356 31.6924V34.0961H43.9263V31.6924H32.356ZM32.356 35.6987V38.1024H43.9263V35.6987H32.356ZM32.356 39.705V42.1088H43.9263V39.705H32.356ZM32.356 43.7114V46.1151H43.9263V43.7114H32.356ZM32.356 47.7177V50.1214H43.9263V47.7177H32.356ZM32.3277 51.724C32.2936 52.5255 32.2228 53.3404 32.0847 54.1278H44.1771C44.0475 53.3395 43.9825 52.5255 43.9516 51.724H32.3276H32.3277ZM31.6836 55.7303C31.6084 55.9488 31.5224 56.1625 31.4253 56.3705H36.5901C39.3406 56.3705 42.0191 56.9017 44.5573 57.9573C44.6944 58.0143 44.8302 58.0733 44.9647 58.1341H45.9653C45.3233 57.4706 44.8541 56.6511 44.5543 55.7303H31.6836ZM47.689 59.7367C48.6408 60.4398 49.5101 61.2486 50.3022 62.1404H52.0209C52.0584 61.4674 52.1021 60.7947 52.1516 60.1225C51.0698 60.1041 49.9222 60.0125 48.8595 59.7367H47.689H47.689ZM51.5831 63.743C51.6997 63.9054 51.8132 64.07 51.9238 64.2364C51.9276 64.1388 51.9314 64.0412 51.9352 63.9437L51.9432 63.743H51.5831V63.743ZM3.08672 60.1263C3.13604 60.7973 3.17964 61.4687 3.21712 62.1405H4.93568C5.58395 61.4106 6.28535 60.7347 7.0431 60.1263H3.08667H3.08672ZM3.29484 63.743L3.30287 63.9436C3.30672 64.0412 3.31052 64.1388 3.31433 64.2364C3.42491 64.0699 3.53842 63.9054 3.65502 63.743H3.29484V63.743ZM76.7407 58.1341L77.357 56.3667L77.5718 55.7303H75.6127L76.7061 58.1341H76.7407V58.1341ZM78.1127 54.1278L78.924 51.7241H73.7903L74.8837 54.1278H78.1126H78.1127ZM79.3494 50.1215L78.3327 47.7177H71.968L73.0614 50.1215H79.3494ZM77.6549 46.1151L76.6382 43.7114H70.1456L71.239 46.1151H77.6549ZM75.9604 42.1088L74.9437 39.7051H68.3232L69.4167 42.1088H75.9604ZM74.2659 38.1025L73.2492 35.6987H66.5008L67.5942 38.1025H74.2659H74.2659ZM72.5714 34.0962L71.5547 31.6924H64.6784L65.7719 34.0962H72.5714H72.5714ZM70.9419 30.0898C70.8652 29.8063 70.8094 29.5173 70.7812 29.2263C69.8821 29.2469 68.9828 29.254 68.0836 29.254C66.5623 29.254 65.0411 29.2256 63.5206 29.178C63.6435 29.4255 63.761 29.6755 63.8751 29.9263L63.9495 30.0899H70.9419V30.0898ZM68.5813 66.1466C68.5974 66.1261 68.613 66.1054 68.6279 66.0842C68.8741 65.7363 69.1182 65.2922 69.1182 64.8554C69.1182 64.474 69.0847 64.0584 68.8711 63.7429H63.1265C62.7303 64.0963 62.5885 64.4824 62.5885 65.0457C62.5885 65.4419 62.6356 65.8188 62.8091 66.1466H68.5813ZM106.079 31.6924C104.878 32.3054 103.829 33.0983 102.94 34.0961H107.058L107.071 34.0265C107.208 33.2616 107.376 32.4696 107.597 31.6924H106.079ZM101.764 35.6987C101.515 36.125 101.303 36.5719 101.125 37.0327L100.712 38.1025H106.591C106.644 37.2978 106.718 36.4952 106.818 35.6987H101.764V35.6987ZM99.9893 39.705L99.9889 39.926C99.9889 40.653 100.002 41.3811 100.03 42.1088H106.458C106.464 41.3106 106.479 40.508 106.508 39.705H99.9892H99.9893ZM100.119 43.7114C100.177 44.5149 100.257 45.3168 100.361 46.1151H106.501C106.475 45.3127 106.461 44.5107 106.457 43.7114H100.119ZM100.604 47.7177C100.747 48.5273 100.94 49.3355 101.199 50.1214H106.772C106.686 49.323 106.622 48.5209 106.574 47.7177H100.604ZM101.838 51.724C102.041 52.1495 102.268 52.563 102.524 52.9608C102.797 53.3872 103.106 53.775 103.445 54.1278H107.417C107.277 53.5057 107.162 52.8864 107.064 52.2897C107.033 52.1015 107.004 51.9129 106.976 51.7241H101.838L101.838 51.724ZM105.577 55.7303C105.786 55.8439 105.999 55.9511 106.218 56.0522C106.845 56.3422 107.512 56.5627 108.191 56.7309C108.064 56.4039 107.948 56.0692 107.843 55.7303H105.577ZM119.161 56.4892C119.771 56.3102 120.37 56.0952 120.952 55.8396C121.033 55.804 121.113 55.7676 121.193 55.7303H119.41C119.333 55.9845 119.251 56.2379 119.161 56.4892ZM123.605 54.1278C124.349 53.4471 124.984 52.6454 125.521 51.7241H120.268C120.149 52.5296 120.007 53.3336 119.829 54.1278H123.605ZM126.273 50.1215C126.559 49.3539 126.77 48.5431 126.924 47.7177H120.69C120.638 48.5208 120.568 49.3224 120.477 50.1215H126.273ZM127.154 46.1151C127.239 45.3014 127.278 44.4912 127.288 43.7114H120.823C120.817 44.5124 120.802 45.3141 120.771 46.1151H127.154ZM127.27 42.1088C127.241 41.3253 127.179 40.5134 127.069 39.7051H120.777C120.806 40.5326 120.818 41.3409 120.823 42.1088H127.27ZM126.778 38.1025C126.583 37.26 126.32 36.4459 125.969 35.6987H120.487C120.583 36.4934 120.652 37.3006 120.701 38.1025H126.778ZM125.014 34.0962C124.31 33.1234 123.465 32.3105 122.442 31.6924H119.687C119.919 32.4487 120.105 33.2576 120.252 34.0962H125.014ZM116.939 15.6672C115.439 15.7152 113.941 15.8324 112.449 15.9826C111.117 16.1166 109.784 16.3536 108.507 16.7573C107.597 17.0447 106.771 17.4874 106.026 18.0709H123.898C124.085 17.9525 124.267 17.8244 124.444 17.6861C125.074 17.192 125.623 16.4175 126.06 15.6672H116.939H116.939ZM104.433 19.6735C104.085 20.1157 103.774 20.5868 103.496 21.0805C103.387 21.2737 103.282 21.4689 103.181 21.6659C103.718 21.421 104.276 21.2174 104.848 21.0512C106.951 20.4407 109.184 20.1612 111.361 19.97C112.622 19.8593 113.884 19.744 115.148 19.6735H104.433V19.6735ZM141.174 29.1083C141.269 29.429 141.346 29.7574 141.409 30.0899H147.678V28.6814C146.951 28.7671 146.222 28.838 145.492 28.8964C144.055 29.0115 142.615 29.0785 141.174 29.1084V29.1083ZM141.611 31.6924C141.645 32.182 141.658 32.6678 141.658 33.1386V34.0962H147.678V31.6925H141.611V31.6924ZM141.658 35.6987V38.1025H147.678V35.6987H141.658ZM141.658 39.7051V42.1088H147.678V39.7051H141.658ZM141.658 43.7114V46.1151H147.678V43.7114H141.658ZM141.658 47.7177V50.1215H147.678V47.7177H141.658ZM141.658 51.7241V54.1278H147.678V51.7241H141.658ZM141.658 55.7304V58.1341H147.678V55.7304H141.658ZM141.658 59.7367V62.1405H147.678V59.7367H141.658ZM141.658 63.743V64.6653C141.658 65.1486 141.643 65.6475 141.598 66.1468H147.847C147.725 65.4451 147.678 64.7288 147.678 64.031V63.743H141.658ZM159.372 56.9599C159.96 56.8402 160.54 56.6834 161.111 56.4873C161.69 56.2884 162.234 56.0344 162.745 55.7304H160.031C159.835 56.1542 159.616 56.5658 159.372 56.9599ZM164.751 54.1278L164.778 54.1005C165.445 53.4054 165.989 52.5908 166.436 51.7241H161.268L161.266 51.7351C161.111 52.5294 160.913 53.3372 160.656 54.1278H164.751ZM167.141 50.1215C167.235 49.8698 167.323 49.6171 167.405 49.365C167.58 48.8293 167.727 48.2785 167.851 47.7177H161.805C161.739 48.5226 161.652 49.325 161.538 50.1215H167.141V50.1215ZM168.14 46.1152C168.255 45.3189 168.332 44.513 168.38 43.7115H161.979C161.969 44.5106 161.948 45.313 161.908 46.1152H168.14H168.14ZM168.442 42.1089C168.448 41.8018 168.451 41.4968 168.451 41.1947C168.451 40.7071 168.442 40.2088 168.42 39.7051H161.952C161.974 40.5106 161.982 41.3138 161.984 42.1089H168.442ZM168.307 38.1025C168.226 37.2941 168.104 36.486 167.93 35.6988H161.695C161.784 36.4948 161.846 37.298 161.889 38.1025H168.307ZM167.485 34.0962C167.396 33.833 167.298 33.5742 167.193 33.3207C166.962 32.7663 166.695 32.216 166.383 31.6924H160.967C161.129 32.2944 161.258 32.8952 161.365 33.4633C161.404 33.6734 161.441 33.8844 161.476 34.0962H167.485ZM165.181 30.0899C164.879 29.775 164.549 29.4869 164.189 29.2341C162.953 28.3665 161.595 27.9853 160.089 27.9853C159.81 27.9853 159.53 27.993 159.252 28.0093C159.259 28.0184 159.266 28.0274 159.274 28.0365C159.757 28.6293 160.136 29.3367 160.439 30.0899H165.181ZM188.305 56.5656C188.205 56.3096 188.112 56.0514 188.024 55.7924L188.004 55.7303H186.055C186.138 55.7701 186.221 55.8089 186.306 55.8466C186.954 56.1359 187.623 56.3735 188.305 56.5656ZM187.554 54.1278C187.369 53.3359 187.229 52.5297 187.117 51.724H181.933C182.437 52.6361 183.035 53.4414 183.746 54.1278H187.554H187.554ZM186.928 50.1214C186.847 49.3218 186.785 48.5202 186.738 47.7177H180.565C180.722 48.544 180.933 49.3541 181.211 50.1214H186.928H186.928ZM186.663 46.1151C186.635 45.3141 186.619 44.5126 186.612 43.7114H180.157C180.18 44.4958 180.231 45.3051 180.324 46.1151H186.663ZM186.609 42.1088C186.612 41.3078 186.624 40.5062 186.647 39.705H180.27C180.194 40.5204 180.157 41.3299 180.146 42.1088H186.609ZM186.71 38.1024C186.75 37.3 186.805 36.4986 186.878 35.6987H181.037C180.791 36.4725 180.608 37.2823 180.474 38.1024H186.71ZM187.049 34.0961C187.148 33.2937 187.272 32.4876 187.437 31.6924H183.251C182.72 32.2948 182.26 32.9717 181.86 33.7172C181.794 33.8416 181.73 33.968 181.668 34.0961H187.049ZM187.834 30.0898C187.893 29.8882 187.956 29.6881 188.022 29.4896C188.112 29.2225 188.207 28.9562 188.309 28.6922C187.631 28.8873 186.967 29.1281 186.323 29.4209C185.89 29.6181 185.483 29.8414 185.101 30.0898H187.834ZM199.276 56.579C199.969 56.386 200.648 56.1456 201.304 55.8501C201.391 55.8112 201.476 55.7712 201.56 55.7302H199.583L199.562 55.7923C199.473 56.0558 199.378 56.3186 199.276 56.579H199.276ZM203.847 54.1277C204.556 53.4395 205.151 52.6334 205.653 51.7239H200.469C200.357 52.5296 200.217 53.3359 200.032 54.1277H203.847H203.847ZM206.375 50.1213C206.653 49.354 206.864 48.5438 207.021 47.7176H200.848C200.801 48.5202 200.739 49.3217 200.658 50.1213H206.375H206.375ZM207.263 46.115C207.355 45.3049 207.406 44.4957 207.429 43.7113H200.974C200.967 44.5125 200.951 45.314 200.923 46.115H207.263ZM207.44 42.1087C207.429 41.3298 207.392 40.5203 207.316 39.7049H200.939C200.962 40.5061 200.974 41.3077 200.977 42.1087H207.44ZM207.112 38.1023C206.978 37.2822 206.795 36.4724 206.549 35.6986H200.708C200.781 36.4985 200.836 37.3 200.876 38.1023H207.112ZM205.918 34.096C205.857 33.9679 205.792 33.8415 205.726 33.7171C205.327 32.9733 204.869 32.296 204.34 31.6923H200.149C200.314 32.4876 200.438 33.2937 200.537 34.096H205.918ZM202.504 30.0897C202.124 29.8399 201.719 29.6153 201.286 29.4171C200.635 29.118 199.96 28.8743 199.271 28.6783C199.376 28.9468 199.473 29.2178 199.564 29.4895C199.63 29.6881 199.693 29.8882 199.752 30.0897H202.504L202.504 30.0897ZM228.22 56.14C228.196 56.0044 228.175 55.8676 228.157 55.7302H221.796C221.769 55.8736 221.739 56.0161 221.704 56.1574C222.892 56.1304 224.08 56.1166 225.267 56.1166C226.251 56.1166 227.236 56.1243 228.22 56.14V56.14ZM228.035 54.1276C228.025 53.8068 228.022 53.4904 228.022 53.1835V51.7239H222.003V53.1835C222.003 53.4931 221.996 53.8091 221.98 54.1276H228.035ZM228.022 50.1213V47.7175H222.003V50.1213H228.022ZM228.022 46.115V43.7112H222.003V46.115H228.022ZM228.022 42.1086V39.7049H222.003V42.1086H228.022ZM228.022 38.1023V35.6986H222.003V38.1023H228.022ZM228.022 34.096V32.1234C228.022 31.9818 228.023 31.8379 228.024 31.6922H221.998C222.001 31.837 222.003 31.9808 222.003 32.1234V34.096H228.022ZM228.094 30.0896C228.121 29.7739 228.159 29.4594 228.21 29.1507C227.017 29.1778 225.824 29.1903 224.63 29.1903C223.656 29.1903 222.681 29.1796 221.707 29.1588C221.78 29.4644 221.837 29.776 221.88 30.0896H228.094H228.094ZM240.192 56.2647C241.274 56.176 242.378 56.0163 243.392 55.7301H240.421C240.351 55.911 240.275 56.0893 240.192 56.2647H240.192ZM246.382 54.1275C246.508 53.9897 246.623 53.8421 246.722 53.6839C247.103 53.0751 247.326 52.4128 247.435 51.7238H241.213C241.162 52.5318 241.054 53.3355 240.884 54.1275H246.382ZM247.508 50.1212C247.462 49.2785 247.278 48.4419 246.839 47.7174H241.011C241.151 48.5133 241.219 49.3239 241.239 50.1212H247.508ZM244.873 46.1149C244.377 45.8855 243.861 45.7091 243.398 45.5749C242.356 45.2727 241.255 45.0844 240.153 44.9629C240.333 45.3352 240.485 45.7205 240.615 46.1149H244.873ZM242.342 38.1022C242.813 37.911 243.261 37.69 243.673 37.4341C244.44 36.9582 245.165 36.3961 245.67 35.6985H240.194C240.149 36.5051 240.056 37.3122 239.893 38.1022H242.342L242.342 38.1022ZM246.337 34.0959C246.361 33.9305 246.374 33.7594 246.374 33.5823C246.374 32.8864 246.224 32.2665 245.873 31.6922H240.056C240.16 32.4889 240.212 33.2929 240.224 34.0959H246.337H246.337ZM243.783 30.0896C243.473 29.9551 243.165 29.8419 242.884 29.7488C241.809 29.3921 240.621 29.1948 239.447 29.0829C239.575 29.4105 239.68 29.747 239.766 30.0896H243.783ZM276.935 55.7301C276.64 55.7552 276.344 55.7691 276.049 55.7691C275.754 55.7691 275.461 55.7558 275.171 55.7301H264.668C264.763 55.7792 264.859 55.8271 264.956 55.8733C267.02 56.8536 269.247 57.2582 271.525 57.2582C273.286 57.2582 275.085 56.9565 276.61 56.0346C276.772 55.9364 276.932 55.835 277.089 55.7301H276.935ZM270.431 54.1275C269.444 53.4929 268.625 52.6657 267.947 51.7238H260.718C261.217 52.6155 261.804 53.4271 262.5 54.1275H270.431H270.431ZM266.972 50.1212C266.929 50.0371 266.887 49.9527 266.845 49.8676C266.512 49.1868 266.249 48.464 266.043 47.7174H259.324C259.484 48.5441 259.698 49.3542 259.982 50.1211H266.972V50.1212ZM265.689 46.1149C265.552 45.3188 265.466 44.5109 265.416 43.7111H258.909C258.932 44.4959 258.984 45.3051 259.078 46.1149H265.689ZM265.361 42.1085C265.36 41.9937 265.359 41.8792 265.359 41.7653C265.359 41.0781 265.377 40.391 265.412 39.7048H259.047C258.957 40.5124 258.912 41.3202 258.898 42.1085H265.361H265.361ZM265.525 38.1022C265.573 37.5608 265.631 37.0203 265.699 36.481C265.731 36.2197 265.768 35.9588 265.808 35.6985H259.953C259.665 36.4713 259.449 37.2797 259.289 38.1022H265.525ZM266.107 34.0959C266.285 33.2843 266.503 32.4816 266.764 31.6921H262.441C261.777 32.3884 261.204 33.1791 260.71 34.0549L260.687 34.0959H266.107ZM267.379 30.0895C267.628 29.5373 267.914 29.0041 268.239 28.4963C267.272 28.7411 266.33 29.0787 265.422 29.5188C265.063 29.6928 264.721 29.8833 264.394 30.0895H267.379ZM280.337 30.0568L280.217 30.0895H280.375L280.337 30.0568ZM276.632 31.6921C276.54 31.7798 276.449 31.8713 276.361 31.9666C275.786 32.5852 275.546 33.2739 275.525 34.0958H282.043C282.05 33.9901 282.054 33.8825 282.054 33.7725C282.054 33.0449 281.936 32.34 281.626 31.692H276.632V31.6921ZM275.787 35.6984C275.905 35.9719 276.069 36.2282 276.294 36.4612C276.894 37.0835 277.835 37.2131 278.661 37.2131C279.623 37.2131 280.419 36.9662 281.096 36.2667C281.274 36.0839 281.423 35.895 281.547 35.6984H275.787ZM302.482 29.1593C301.486 29.1801 300.49 29.1902 299.495 29.1902C298.285 29.1902 297.076 29.1747 295.867 29.1464C295.942 29.4559 296 29.7716 296.043 30.0895H302.309C302.352 29.7761 302.408 29.4647 302.482 29.1593H302.482ZM296.162 31.6921C296.165 31.8369 296.166 31.9808 296.166 32.1233V34.0959H302.186V32.1233C302.186 31.9808 302.187 31.8369 302.19 31.6921H296.162ZM296.166 35.6984V38.1022H302.186V35.6984H296.166ZM296.166 39.7047V42.1085H302.186V39.7047H296.166ZM296.166 43.7111V45.3842L299.345 43.7111H296.166ZM296.166 45.6658V46.1148H302.186V44.9753L296.166 45.6658ZM296.166 47.7174V50.1211H302.186V47.7174H296.166ZM296.166 51.7237V53.1833C296.166 53.4929 296.16 53.8089 296.143 54.1274H302.209C302.192 53.8089 302.186 53.4929 302.186 53.1833V51.7237H296.166ZM295.96 55.73C295.933 55.8711 295.903 56.0114 295.869 56.1505C296.908 56.128 297.946 56.1164 298.985 56.1164C300.151 56.1164 301.318 56.1303 302.484 56.157C302.45 56.0158 302.419 55.8734 302.392 55.73H295.96ZM313.165 43.9263C313.629 44.6094 314.015 45.3453 314.336 46.1067L314.34 46.1148H319.344C318.441 45.206 317.08 44.6527 315.88 44.3081C315.025 44.0625 314.093 43.9539 313.165 43.9263ZM314.964 47.7174C315.175 48.3082 315.366 48.9061 315.534 49.5105C315.59 49.7137 315.646 49.9172 315.701 50.1211H321.32C321.249 49.882 321.18 49.6423 321.113 49.402C320.952 48.8188 320.741 48.252 320.468 47.7174H314.964H314.964ZM316.08 51.7237C316.095 51.8025 316.11 51.8813 316.123 51.9603C316.291 52.6929 316.537 53.4594 316.925 54.1275H322.704C322.398 53.332 322.104 52.5311 321.831 51.7237H316.08V51.7237ZM318.618 55.73C320.187 56.5113 322.099 56.7396 323.833 56.7504C323.662 56.4145 323.503 56.0724 323.352 55.73H318.619H318.618ZM322.074 28.1722L320.434 29.015C319.918 29.28 319.376 29.6321 318.991 30.0896H324.426C324.28 29.6637 324.041 29.2753 323.679 28.9208C323.269 28.5205 322.649 28.2983 322.074 28.1722ZM318.253 31.6921C318.227 31.8347 318.213 31.9788 318.213 32.1234C318.213 32.5226 318.266 32.9908 318.544 33.3026C318.865 33.6624 319.233 33.9241 319.675 34.0959H323.317C323.501 33.9899 323.678 33.8593 323.848 33.7004C324.398 33.1847 324.571 32.424 324.607 31.6921H318.253ZM367.347 29.1495C366.16 29.1764 364.972 29.1902 363.785 29.1902C362.866 29.1902 361.948 29.1807 361.029 29.1608V30.0895H367.172C367.215 29.7727 367.273 29.458 367.347 29.1495ZM361.029 31.6921V31.7057L361.041 32.0224L361.029 32.0449V34.0959H367.049V32.1234C367.049 31.9808 367.051 31.837 367.054 31.6921H361.029ZM361.029 35.6985V38.1022H367.049V35.6985H361.029ZM361.029 39.7048V42.1085H367.049V39.7048H361.029ZM361.029 43.7111V46.1149H367.049V43.7111H361.029ZM361.029 47.7174V50.1212H367.049V47.7174H361.029ZM361.029 51.7238V53.1834C361.029 53.4913 361.025 53.8076 361.011 54.1275H367.072C367.056 53.809 367.049 53.493 367.049 53.1834V51.7238H361.029ZM360.858 55.7301C360.834 55.8748 360.808 56.0187 360.778 56.1612C361.992 56.1309 363.207 56.1165 364.422 56.1165C365.396 56.1165 366.371 56.1273 367.345 56.1481C367.312 56.0099 367.282 55.8705 367.256 55.7302H360.858V55.7301ZM339.005 29.1579C339.079 29.4639 339.135 29.7757 339.178 30.0896H345.426C345.465 29.7717 345.515 29.4556 345.583 29.1454C344.365 29.1759 343.147 29.1903 341.929 29.1903C340.954 29.1903 339.979 29.1791 339.005 29.1579L339.005 29.1579ZM339.297 31.6922C339.3 31.8371 339.301 31.9809 339.301 32.1235V34.096H345.321V32.1235C345.321 31.9813 345.322 31.8374 345.325 31.6922H339.297ZM339.301 35.6986V38.1023H345.321V35.6986H339.301ZM339.301 39.7049V42.1086H345.321V39.7049H339.301ZM339.301 43.7112V46.115H345.321V43.7112H339.301ZM339.301 47.7175V50.1213H345.321V47.7175H339.301ZM339.301 51.7239V53.1835C339.301 53.4931 339.295 53.8091 339.278 54.1276H345.321V51.7239H339.301ZM339.095 55.7302C339.068 55.8736 339.037 56.0161 339.003 56.1574C340.19 56.1304 341.378 56.1166 342.566 56.1166C343.484 56.1166 344.403 56.1262 345.321 56.1461V55.7302H339.095ZM412.585 29.1497C411.398 29.1766 410.21 29.1904 409.022 29.1904C408.104 29.1904 407.185 29.1808 406.267 29.161V30.0897H412.41C412.453 29.7729 412.511 29.4582 412.585 29.1497ZM406.267 31.6923V31.7059L406.279 32.0226L406.267 32.0451V34.0961H412.287V32.1236C412.287 31.981 412.289 31.8372 412.292 31.6923H406.267ZM406.267 35.6987V38.1024H412.287V35.6987H406.267ZM406.267 39.705V42.1087H412.287V39.705H406.267ZM406.267 43.7113V46.115H412.287V43.7113H406.267ZM406.267 47.7176V50.1214H412.287V47.7176H406.267ZM406.267 51.724V53.1836C406.267 53.4915 406.262 53.8078 406.249 54.1277H412.31C412.294 53.8092 412.287 53.4932 412.287 53.1836V51.724H406.267ZM406.095 55.7303C406.072 55.875 406.045 56.0189 406.016 56.1614C407.23 56.1311 408.445 56.1167 409.66 56.1167C410.634 56.1167 411.609 56.1275 412.583 56.1483C412.55 56.0101 412.52 55.8707 412.493 55.7303H406.095V55.7303ZM384.243 29.1581C384.316 29.4641 384.373 29.7759 384.416 30.0898H390.664C390.702 29.7719 390.753 29.4558 390.82 29.1456C389.603 29.1761 388.385 29.1905 387.167 29.1905C386.192 29.1905 385.217 29.1793 384.243 29.1581L384.243 29.1581ZM384.534 31.6924C384.537 31.8373 384.539 31.9811 384.539 32.1237V34.0962H390.559V32.1237C390.559 31.9815 390.56 31.8376 390.562 31.6924H384.534ZM384.539 35.6987V38.1025H390.559V35.6987H384.539ZM384.539 39.7051V42.1088H390.559V39.7051H384.539ZM384.539 43.7114V46.1151H390.559V43.7114H384.539ZM384.539 47.7177V50.1215H390.559V47.7177H384.539ZM384.539 51.7241V53.1837C384.539 53.4933 384.532 53.8093 384.516 54.1278H390.559V51.7241H384.539ZM384.333 55.7304C384.305 55.8738 384.275 56.0163 384.241 56.1576C385.428 56.1306 386.616 56.1168 387.804 56.1168C388.722 56.1168 389.641 56.1264 390.559 56.1462V55.7304H384.333ZM407.759 17.3263C407.805 17.302 407.851 17.2774 407.897 17.2522L407.925 17.2369L407.953 17.2223C408.628 16.8717 409.189 16.373 409.662 15.7819C409.692 15.7438 409.721 15.7057 409.749 15.6673H404.905C404.941 15.7215 404.981 15.7748 405.023 15.8272C405.462 16.3674 406.037 16.7141 406.689 16.9459L407.759 17.3264L407.759 17.3263ZM410.179 14.0647C410.143 13.3689 409.94 12.7688 409.421 12.2523C409.136 11.9684 408.826 11.7794 408.488 11.661H406.244C405.906 11.7794 405.595 11.9684 405.31 12.2523C404.791 12.7687 404.588 13.3689 404.553 14.0647H410.179H410.179Z" fill="#503C2F"/>
</svg>
