<svg width="360" height="73" viewBox="0 0 360 73" fill="none" xmlns="http://www.w3.org/2000/svg">
<path fill-rule="evenodd" clip-rule="evenodd" d="M28.7027 0.0418977C37.7642 0.0418977 48.1742 1.52135 55.2261 7.76328C61.7072 13.5001 64.015 21.4483 64.015 29.9324C64.015 35.7566 62.7608 41.3619 59.7083 46.3565C56.7097 51.2628 52.4298 54.8338 47.2669 57.3018C41.2774 60.1649 34.5429 61.1499 27.9591 61.1499C26.7748 61.1499 25.5861 61.111 24.4028 61.0662C22.8829 61.0086 21.3623 60.9687 19.8416 60.9425C18.4166 60.9178 16.9911 60.9012 15.5658 60.9012C12.8848 60.9012 10.2037 60.9142 7.52271 60.9426C5.44479 60.9645 3.34508 61.0036 1.27155 61.1472L0 61.2352V57.1774L1.1131 57.1053C2.1427 57.0385 3.58352 56.9121 4.54844 56.5247C5.08655 56.3086 5.34536 55.8695 5.49645 55.3234C5.83598 54.0963 5.86612 52.432 5.86612 51.1644V10.0275C5.86612 8.77488 5.84317 7.04549 5.49882 5.83554C5.33542 5.26143 5.04329 4.85172 4.48893 4.61837C3.54641 4.22161 2.16065 4.12235 1.15011 4.08857L5.49031e-05 4.05004V0.00012207L1.23076 0.0427244C3.33635 0.115584 5.4421 0.183152 7.54785 0.249949C10.1552 0.332619 12.7646 0.352735 15.3727 0.291119C17.6732 0.236777 19.9733 0.174885 22.274 0.125229C24.416 0.0789887 26.5602 0.0420079 28.7027 0.0420079L28.7027 0.0418977ZM90.7811 59.3556C90.0736 59.952 89.2783 60.4472 88.3926 60.8313C86.3752 61.7064 84.1732 62.0324 81.9868 62.0324C80.3421 62.0324 78.4849 61.8728 76.9607 61.2088C75.8326 60.7174 74.7661 60.0371 73.9751 59.0788C73.1425 58.0701 72.6454 56.8282 72.3512 55.5626C71.955 53.858 71.8806 51.9311 71.8806 50.1857V34.1124C71.8806 33.0614 71.8013 31.4441 71.2779 30.5028C70.9286 29.8745 70.2168 29.7598 69.5539 29.7598H68.3642V25.9304L69.665 26.0528C70.9219 26.1712 72.1845 26.2368 73.4471 26.2368C75.3731 26.2368 77.3026 26.1751 79.2227 26.02C80.8734 25.8866 82.5241 25.6843 84.1517 25.3751L85.5626 25.1072V53.5894C85.5626 54.1725 85.6103 54.8405 85.8072 55.3939C85.9108 55.6851 86.0659 55.9429 86.3302 56.1117C86.6492 56.3154 87.0803 56.3662 87.4497 56.3662C88.0261 56.3662 88.5618 56.236 89.0641 55.9523C89.5829 55.6593 89.9886 55.2481 90.3077 54.7447C90.6407 54.2194 90.781 53.6434 90.781 53.0222V34.1125C90.781 33.0614 90.7017 31.4442 90.1783 30.5028C89.8291 29.8746 89.1172 29.7599 88.4543 29.7599H87.2646V25.9304L88.5654 26.0529C89.8223 26.1712 91.0849 26.2368 92.3475 26.2368C94.2735 26.2368 96.203 26.1751 98.1231 26.0201C99.7738 25.8867 101.425 25.6843 103.052 25.3752L104.463 25.1072V53.0852C104.463 54.1347 104.547 55.7441 105.087 56.6766C105.45 57.3028 106.109 57.4378 106.79 57.4378H107.979V61.2711L106.675 61.1445C105.419 61.0225 104.158 60.9609 102.897 60.9609C100.977 60.9609 99.0547 61.013 97.1397 61.1471C95.4871 61.2628 93.8374 61.475 92.2158 61.8177L90.781 62.1209V59.3556H90.7811ZM126.634 61.6646V61.8858L124.979 61.1812C123.764 60.6636 122.491 60.3684 121.171 60.33C119.977 60.2953 118.76 60.3953 117.608 60.7259C116.847 60.944 115.98 61.2868 115.393 61.8373L114.681 62.5039L112.279 60.7815L112.582 59.9322C112.745 59.4741 112.856 58.998 112.892 58.5123C112.933 57.9649 112.952 57.416 112.952 56.8671V18.2283C112.952 17.1773 112.873 15.56 112.349 14.6187C112 13.9905 111.288 13.8757 110.625 13.8757H109.435V10.0463L110.736 10.1687C111.993 10.2871 113.256 10.3527 114.518 10.3527C116.444 10.3527 118.374 10.291 120.294 10.1359C121.945 10.0025 123.595 9.80014 125.223 9.49102L126.634 9.22306V27.8566C127.291 27.3019 128.022 26.8303 128.827 26.4466C130.757 25.5278 132.864 25.1653 134.989 25.1653C138.56 25.1653 141.457 26.7162 143.698 29.4827C146.474 32.91 147.104 37.9107 147.104 42.1807C147.104 46.0294 146.688 50.4289 144.972 53.9279C143.663 56.5975 141.786 58.8877 139.1 60.2361C136.652 61.4648 134.019 62.0325 131.284 62.0325C129.929 62.0325 128.564 61.9608 127.222 61.7684C127.025 61.74 126.829 61.7054 126.634 61.6647V61.6646ZM167.718 33.1694C167.582 33.6195 167.517 34.0824 167.517 34.5537V53.4634C167.517 54.3502 167.61 56.0167 168.353 56.6506C169.153 57.3325 170.734 57.4378 171.727 57.4378H172.917V61.203L171.675 61.1488C170.246 61.0864 168.816 61.039 167.387 60.9917C165.443 60.9275 163.499 60.8978 161.555 60.8978C159.663 60.8978 157.77 60.9298 155.879 60.9918C154.44 61.0389 152.999 61.086 151.56 61.1488L150.318 61.2031V57.4378H151.508C152.039 57.4378 152.951 57.3737 153.325 56.9221C153.78 56.374 153.835 54.7634 153.835 54.0938V34.1125C153.835 33.0615 153.755 31.4442 153.232 30.5029C152.883 29.8747 152.171 29.7599 151.508 29.7599H150.318V25.9305L151.619 26.053C152.876 26.1713 154.139 26.2369 155.401 26.2369C157.327 26.2369 159.257 26.1752 161.177 26.0201C162.827 25.8867 164.478 25.6844 166.106 25.3752L167.517 25.1073V27.5412C167.53 27.5295 167.543 27.518 167.556 27.5065C168.479 26.7016 169.536 26.1097 170.698 25.7286C171.903 25.3337 173.162 25.1654 174.427 25.1654C175.921 25.1654 177.466 25.4538 178.672 26.3926C179.685 27.1807 180.415 28.1921 180.828 29.41C181.191 30.4811 181.394 31.593 181.394 32.7259C181.394 34.7194 180.859 36.602 179.46 38.0608C178.106 39.4734 176.367 40.0973 174.427 40.0973C172.664 40.0973 170.818 39.7453 169.461 38.535C168.234 37.4402 167.649 36.0066 167.649 34.3647C167.649 33.9646 167.67 33.5647 167.718 33.1696L167.718 33.1694ZM200.114 25.1653C203.196 25.1653 206.304 25.6423 209.12 26.9452C211.85 28.2082 213.88 30.2631 215.292 32.9201C216.989 36.1143 217.441 40.0608 217.441 43.6304C217.441 47.1999 216.989 51.1464 215.292 54.3406C213.881 56.9958 211.85 59.0449 209.113 60.2875C206.295 61.5667 203.188 62.0325 200.114 62.0325C197.045 62.0325 193.966 61.556 191.151 60.2891C188.399 59.0508 186.353 57.0067 184.936 54.3406C183.239 51.1464 182.787 47.1999 182.787 43.6304C182.787 40.0608 183.239 36.1143 184.936 32.9201C186.354 30.2522 188.399 28.2023 191.143 26.9436C193.956 25.6531 197.038 25.1653 200.114 25.1653H200.114ZM235.504 29.9746C235.478 30.144 235.523 30.4623 235.555 30.6464L241.194 46.4138L243.009 40.9815C243.668 39.0078 244.341 36.4965 244.175 34.3962C244.082 33.2194 243.803 31.8143 242.996 30.9033C242.367 30.193 241.611 29.8204 240.667 29.7572L239.556 29.6829V25.9593L240.83 26.0507C241.533 26.1011 242.237 26.1399 242.94 26.1753C243.757 26.2162 244.574 26.2476 245.391 26.2686C246.04 26.2853 246.69 26.2998 247.339 26.2998C248.201 26.2998 249.065 26.2739 249.927 26.2378C250.576 26.2106 251.321 26.1838 251.961 26.067L253.364 25.8109V29.3984L252.585 29.6863C251.879 29.9475 251.268 30.5085 250.787 31.0744C249.937 32.0738 249.264 33.8436 248.841 35.0661L240.069 61.2236L239.14 61.1459C238.16 61.064 237.177 61.024 236.193 61.024C235.21 61.024 234.227 61.064 233.247 61.1459L232.365 61.2197L221.115 32.533C220.889 31.9578 220.262 30.4957 219.692 30.1739C219.416 30.018 218.907 29.76 218.58 29.76H217.39V25.9548L218.669 26.0511C220.388 26.1806 222.11 26.2718 223.833 26.3321C225.807 26.4012 227.782 26.426 229.757 26.426C231.106 26.426 232.455 26.3803 233.801 26.3019C235.148 26.2235 236.495 26.1405 237.841 26.0504L239.11 25.9654V29.7599H237.92C237.281 29.7599 236.638 29.7821 236.002 29.8481C235.902 29.8585 235.628 29.9002 235.504 29.9747L235.504 29.9746ZM275.168 39.5604C276.396 40.5547 277.587 41.603 278.702 42.7228C279.763 43.7873 280.658 44.9919 281.339 46.335C282.093 47.8223 282.379 49.4734 282.379 51.1312C282.379 53.2788 281.72 55.2226 280.398 56.9117C279.062 58.6184 277.327 59.8549 275.347 60.7067C273.177 61.6402 270.858 62.0325 268.505 62.0325C267.114 62.0325 265.685 61.901 264.345 61.513C263.357 61.2269 262.338 60.8492 261.457 60.3065C260.942 60.0485 260.413 59.7973 259.877 59.5866C259.573 59.4671 259.253 59.3894 258.925 59.3853C258.888 59.418 258.841 59.4839 258.82 59.5151C258.575 59.8837 258.404 60.3003 258.283 60.7251L258.037 61.5912H254.617L254.696 60.3225C254.797 58.7031 254.847 57.0766 254.883 55.4545C254.938 52.9015 254.945 50.3441 254.945 47.7905V46.5963H258.453L258.573 47.6562C258.788 49.5629 259.208 51.4772 259.96 53.2467C260.538 54.6057 261.337 55.9055 262.465 56.8733C263.397 57.6733 264.452 58.0682 265.679 58.0682C266.136 58.0682 266.585 57.9929 267.002 57.8C267.348 57.6394 267.617 57.406 267.829 57.0872C268.071 56.7222 268.131 56.2238 268.131 55.7957C268.131 54.3335 267.736 53.0244 266.765 51.9219C265.502 50.4858 264.104 49.1399 262.686 47.8588L262.678 47.8516L262.67 47.8442C261.458 46.7095 260.264 45.5563 259.092 44.3803C257.93 43.2133 256.937 41.9005 256.155 40.4472C255.32 38.8933 254.945 37.1981 254.945 35.4362C254.945 33.3462 255.551 31.4352 256.882 29.821C258.179 28.249 259.839 27.1227 261.714 26.3564C263.701 25.5446 265.796 25.1653 267.94 25.1653C269.677 25.1653 271.454 25.3322 273.131 25.8093C274.193 26.1117 275.435 26.485 276.411 27.0076L276.438 27.0218L276.464 27.0373C276.568 27.1002 276.875 27.2671 277.026 27.276C277.201 27.0972 277.344 26.4275 277.379 26.2221L277.547 25.2282H281.082L280.994 26.5047C280.894 27.9646 280.843 29.4322 280.808 30.895C280.753 33.1843 280.746 35.4784 280.746 37.7683V38.9625H277.232L277.117 37.8966C276.958 36.4193 276.607 34.977 276.087 33.5862C275.615 32.3213 274.921 31.1838 273.937 30.2546C273.007 29.3753 271.835 29.0664 270.577 29.0664C269.877 29.0664 269.255 29.2452 268.727 29.7131C268.223 30.1595 268.062 30.744 268.062 31.4019C268.062 32.3911 268.348 33.2625 268.947 34.048C269.703 35.0391 270.631 35.9047 271.615 36.6634C272.826 37.5963 274.009 38.5637 275.168 39.5603L275.168 39.5604ZM302.477 40.8243C302.735 40.7439 302.955 40.5829 303.146 40.3906L303.16 40.3764L308.02 35.8153C308.778 35.1198 309.843 33.9696 309.862 32.8623C309.877 32.0042 309.554 31.3534 308.903 30.8017C308.057 30.0846 306.984 29.7835 305.898 29.6927L304.807 29.6015V26.0057L306.038 26.0483C307.344 26.0936 308.65 26.1351 309.957 26.1743C311.148 26.21 312.34 26.2368 313.532 26.2368C314.529 26.2368 315.527 26.224 316.524 26.2055C317.601 26.1855 318.678 26.1646 319.756 26.1425C320.515 26.1269 321.286 26.1097 322.043 26.0512L323.324 25.9522V29.4104L322.453 29.6533C320.938 30.0758 319.515 30.8174 318.217 31.6982C316.583 32.8065 315.075 34.1261 313.683 35.5242L312.674 36.5367L322.246 54.7983C322.564 55.4065 322.91 56.0002 323.271 56.5841C323.532 57.0058 323.865 57.3486 324.295 57.5951L324.894 57.939V61.2223L323.634 61.1479C322.564 61.0847 321.49 61.0381 320.419 60.9913C318.982 60.9286 317.544 60.8979 316.106 60.8979C314.436 60.8979 312.765 60.9296 311.096 60.9916C309.835 61.0385 308.572 61.0852 307.312 61.1485L306.063 61.2112V57.4378H307.253C307.38 57.4378 307.71 57.425 307.895 57.3681C307.864 57.2489 307.793 57.0923 307.758 57.023L307.753 57.0114L302.477 45.8183V54.0937C302.477 54.7633 302.531 56.3739 302.986 56.922C303.361 57.3736 304.272 57.4377 304.804 57.4377H305.993V61.2111L304.744 61.1484C303.494 61.0856 302.242 61.0386 300.992 60.9915C299.291 60.9275 297.589 60.8978 295.887 60.8978C294.122 60.8978 292.356 60.9298 290.591 60.9917C289.235 61.0392 287.878 61.0868 286.522 61.1487L285.279 61.2055V57.4378H286.468C287 57.4378 287.911 57.3736 288.286 56.9221C288.741 56.374 288.795 54.7633 288.795 54.0937V18.2284C288.795 17.1773 288.716 15.5601 288.192 14.6187C287.843 13.9905 287.131 13.8757 286.468 13.8757H285.279V10.0464L286.579 10.1688C287.836 10.2871 289.099 10.3527 290.362 10.3527C292.288 10.3527 294.217 10.291 296.137 10.1359C297.788 10.0026 299.439 9.8002 301.066 9.49107L302.477 9.22311V40.8244L302.477 40.8243ZM341.61 64.6507L327.147 32.588C326.892 32.0227 326.159 30.4881 325.609 30.1569C325.353 30.003 324.897 29.7598 324.588 29.7598H323.399V25.9546L324.677 26.0509C326.397 26.1804 328.119 26.2716 329.842 26.3319C331.501 26.3901 333.163 26.4258 334.824 26.4258C336.494 26.4258 338.172 26.4003 339.84 26.3018C341.177 26.2229 342.513 26.1397 343.849 26.0502L345.118 25.9653V29.7597H343.928C343.265 29.7597 342.6 29.7939 341.941 29.8766C341.815 29.8924 341.531 29.9406 341.349 30.0215C341.384 30.1842 341.468 30.3999 341.509 30.4973L348.012 46.0016L349.646 40.9784C350.312 39.0013 350.978 36.502 350.811 34.3961C350.718 33.2193 350.439 31.8142 349.632 30.9032C349.003 30.1929 348.248 29.8203 347.303 29.7571L346.192 29.6828V25.9592L347.467 26.0506C348.169 26.101 348.873 26.1398 349.576 26.1751C350.393 26.2161 351.21 26.2475 352.028 26.2685C352.676 26.2852 353.326 26.2997 353.975 26.2997C354.838 26.2997 355.701 26.2737 356.563 26.2377C357.213 26.2105 357.957 26.1837 358.597 26.0668L360 25.8108V29.3983L359.222 29.6862C358.515 29.9474 357.904 30.5084 357.423 31.0743C356.573 32.0737 355.9 33.8434 355.478 35.0656L347.627 58.5194L344.985 66.1592C344.627 67.1572 344.202 68.1494 343.669 69.0668C343.189 69.893 342.588 70.6461 341.833 71.2356C341.092 71.8143 340.193 72.2099 339.305 72.5001C338.05 72.9101 336.575 73 335.263 73C333.888 73 332.52 72.7653 331.2 72.3868C329.757 71.9729 328.446 71.2778 327.335 70.2618C326.073 69.108 325.534 67.5771 325.534 65.8807C325.534 64.0597 326.254 62.5281 327.688 61.4082C329.181 60.2431 331.018 59.8329 332.877 59.8329C334.59 59.8329 336.315 60.1854 337.707 61.2403C339.139 62.3261 339.718 63.922 339.718 65.6916C339.718 66.9052 339.291 68.0195 338.624 69.0125C338.902 68.8737 339.17 68.7032 339.429 68.5004C340.433 67.7146 341.034 66.4529 341.414 65.2635L341.61 64.6507H341.61ZM29.9419 3.92323C28.9232 3.92323 26.627 4.01554 25.903 4.89807C25.0962 5.88156 25.0176 8.65997 25.0176 9.86154V51.3302C25.0176 52.5378 25.0998 55.2994 25.9311 56.2779C26.691 57.1722 28.9699 57.2686 30.0246 57.2686C33.081 57.2686 35.959 56.4987 38.2049 54.3267C40.6478 51.9642 42.0022 48.5753 42.7903 45.3251C43.9642 40.4843 44.2851 35.2324 44.2851 30.2641C44.2851 25.332 43.9784 19.9704 42.7138 15.1855C41.8894 12.0663 40.5 8.82657 38.038 6.65297C35.7627 4.64405 32.9265 3.92323 29.9419 3.92323H29.9419ZM126.634 58.043C126.711 58.0714 126.788 58.0979 126.866 58.1224C127.358 58.2766 127.879 58.3832 128.395 58.3832C130.202 58.3832 131.101 56.7173 131.639 55.2048C132.169 53.7156 132.453 52.0525 132.638 50.4864C132.905 48.2216 132.983 45.9096 132.983 43.6302C132.983 42.0029 132.95 40.3689 132.844 38.7447C132.767 37.5704 132.654 36.3724 132.438 35.2149C132.246 34.1872 131.848 32.3873 131.176 31.5553C130.868 31.1744 130.478 30.8313 129.965 30.8313C129.054 30.8313 128.298 31.168 127.626 31.7814C126.918 32.4269 126.634 33.2223 126.634 34.1754V58.043L126.634 58.043ZM200.114 28.8143C199.157 28.8143 198.329 31.0993 198.103 31.7797C197.614 33.2518 197.374 34.9334 197.216 36.4725C196.973 38.8398 196.908 41.2516 196.908 43.6303C196.908 46.0061 196.973 48.4155 197.216 50.7799C197.373 52.3089 197.613 53.9853 198.102 55.4466C198.331 56.1301 199.154 58.3833 200.114 58.3833C201.074 58.3833 201.897 56.1301 202.126 55.4466C202.615 53.9853 202.855 52.309 203.012 50.7799C203.256 48.4155 203.32 46.0061 203.32 43.6303C203.32 41.2516 203.255 38.8399 203.012 36.4725C202.854 34.9333 202.614 33.2518 202.125 31.7797C201.899 31.0993 201.071 28.8143 200.114 28.8143Z" fill="#2F2F2F"/>
<path d="M27.513 0C39.08 0 47.6589 2.47424 53.2495 7.42289C58.8403 12.3715 61.6356 19.4627 61.6356 28.6963C61.6356 34.723 60.2586 39.9896 57.5045 44.4958C54.7504 49.0021 50.7709 52.4993 45.5657 54.9874C40.3606 57.4756 34.0951 58.7196 26.7694 58.7196C25.8881 58.7196 24.7176 58.692 23.258 58.6367C21.7983 58.5814 20.2698 58.5399 18.6725 58.5123C17.0751 58.4846 15.643 58.4708 14.3761 58.4708C11.622 58.4708 8.9369 58.4847 6.32049 58.5123C3.7042 58.54 1.59735 58.6091 0 58.7196V57.0609C1.70754 56.9503 2.97437 56.7292 3.80061 56.3974C4.62685 56.0657 5.17763 55.4021 5.45303 54.4069C5.72842 53.4116 5.86612 51.9188 5.86612 49.9283V8.79146C5.86612 6.74566 5.72842 5.23898 5.45303 4.27137C5.17758 3.30375 4.61301 2.64024 3.75927 2.28091C2.90552 1.92151 1.65242 1.71412 0 1.65885V0.000110226C1.59735 0.0553885 3.7042 0.1245 6.32049 0.207445C8.93685 0.29039 11.567 0.304224 14.2109 0.24889C16.2489 0.193612 18.5485 0.138278 21.1098 0.0830552C23.671 0.0277769 25.8054 0.000110226 27.5129 0.000110226L27.513 0ZM28.7523 1.49285C26.2186 1.49285 24.5662 1.96279 23.7951 2.9028C23.024 3.8427 22.6383 5.75032 22.6383 8.62546V50.0941C22.6383 52.9692 23.0377 54.8768 23.8364 55.8168C24.6351 56.7567 26.3013 57.2267 28.835 57.2267C32.5805 57.2267 35.5824 56.1347 37.8407 53.9507C40.0991 51.7667 41.7377 48.5737 42.7567 44.3715C43.7757 40.1693 44.2852 35.0549 44.2852 29.0281C44.2852 22.8354 43.7482 17.7071 42.6741 13.6432C41.6 9.57924 39.92 6.53822 37.6342 4.52009C35.3483 2.50191 32.3877 1.4929 28.7524 1.4929L28.7523 1.49285ZM102.084 25.3124V51.849C102.084 53.74 102.345 55.1372 102.869 56.0407C103.392 56.9442 104.302 57.3959 105.6 57.3959V58.7196C104.303 58.5935 103.005 58.5305 101.707 58.5305C99.614 58.5305 97.6675 58.5935 95.8674 58.7196C94.0673 58.8456 92.372 59.0768 90.7813 59.4129V54.8746C89.7766 56.5554 88.4265 57.7636 86.7312 58.499C85.0358 59.2343 83.0578 59.602 80.7973 59.602C78.8717 59.602 77.3542 59.3604 76.2449 58.8771C75.1355 58.3939 74.2878 57.7951 73.7018 57.0807C73.0739 56.3243 72.6134 55.3158 72.3203 54.0551C72.0273 52.7945 71.8808 51.0926 71.8808 48.9495V32.8763C71.8808 30.9853 71.6296 29.5881 71.1273 28.6846C70.6249 27.7811 69.704 27.3294 68.3644 27.3294V26.0057C69.704 26.1318 71.0017 26.1948 72.2575 26.1948C74.3506 26.1948 76.3076 26.1213 78.1286 25.9742C79.9496 25.8271 81.6345 25.6065 83.1833 25.3123V52.3532C83.1833 53.2357 83.288 53.971 83.4973 54.5594C83.7067 55.1477 84.0415 55.5889 84.502 55.8831C84.9625 56.1772 85.5486 56.3243 86.2602 56.3243C87.0555 56.3243 87.7882 56.1352 88.4579 55.757C89.1277 55.3788 89.6824 54.843 90.1219 54.1497C90.5615 53.4563 90.7813 52.6684 90.7813 51.786V32.8763C90.7813 30.9853 90.5301 29.5881 90.0277 28.6846C89.5254 27.7811 88.6044 27.3294 87.2648 27.3294V26.0057C88.6044 26.1318 89.9022 26.1948 91.158 26.1948C93.251 26.1948 95.208 26.1213 97.029 25.9742C98.85 25.8271 100.535 25.6065 102.084 25.3123V25.3124ZM133.799 25.1233C136.897 25.1233 139.492 26.4154 141.585 28.9998C143.678 31.5841 144.725 35.5657 144.725 40.9444C144.725 45.6929 144.055 49.4328 142.715 52.1642C141.376 54.8956 139.597 56.8181 137.378 57.9316C135.159 59.0452 132.731 59.602 130.094 59.602C128.671 59.602 127.373 59.5179 126.201 59.3498C125.029 59.1817 123.899 58.7615 122.81 58.0891L123.501 57.0807C124.045 57.5009 124.652 57.816 125.322 58.0261C125.992 58.2362 126.62 58.3413 127.206 58.3413C129.173 58.3413 130.628 57.0176 131.57 54.3703C132.512 51.7229 132.983 47.7308 132.983 42.3941C132.983 38.6542 132.794 35.7758 132.418 33.7587C132.041 31.7417 131.538 30.3444 130.911 29.567C130.283 28.7896 129.571 28.4009 128.776 28.4009C127.603 28.4009 126.557 28.8212 125.636 29.6616C124.715 30.502 124.255 31.5946 124.255 32.9393V29.8506C125.217 28.2538 126.515 27.0667 128.148 26.2893C129.78 25.5119 131.664 25.1232 133.799 25.1232V25.1233ZM124.255 9.42823V58.8456C122.873 58.2573 121.46 57.9421 120.016 57.9001C118.572 57.8581 117.264 58.0052 116.092 58.3414C114.919 58.6775 114.019 59.1397 113.391 59.7281L112.512 59.0977C112.722 58.5094 112.847 57.9317 112.889 57.3644C112.931 56.7971 112.952 56.2193 112.952 55.631V16.9922C112.952 15.1012 112.701 13.7041 112.198 12.8005C111.696 11.8971 110.775 11.4454 109.436 11.4454V10.1217C110.775 10.2477 112.073 10.3108 113.329 10.3108C115.422 10.3108 117.379 10.2372 119.2 10.0901C121.021 9.94304 122.706 9.72242 124.255 9.42829V9.42823ZM173.238 25.1233C174.745 25.1233 175.917 25.449 176.754 26.1003C177.591 26.7517 178.177 27.571 178.512 28.5586C178.847 29.5461 179.014 30.5231 179.014 31.4896C179.014 33.3805 178.481 34.8828 177.413 35.9964C176.346 37.1099 174.954 37.6667 173.238 37.6667C171.396 37.6667 170.004 37.2464 169.062 36.406C168.12 35.5656 167.649 34.4731 167.649 33.1284C167.649 31.6996 167.952 30.5231 168.559 29.5985C169.166 28.6741 169.93 27.8966 170.851 27.2664C170.098 27.2664 169.428 27.4134 168.842 27.7076C168.34 27.9177 167.858 28.2118 167.398 28.59C166.937 28.9683 166.54 29.399 166.205 29.8822C165.87 30.3654 165.608 30.9012 165.42 31.4895C165.231 32.0778 165.137 32.6871 165.137 33.3174V52.2271C165.137 54.2442 165.556 55.6099 166.393 56.3242C167.23 57.0386 168.612 57.3958 170.537 57.3958V58.7195C169.575 58.6774 168.141 58.6249 166.236 58.5619C164.331 58.4988 162.374 58.4673 160.365 58.4673C158.481 58.4673 156.577 58.4988 154.651 58.5619C152.725 58.6249 151.281 58.6774 150.318 58.7195V57.3958C151.616 57.3958 152.527 57.0806 153.05 56.4503C153.573 55.82 153.835 54.6224 153.835 52.8574V32.8762C153.835 30.9852 153.584 29.588 153.081 28.6845C152.579 27.781 151.658 27.3293 150.318 27.3293V26.0056C151.658 26.1317 152.956 26.1947 154.211 26.1947C156.305 26.1947 158.262 26.1212 160.083 25.9741C161.904 25.827 163.588 25.6064 165.137 25.3122V29.8506C165.682 28.758 166.351 27.8651 167.147 27.1717C167.942 26.4784 168.853 25.9636 169.878 25.6274C170.904 25.2912 172.024 25.1232 173.238 25.1232L173.238 25.1233ZM198.925 25.1233C202.19 25.1233 205.026 25.6801 207.433 26.7936C209.84 27.9072 211.713 29.7246 213.053 32.2459C214.392 34.7672 215.062 38.1499 215.062 42.3941C215.062 46.6383 214.392 50.021 213.053 52.5423C211.713 55.0636 209.84 56.8705 207.433 57.9631C205.026 59.0557 202.19 59.6019 198.925 59.6019C195.701 59.6019 192.876 59.0556 190.448 57.9631C188.02 56.8705 186.136 55.0636 184.796 52.5423C183.457 50.021 182.787 46.6383 182.787 42.3941C182.787 38.1499 183.457 34.7672 184.796 32.2459C186.136 29.7246 188.02 27.9072 190.448 26.7936C192.876 25.6801 195.701 25.1233 198.925 25.1233ZM198.925 26.384C197.669 26.384 196.622 27.6446 195.785 30.1659C194.948 32.6872 194.529 36.7633 194.529 42.3942C194.529 48.0251 194.948 52.0906 195.785 54.5909C196.622 57.0912 197.669 58.3414 198.925 58.3414C200.18 58.3414 201.227 57.0912 202.064 54.5909C202.901 52.0906 203.32 48.0251 203.32 42.3942C203.32 36.7633 202.901 32.6872 202.064 30.1659C201.227 27.6446 200.18 26.384 198.925 26.384ZM250.984 26.0057V27.3294C250.189 27.6236 249.425 28.2014 248.692 29.0628C247.96 29.9243 247.238 31.3845 246.526 33.4435L238.049 58.7195C237.045 58.6355 236.029 58.5935 235.004 58.5935C233.978 58.5935 232.963 58.6355 231.958 58.7195L221.032 30.8592C220.405 29.2623 219.756 28.2748 219.086 27.8967C218.416 27.5185 217.851 27.3294 217.391 27.3294V26.0057C219.065 26.1318 220.802 26.2263 222.602 26.2894C224.402 26.3524 226.391 26.384 228.568 26.384C229.865 26.384 231.236 26.3419 232.68 26.2579C234.125 26.1739 235.475 26.0898 236.73 26.0058V27.3295C235.977 27.3295 235.297 27.361 234.69 27.4241C234.083 27.487 233.643 27.6762 233.371 27.9913C233.099 28.3065 233.047 28.8843 233.214 29.7247L240.247 49.3908L239.43 50.6515L242.947 40.1251C243.91 37.2676 244.318 34.9144 244.171 33.0655C244.025 31.2165 243.533 29.8193 242.696 28.8738C241.858 27.9283 240.812 27.4135 239.556 27.3295V26.0058C240.142 26.0478 240.854 26.0898 241.691 26.1319C242.528 26.1739 243.355 26.2054 244.171 26.2264C244.988 26.2474 245.647 26.2579 246.149 26.2579C246.903 26.2579 247.782 26.2369 248.787 26.1949C249.791 26.1528 250.524 26.0898 250.984 26.0058L250.984 26.0057ZM266.75 25.1233C268.592 25.1233 270.214 25.3229 271.617 25.7221C273.019 26.1213 274.034 26.489 274.662 26.8252C276.127 27.7076 277.027 27.1613 277.362 25.1864H278.618C278.534 26.405 278.472 27.8863 278.43 29.6301C278.388 31.374 278.367 33.6747 278.367 36.5322H277.111C276.944 34.9774 276.577 33.4436 276.012 31.9309C275.447 30.4181 274.631 29.1574 273.563 28.1489C272.496 27.1404 271.104 26.6362 269.388 26.6362C268.341 26.6362 267.462 26.9513 266.75 27.5816C266.039 28.2119 265.683 29.0734 265.683 30.166C265.683 31.4266 266.06 32.5507 266.813 33.5382C267.567 34.5257 268.529 35.4712 269.701 36.3747C270.874 37.2781 272.046 38.2341 273.218 39.2426C274.516 40.2932 275.667 41.3227 276.671 42.3312C277.676 43.3397 278.482 44.4428 279.089 45.6405C279.696 46.8381 280 48.2563 280 49.8952C280 51.7861 279.424 53.467 278.273 54.9378C277.122 56.4085 275.594 57.5536 273.689 58.373C271.784 59.1924 269.66 59.6021 267.315 59.6021C265.85 59.6021 264.574 59.4445 263.485 59.1294C262.397 58.8142 261.518 58.4465 260.848 58.0263C260.178 57.6901 259.602 57.4275 259.121 57.2384C258.64 57.0493 258.169 56.9547 257.708 56.9547C257.29 56.9547 256.934 57.1754 256.641 57.6166C256.348 58.0578 256.117 58.5726 255.95 59.1609H254.694C254.778 57.8162 254.841 56.1774 254.883 54.2444C254.924 52.3114 254.945 49.7481 254.945 46.5544H256.201C256.452 48.7815 256.944 50.7566 257.677 52.4795C258.409 54.2023 259.351 55.5576 260.502 56.545C261.654 57.5325 262.983 58.0263 264.49 58.0263C265.16 58.0263 265.767 57.9003 266.311 57.6481C266.855 57.396 267.295 57.0178 267.629 56.5136C267.964 56.0093 268.132 55.358 268.132 54.5595C268.132 52.7106 267.577 51.1558 266.468 49.8952C265.358 48.6345 263.967 47.2478 262.292 45.735C261.036 44.5585 259.854 43.4133 258.744 42.2998C257.635 41.1862 256.725 39.9676 256.013 38.6439C255.301 37.3202 254.945 35.8389 254.945 34.2001C254.945 32.3092 255.5 30.6913 256.609 29.3466C257.719 28.0019 259.173 26.9619 260.973 26.2265C262.774 25.4912 264.699 25.1235 266.75 25.1235L266.75 25.1233ZM300.098 9.42823V52.8575C300.098 54.6225 300.36 55.82 300.883 56.4504C301.406 57.0807 302.317 57.3959 303.614 57.3959V58.7196C302.777 58.6775 301.521 58.625 299.847 58.562C298.172 58.4989 296.456 58.4674 294.698 58.4674C292.94 58.4674 291.161 58.4989 289.36 58.562C287.56 58.625 286.2 58.6775 285.279 58.7196V57.3959C286.577 57.3959 287.487 57.0807 288.01 56.4504C288.534 55.8201 288.795 54.6225 288.795 52.8575V16.9922C288.795 15.1012 288.544 13.704 288.042 12.8005C287.54 11.897 286.619 11.4453 285.279 11.4453V10.1216C286.619 10.2477 287.916 10.3107 289.172 10.3107C291.265 10.3107 293.222 10.2372 295.043 10.0901C296.864 9.94299 298.549 9.72237 300.098 9.42823H300.098ZM320.945 26.0057V27.2664C319.438 27.6867 317.91 28.422 316.361 29.4725C314.812 30.5231 313.242 31.8468 311.652 33.4436L309.454 35.6497L309.894 34.8303L320.003 54.1182C320.338 54.7485 320.694 55.3684 321.071 55.9776C321.447 56.587 321.929 57.0597 322.515 57.3959V58.7196C321.803 58.6775 320.725 58.625 319.281 58.562C317.837 58.4989 316.382 58.4674 314.917 58.4674C313.242 58.4674 311.558 58.4989 309.862 58.562C308.167 58.625 306.9 58.6775 306.063 58.7196V57.3959C306.9 57.3959 307.455 57.2068 307.727 56.8286C307.999 56.4504 307.968 55.9252 307.633 55.2528L302.107 43.5288C301.814 42.9404 301.479 42.5623 301.103 42.3942C300.726 42.2261 300.286 42.1421 299.784 42.1421V40.9444C300.37 40.9444 300.914 40.8919 301.416 40.7869C301.919 40.6818 302.379 40.4191 302.798 39.999L307.633 35.4606C309.098 34.1159 309.841 32.8448 309.862 31.6471C309.883 30.4495 309.422 29.4515 308.481 28.6531C307.539 27.8547 306.314 27.3925 304.807 27.2664V26.0057C306.021 26.0478 307.329 26.0898 308.732 26.1318C310.134 26.1738 311.338 26.1948 312.342 26.1948C313.221 26.1948 314.226 26.1843 315.356 26.1633C316.487 26.1423 317.564 26.1212 318.59 26.1002C319.616 26.0792 320.401 26.0477 320.945 26.0057L320.945 26.0057ZM357.621 26.0057V27.3294C356.825 27.6236 356.061 28.2014 355.329 29.0628C354.596 29.9243 353.874 31.3845 353.162 33.4435L345.313 56.8916L342.111 64.2664L327.041 30.8592C326.329 29.2623 325.659 28.2748 325.032 27.8967C324.404 27.5185 323.859 27.3294 323.399 27.3294V26.0057C325.073 26.1318 326.811 26.2263 328.611 26.2894C330.411 26.3524 332.085 26.384 333.634 26.384C335.602 26.384 337.297 26.3419 338.72 26.2579C340.143 26.1739 341.483 26.0898 342.739 26.0058V27.3295C341.985 27.3295 341.274 27.3715 340.604 27.4555C339.934 27.5396 339.453 27.7392 339.16 28.0543C338.867 28.3695 338.888 28.9263 339.223 29.7247L347.26 48.8865L346.569 49.3908L349.583 40.1251C350.546 37.2676 350.954 34.9144 350.808 33.0655C350.661 31.2165 350.169 29.8193 349.332 28.8738C348.495 27.9283 347.448 27.4135 346.192 27.3295V26.0058C346.779 26.0478 347.49 26.0898 348.327 26.1319C349.165 26.1739 349.991 26.2054 350.808 26.2264C351.624 26.2474 352.283 26.2579 352.786 26.2579C353.539 26.2579 354.418 26.2369 355.423 26.1949C356.428 26.1528 357.16 26.0898 357.621 26.0058V26.0057ZM345.313 56.8916L342.676 64.5185C342.299 65.5691 341.891 66.4725 341.452 67.2289C341.012 67.9853 340.499 68.5946 339.913 69.0568C339.369 69.4771 338.647 69.8343 337.747 70.1284C336.847 70.4225 335.623 70.5696 334.074 70.5696C332.902 70.5696 331.656 70.3805 330.337 70.0024C329.019 69.6241 327.889 69.0043 326.947 68.1429C326.005 67.2814 325.534 66.1153 325.534 64.6446C325.534 63.1739 326.099 61.9972 327.229 61.1148C328.36 60.2323 329.846 59.7911 331.688 59.7911C333.404 59.7911 334.775 60.1798 335.8 60.9572C336.826 61.7346 337.339 62.9007 337.339 64.4555C337.339 65.38 337.014 66.3044 336.366 67.2289C335.717 68.1534 334.681 68.8467 333.257 69.309C333.592 69.351 333.969 69.3825 334.388 69.4035C334.806 69.4245 335.141 69.4351 335.392 69.4351C336.732 69.4351 337.925 69.0254 338.971 68.2059C340.018 67.3865 340.813 66.1153 341.358 64.3925L343.555 57.5219L345.313 56.8916V56.8916Z" fill="#503C2F"/>
<path fill-rule="evenodd" clip-rule="evenodd" d="M22.3654 56.8229C21.0281 55.0945 20.8643 52.1704 20.8643 50.0941V8.62541C20.8643 6.53955 21.0216 3.55612 22.3714 1.83813C21.9635 1.84607 21.5557 1.85456 21.148 1.86332C18.8494 1.91292 16.5512 1.97481 14.2527 2.0291C11.5903 2.09199 8.92637 2.07159 6.26462 1.98722C6.26012 1.98705 6.25562 1.98694 6.25106 1.98677C6.66234 2.49839 6.96584 3.10347 7.15899 3.78191C7.59069 5.29857 7.64032 7.22008 7.64032 8.79124V49.9281C7.64032 51.4994 7.58306 53.3635 7.1625 54.8834C6.96979 55.5798 6.66475 56.2061 6.24414 56.732C6.26341 56.7318 6.28268 56.7315 6.30195 56.7314C8.9933 56.7029 11.6848 56.6898 14.3763 56.6898C15.8186 56.6898 17.2611 56.7066 18.7032 56.7316C19.9241 56.7527 21.145 56.7825 22.3654 56.8229ZM38.7164 55.5641C40.8096 55.0278 42.8519 54.3122 44.8031 53.3794C49.446 51.1601 53.2947 47.9785 55.9924 43.5645C58.7561 39.0426 59.8616 33.9661 59.8616 28.6962C59.8616 21.0907 57.901 13.9143 52.0762 8.75856C48.278 5.39661 43.2965 3.57403 38.155 2.644C38.3757 2.81512 38.5927 2.99463 38.8058 3.18278C41.7341 5.76813 43.4056 9.46621 44.3889 13.1864C45.7223 18.2317 46.0592 23.8263 46.0592 29.028C46.0592 34.2406 45.7118 39.7144 44.4804 44.7926C43.5521 48.6206 41.9421 52.457 39.0716 55.2331C38.9545 55.3463 38.8361 55.4567 38.7164 55.5641ZM100.31 27.4076C99.2672 27.5534 98.2194 27.6647 97.1713 27.7494C95.3392 27.8974 93.4992 27.9642 91.661 27.9744C92.4018 29.418 92.5553 31.2889 92.5553 32.8763V57.287C93.6131 57.1299 94.6778 57.0177 95.7439 56.943C97.5698 56.8151 99.4021 56.7588 101.233 56.7506C100.472 55.3078 100.31 53.4432 100.31 51.849V27.4076ZM83.8184 57.5434C83.7273 57.4945 83.6377 57.4419 83.5495 57.3856C82.7223 56.8571 82.1542 56.0793 81.8265 55.1584C81.5099 54.2684 81.4092 53.2938 81.4092 52.3533V27.4076C80.3667 27.5534 79.3189 27.6647 78.2709 27.7494C76.4387 27.8974 74.5988 27.9642 72.7606 27.9744C73.5014 29.418 73.6548 31.289 73.6548 32.8763V48.9495C73.6548 50.452 73.7066 52.1823 74.0479 53.6505C74.2335 54.4489 74.5401 55.3053 75.0678 55.9445C75.5492 56.5277 76.2678 56.9458 76.951 57.2434C78.0622 57.7274 79.6023 57.8211 80.7972 57.8211C81.8037 57.8211 82.8244 57.7419 83.8184 57.5433V57.5434ZM122.48 56.4162V11.5235C121.438 11.6693 120.39 11.7806 119.342 11.8653C117.51 12.0133 115.67 12.0801 113.832 12.0902C114.573 13.5339 114.726 15.4048 114.726 16.9922V55.631C114.726 56.064 114.715 56.4969 114.693 56.9294C114.994 56.816 115.299 56.7167 115.604 56.629C117.052 56.2139 118.566 56.0764 120.067 56.1201C120.885 56.1439 121.69 56.244 122.48 56.4162ZM131.806 57.7306C133.465 57.5514 135.065 57.1014 136.585 56.3388C138.677 55.2888 140.108 53.4496 141.124 51.3776C142.619 48.3293 142.951 44.2915 142.951 40.9445C142.951 37.4476 142.495 32.9469 140.209 30.1233C138.533 28.054 136.475 26.9043 133.799 26.9043C132.824 26.9043 131.847 26.9944 130.9 27.2124C131.421 27.5241 131.885 27.946 132.288 28.4456C133.345 29.754 133.858 31.8051 134.161 33.4307C134.694 36.2811 134.757 39.499 134.757 42.3943C134.757 46.3065 134.561 51.2568 133.241 54.9694C132.882 55.9764 132.411 56.9269 131.806 57.7307V57.7306ZM163.363 27.4076C162.321 27.5535 161.273 27.6648 160.225 27.7494C158.393 27.8974 156.553 27.9643 154.714 27.9744C155.455 29.418 155.609 31.289 155.609 32.8763V52.8576C155.609 54.0992 155.503 55.5894 154.932 56.7714C156.743 56.7155 158.554 56.6867 160.365 56.6867C161.715 56.6867 163.065 56.7007 164.414 56.7304C163.571 55.4351 163.363 53.7417 163.363 52.2273V27.4077V27.4076ZM174.394 26.9976L171.851 28.7379C171.127 29.2334 170.523 29.8446 170.041 30.5787C169.557 31.3161 169.423 32.263 169.423 33.1285C169.423 33.9177 169.649 34.5474 170.241 35.0752C170.999 35.7517 172.271 35.886 173.238 35.886C174.365 35.886 175.345 35.5862 176.135 34.7617C176.986 33.8735 177.24 32.6912 177.24 31.4897C177.24 30.6836 177.091 29.8943 176.833 29.1326C176.607 28.4664 176.221 27.9391 175.667 27.508C175.319 27.2372 174.863 27.0825 174.394 26.9976L174.394 26.9976ZM195.14 27.2125C193.779 27.4489 192.447 27.8345 191.185 28.4135C189.033 29.4004 187.472 30.9936 186.362 33.084C184.913 35.8106 184.561 39.3538 184.561 42.3942C184.561 45.4346 184.913 48.9779 186.362 51.7044C187.468 53.7865 189.023 55.3704 191.173 56.3381C192.438 56.9075 193.773 57.2863 195.135 57.5185C194.695 56.7583 194.36 55.9257 194.103 55.1584C193.541 53.4792 193.259 51.6075 193.078 49.8496C192.824 47.383 192.755 44.8729 192.755 42.3942C192.755 39.9129 192.825 37.4008 193.078 34.9314C193.26 33.1661 193.541 31.2905 194.102 29.6028C194.359 28.8276 194.696 27.983 195.14 27.2124L195.14 27.2125ZM202.71 57.5257C204.085 57.2956 205.432 56.9169 206.702 56.3405C208.842 55.3693 210.386 53.7782 211.487 51.7044C212.936 48.9779 213.288 45.4346 213.288 42.3942C213.288 39.3538 212.936 35.8105 211.487 33.084C210.381 31.0017 208.831 29.4015 206.69 28.4111C205.424 27.8251 204.079 27.4395 202.705 27.2052C203.151 27.9777 203.489 28.8252 203.747 29.6028C204.308 31.2905 204.589 33.1661 204.771 34.9314C205.024 37.4008 205.094 39.913 205.094 42.3943C205.094 44.873 205.025 47.383 204.771 49.8497C204.59 51.6075 204.308 53.4792 203.746 55.1585C203.488 55.9281 203.152 56.7636 202.71 57.5257V57.5257ZM247.243 28.0268C246.878 28.0345 246.514 28.0388 246.149 28.0388C245.529 28.0388 244.907 28.0263 244.286 28.0108C244.937 28.853 245.354 29.837 245.614 30.8669C246.057 29.84 246.593 28.8267 247.243 28.0268ZM238.849 50.753L231.5 30.2028L231.474 30.0739C231.346 29.428 231.29 28.7428 231.419 28.104C230.469 28.1432 229.518 28.1649 228.567 28.1649C226.558 28.1649 224.548 28.1396 222.54 28.0693C222.233 28.0586 221.925 28.0468 221.618 28.034C222.064 28.7318 222.409 29.5091 222.683 30.207L233.135 56.8577C233.757 56.8276 234.38 56.8127 235.004 56.8127C235.604 56.8127 236.203 56.8265 236.803 56.8544L238.849 50.753ZM263.491 44.4222C264.989 45.7765 266.462 47.1984 267.797 48.7161C269.248 50.3649 269.906 52.368 269.906 54.5595C269.906 55.6 269.687 56.6258 269.105 57.5014C269.05 57.585 268.992 57.6665 268.933 57.7459C270.326 57.6125 271.692 57.2947 272.99 56.7362C274.511 56.0819 275.85 55.15 276.878 53.8375C277.789 52.6728 278.225 51.3761 278.225 49.8952C278.225 48.7168 278.045 47.5079 277.508 46.4481C276.968 45.3841 276.257 44.4337 275.417 43.5906C274.372 42.5415 273.254 41.5601 272.104 40.629L272.083 40.6123L272.063 40.5949C270.941 39.629 269.794 38.6912 268.621 37.7873C267.429 36.8685 266.32 35.8211 265.405 34.6213C264.409 33.3165 263.909 31.8094 263.909 30.1661C263.909 29.0043 264.21 27.925 264.866 27.0259C263.764 27.1713 262.686 27.4497 261.642 27.876C260.222 28.456 258.958 29.2914 257.976 30.4825C257.086 31.561 256.719 32.8059 256.719 34.2001C256.719 35.4668 256.973 36.6799 257.574 37.7981C258.219 38.9974 259.04 40.0776 259.999 41.0405C261.142 42.1885 262.309 43.3143 263.491 44.4222H263.491ZM257.104 55.2368C256.945 54.9805 256.795 54.7187 256.652 54.4521C256.646 54.7623 256.638 55.0726 256.63 55.3829C256.782 55.3209 256.94 55.2718 257.104 55.2368H257.104ZM276.506 28.9467C276.56 29.032 276.613 29.1181 276.666 29.2049C276.668 29.1043 276.671 29.0038 276.674 28.9031C276.618 28.9195 276.562 28.934 276.506 28.9467H276.506ZM298.324 11.5236C297.281 11.6694 296.233 11.7807 295.185 11.8654C293.353 12.0134 291.513 12.0802 289.675 12.0904C290.416 13.534 290.569 15.4049 290.569 16.9923V52.8576C290.569 54.0962 290.464 55.5819 289.897 56.7624C291.497 56.7125 293.097 56.6867 294.698 56.6867C296.129 56.6867 297.56 56.7073 298.99 56.751C298.429 55.5723 298.324 54.0922 298.324 52.8576V11.5236ZM303.216 41.9376C303.398 42.1863 303.556 42.4547 303.694 42.7325L303.703 42.7498L309.229 54.4755C309.593 55.2132 309.778 56.021 309.633 56.7885C309.688 56.7865 309.742 56.7845 309.797 56.7825C311.503 56.719 313.21 56.6867 314.917 56.6867C316.398 56.6867 317.879 56.7184 319.358 56.7829C319.4 56.7847 319.442 56.7866 319.484 56.7884C319.115 56.186 318.761 55.5736 318.433 54.9475L308.883 36.7266C308.868 36.7405 308.853 36.7543 308.838 36.7681L304.029 41.2815C303.778 41.5304 303.507 41.751 303.216 41.9376H303.216ZM311.611 31.0127C312.791 29.9198 314.041 28.8971 315.368 27.9971C315.395 27.979 315.421 27.961 315.448 27.9429C315.428 27.9433 315.409 27.9437 315.389 27.944C314.374 27.9629 313.358 27.9758 312.342 27.9758C311.661 27.9758 310.979 27.9674 310.297 27.9535C311.051 28.8208 311.502 29.8546 311.611 31.0127ZM342.262 60.2847L343.635 56.3161L345.772 49.9295L337.587 30.4159C337.278 29.6784 337.092 28.8653 337.228 28.1102C336.03 28.1519 334.83 28.165 333.634 28.165C331.939 28.165 330.243 28.1287 328.549 28.0694C328.214 28.0576 327.878 28.0447 327.543 28.0307C327.995 28.7158 328.362 29.4708 328.657 30.1248L342.262 60.2848V60.2847ZM352.25 30.8669C352.694 29.84 353.23 28.8268 353.88 28.0269C353.515 28.0345 353.15 28.0389 352.786 28.0389C352.165 28.0389 351.543 28.0263 350.923 28.0108C351.573 28.8531 351.991 29.837 352.25 30.8669ZM330.723 68.2603L332.711 67.6147C333.524 67.3509 334.409 66.9242 334.915 66.2034C335.274 65.6915 335.565 65.0943 335.565 64.4556C335.565 63.6477 335.399 62.8846 334.731 62.3785C333.884 61.7361 332.72 61.5721 331.687 61.5721C330.514 61.5721 329.267 61.7797 328.318 62.5206C327.607 63.0758 327.308 63.7428 327.308 64.6447C327.308 65.4906 327.506 66.2455 328.141 66.8266C328.888 67.5089 329.761 67.9705 330.723 68.2602V68.2603Z" fill="#E4D8C4"/>
<path fill-rule="evenodd" clip-rule="evenodd" d="M20.7933 55.8618C20.0751 54.0741 19.9533 51.8871 19.9533 50.0941V8.62548C19.9533 6.82301 20.0703 4.59143 20.7998 2.78577C18.6245 2.83394 16.4495 2.89213 14.2743 2.9435C12.1293 2.99415 9.98317 2.99112 7.8381 2.94433C7.91288 3.13601 7.97838 3.33183 8.03504 3.53078C8.50188 5.17095 8.55141 7.09009 8.55141 8.79132V49.9282C8.55141 51.6211 8.4931 53.492 8.04031 55.1282C7.97701 55.3571 7.90218 55.5824 7.81543 55.8024C10.0023 55.7839 12.1893 55.7753 14.3763 55.7753C15.8239 55.7753 17.2715 55.7921 18.7188 55.8172C19.4104 55.8291 20.1018 55.8439 20.7932 55.8617L20.7933 55.8618ZM19.533 54.9179C19.1292 53.3317 19.0422 51.6142 19.0422 50.0941V8.62548C19.0422 7.0913 19.1267 5.34036 19.538 3.72947C17.7905 3.7708 16.0431 3.81643 14.2956 3.85771C12.5518 3.89888 10.8073 3.90489 9.06316 3.88081C9.41668 5.4615 9.46241 7.19965 9.46241 8.79132V49.9282C9.46241 51.5437 9.4074 53.2836 9.04279 54.8785C10.8205 54.8665 12.5985 54.8608 14.3763 54.8608C15.8291 54.8608 17.2819 54.8777 18.7346 54.9029C19.0007 54.9075 19.2668 54.9124 19.5329 54.9179H19.533ZM43.8322 51.8169C43.8948 51.7876 43.9573 51.7579 44.0197 51.7281C48.3352 49.6653 51.9252 46.7217 54.4394 42.6081C57.0245 38.3782 58.0395 33.6208 58.0395 28.6962C58.0395 21.6525 56.2988 14.9348 50.8712 10.1305C48.6961 8.2053 46.0988 6.84092 43.3563 5.87606C44.628 7.98369 45.5201 10.334 46.1501 12.7175C47.536 17.9615 47.8814 23.6193 47.8814 29.0281C47.8814 34.4221 47.5248 39.9714 46.2508 45.2252C45.7003 47.4957 44.9263 49.7479 43.8322 51.817V51.8169ZM94.1304 29.7546C94.3184 30.7903 94.3775 31.8575 94.3775 32.8763V55.222C94.7902 55.1818 95.2035 55.1474 95.6171 55.1184C96.6574 55.0455 97.6991 54.9953 98.7415 54.9637C98.5493 53.9318 98.4877 52.868 98.4877 51.849V29.4669C98.098 29.506 97.7079 29.541 97.3176 29.5726C96.2568 29.6582 95.194 29.7175 94.1305 29.7546H94.1304ZM75.23 29.7546C75.418 30.7903 75.477 31.8575 75.477 32.8763V48.9495C75.477 50.3305 75.5092 51.8873 75.8224 53.2349C75.9382 53.7328 76.1406 54.3773 76.4709 54.7775C76.7505 55.1162 77.2822 55.3938 77.6765 55.5656C78.3504 55.8592 79.3483 55.9556 80.1889 55.9827C80.1617 55.9136 80.1357 55.8439 80.1106 55.7736C79.7213 54.6793 79.5872 53.5102 79.5872 52.3533V29.4668C79.1975 29.5059 78.8074 29.541 78.417 29.5725C77.3562 29.6582 76.2935 29.7174 75.2299 29.7546L75.23 29.7546ZM116.301 13.8705C116.489 14.9062 116.548 15.9734 116.548 16.9921V54.5368C117.725 54.3273 118.925 54.257 120.12 54.2918C120.3 54.297 120.479 54.3055 120.658 54.3172V13.5828C120.269 13.6219 119.879 13.6569 119.488 13.6885C118.427 13.7741 117.365 13.8334 116.301 13.8705L116.301 13.8705ZM135.157 54.9886C135.363 54.8995 135.568 54.8043 135.77 54.7028C137.491 53.8387 138.656 52.2683 139.489 50.5697C140.848 47.7998 141.129 43.9954 141.129 40.9444C141.129 37.9198 140.766 33.7109 138.795 31.2771C137.653 29.8666 136.346 28.996 134.641 28.7839C135.306 30.1313 135.688 31.6803 135.952 33.0934C136.517 36.1205 136.579 39.3199 136.579 42.3941C136.579 46.4014 136.394 51.1088 135.157 54.9885V54.9886ZM157.184 29.7546C157.372 30.7903 157.431 31.8575 157.431 32.8763V52.8576C157.431 53.5234 157.402 54.2076 157.317 54.8842C158.333 54.8665 159.349 54.8575 160.365 54.8575C160.835 54.8575 161.305 54.8593 161.775 54.8627C161.604 53.9946 161.541 53.1008 161.541 52.2273V29.4669C161.151 29.506 160.761 29.541 160.371 29.5726C159.31 29.6582 158.248 29.7175 157.184 29.7546H157.184ZM174.65 29.0357L172.877 30.2492C172.351 30.6095 171.913 31.051 171.562 31.5853C171.297 31.9886 171.245 32.66 171.245 33.1284C171.245 33.3824 171.261 33.5386 171.451 33.7081C171.783 34.0047 172.824 34.0569 173.238 34.0569C173.852 34.0569 174.385 33.9497 174.822 33.4934C175.321 32.9731 175.418 32.1795 175.418 31.4896C175.418 30.886 175.301 30.2922 175.108 29.722C175.011 29.4371 174.866 29.2252 174.65 29.0357ZM192.073 54.7375C191.658 53.205 191.427 51.6065 191.266 50.0376C191.005 47.5 190.933 44.944 190.933 42.3942C190.933 39.8421 191.005 37.2837 191.266 34.7438C191.428 33.1654 191.66 31.5584 192.076 30.0168C192.031 30.0366 191.987 30.0567 191.942 30.0771C190.153 30.8976 188.889 32.2137 187.969 33.9448C186.676 36.3786 186.383 39.6749 186.383 42.3942C186.383 45.1136 186.676 48.4099 187.969 50.8437C188.882 52.562 190.136 53.8671 191.919 54.6691C191.97 54.6923 192.022 54.7151 192.073 54.7375ZM205.771 54.7538C205.831 54.7276 205.891 54.701 205.951 54.6739C207.725 53.8688 208.97 52.555 209.88 50.8437C211.173 48.4099 211.466 45.1136 211.466 42.3942C211.466 39.6749 211.173 36.3786 209.88 33.9448C208.964 32.2206 207.708 30.8959 205.928 30.0722C205.875 30.0478 205.822 30.0238 205.769 30.0002C206.188 31.5469 206.421 33.1597 206.583 34.7438C206.844 37.2838 206.916 39.8421 206.916 42.3942C206.916 44.944 206.845 47.5001 206.583 50.0377C206.421 51.6121 206.189 53.2164 205.771 54.7538V54.7538ZM224.542 29.9546L234.36 54.9887C234.575 54.9854 234.789 54.9836 235.004 54.9836C235.171 54.9836 235.339 54.9847 235.507 54.9867L236.92 50.7722L229.74 30.6937L229.688 30.4325C229.658 30.2843 229.632 30.1353 229.61 29.9857C229.262 29.9911 228.915 29.9939 228.568 29.9939C227.226 29.9939 225.884 29.9827 224.542 29.9546ZM264.722 43.0739C266.273 44.476 267.78 45.9341 269.163 47.5051C270.911 49.4916 271.728 51.9247 271.728 54.5594C271.728 54.8015 271.718 55.0425 271.699 55.2816C271.892 55.2119 272.083 55.1364 272.272 55.0549C273.508 54.5231 274.609 53.7757 275.445 52.7074C276.104 51.8653 276.403 50.9646 276.403 49.8951C276.403 49.0162 276.285 48.0694 275.884 47.2774C275.432 46.3865 274.832 45.5898 274.129 44.8838C273.129 43.8801 272.062 42.9434 270.961 42.0533L270.919 42.0193L270.878 41.9841C269.78 41.04 268.658 40.122 267.511 39.2378C266.191 38.2204 264.972 37.0616 263.958 35.7332C262.719 34.1095 262.087 32.2101 262.087 30.1659C262.087 29.9986 262.092 29.8319 262.102 29.6662C261.056 30.1242 260.114 30.7579 259.379 31.6489C258.761 32.3975 258.541 33.2389 258.541 34.2C258.541 35.1592 258.721 36.0804 259.177 36.9293C259.737 37.9708 260.454 38.9108 261.287 39.7471C262.412 40.8765 263.559 41.9838 264.722 43.0739H264.722ZM292.145 13.8705C292.333 14.9062 292.392 15.9734 292.392 16.9922V52.8576C292.392 53.5211 292.363 54.2026 292.278 54.8768C293.085 54.8641 293.891 54.8575 294.698 54.8575C295.337 54.8575 295.975 54.8616 296.614 54.8699C296.53 54.1981 296.502 53.5189 296.502 52.8576V13.5827C296.112 13.6218 295.722 13.6569 295.332 13.6884C294.271 13.7741 293.208 13.8333 292.145 13.8705L292.145 13.8705ZM305.539 42.3686L310.87 53.6797C311.062 54.0718 311.218 54.4827 311.327 54.9042C312.523 54.8733 313.72 54.8576 314.917 54.8576C315.389 54.8576 315.86 54.8607 316.332 54.8671L308.382 39.6997L305.539 42.3686H305.539ZM342.036 55.3491L343.826 50.0021L335.908 31.1256C335.753 30.7559 335.623 30.3723 335.529 29.981C334.897 29.9904 334.266 29.9939 333.634 29.9939C332.617 29.9939 331.599 29.981 330.582 29.9581L342.036 55.3491H342.036ZM330.743 66.3313L332.15 65.8744C332.528 65.7516 333.186 65.4921 333.426 65.1498C333.54 64.9874 333.743 64.6636 333.743 64.4556C333.743 64.3481 333.738 63.9175 333.633 63.8381C333.147 63.4696 332.273 63.401 331.688 63.401C330.957 63.401 330.034 63.4985 329.437 63.9644C329.176 64.1684 329.13 64.3116 329.13 64.6446C329.13 64.9285 329.145 65.2699 329.369 65.4745C329.778 65.8484 330.24 66.1267 330.743 66.3312L330.743 66.3313ZM41.5699 53.7365C42.5356 53.3898 43.4846 52.9969 44.4114 52.5539C48.8868 50.4146 52.609 47.3518 55.2159 43.0864C57.8902 38.7108 58.9506 33.7916 58.9506 28.6964C58.9506 21.3815 57.1053 14.4294 51.4737 9.44468C48.5312 6.84004 44.8632 5.22126 41.0754 4.22361C43.1435 6.72447 44.4413 9.81862 45.2695 12.9521C46.6343 18.1158 46.9704 23.7022 46.9704 29.0281C46.9704 34.347 46.6219 39.8283 45.3657 45.009C44.6175 48.0945 43.4425 51.1632 41.5699 53.7366V53.7365ZM92.9887 28.8716C93.3676 30.1616 93.4664 31.5767 93.4664 32.8763V56.2415C94.2024 56.152 94.9409 56.0825 95.6805 56.0307C97.082 55.9326 98.4862 55.8761 99.8909 55.851C99.5026 54.5637 99.3987 53.152 99.3987 51.8491V28.4474C98.6821 28.5326 97.9637 28.6029 97.2444 28.661C95.8284 28.7754 94.4089 28.842 92.9887 28.8716H92.9887ZM74.0883 28.8716C74.4672 30.1616 74.566 31.5768 74.566 32.8763V48.9496C74.566 50.4076 74.6045 52.02 74.9352 53.4427C75.0868 54.0948 75.3387 54.8393 75.7694 55.3611C76.1521 55.8247 76.7708 56.168 77.3139 56.4046C78.2977 56.8332 79.7328 56.9067 80.7974 56.9067C81.1009 56.9067 81.405 56.8992 81.7088 56.883C81.398 56.4559 81.1513 55.9793 80.9687 55.4661C80.6153 54.473 80.4983 53.4031 80.4983 52.3534V28.4474C79.7817 28.5326 79.0633 28.6029 78.3441 28.661C76.9281 28.7754 75.5085 28.842 74.0883 28.8716ZM115.159 12.9875C115.538 14.2774 115.637 15.6926 115.637 16.9922V55.631C115.637 55.6446 115.637 55.6583 115.637 55.672C117.088 55.2912 118.597 55.1624 120.094 55.2059C120.588 55.2203 121.08 55.2609 121.569 55.3274V12.5632C120.853 12.6484 120.134 12.7188 119.415 12.7769C117.999 12.8912 116.58 12.9578 115.159 12.9875H115.159ZM133.605 56.4805C134.49 56.2545 135.35 55.9363 136.177 55.5208C138.085 54.5634 139.382 52.8592 140.307 50.9737C141.735 48.0614 142.04 44.1537 142.04 40.9445C142.04 37.6733 141.63 33.3281 139.502 30.7003C138.004 28.8512 136.204 27.8188 133.799 27.8188C133.524 27.8188 133.249 27.8263 132.974 27.8426C132.982 27.8516 132.989 27.8606 132.996 27.8696C134.166 29.3182 134.719 31.456 135.057 33.2621C135.611 36.2295 135.668 39.3804 135.668 42.3943C135.668 46.4894 135.476 51.4046 134.099 55.2771C133.954 55.6839 133.79 56.0872 133.605 56.4806V56.4805ZM156.042 28.8716C156.421 30.1616 156.52 31.5767 156.52 32.8763V52.8576C156.52 53.8235 156.458 54.8529 156.224 55.8214C157.604 55.7888 158.985 55.7722 160.365 55.7722C161.23 55.7722 162.095 55.7779 162.96 55.7898C162.572 54.6527 162.452 53.4086 162.452 52.2273V28.4474C161.736 28.5326 161.017 28.6029 160.298 28.661C158.882 28.7754 157.463 28.842 156.042 28.8716ZM174.578 27.9786L172.364 29.4936C171.739 29.921 171.218 30.4482 170.802 31.082C170.424 31.6566 170.334 32.4561 170.334 33.1284C170.334 33.6509 170.45 34.0387 170.846 34.3916C171.401 34.8866 172.53 34.9714 173.238 34.9714C174.108 34.9714 174.862 34.7709 175.478 34.1275C176.157 33.4193 176.329 32.4379 176.329 31.4896C176.329 30.7851 176.196 30.0929 175.97 29.4273C175.802 28.9306 175.521 28.5516 175.109 28.2308C174.962 28.1167 174.771 28.0359 174.578 27.9786ZM193.516 56.2181C193.418 55.9637 193.326 55.7072 193.24 55.4498C192.65 53.6875 192.362 51.7887 192.172 49.9437C191.914 47.4376 191.844 44.9125 191.844 42.3942C191.844 39.8737 191.914 37.3462 192.172 34.8376C192.362 32.9862 192.65 31.0834 193.238 29.3136C193.326 29.0483 193.42 28.7835 193.521 28.5213C192.852 28.7152 192.198 28.9545 191.563 29.2454C189.592 30.1497 188.18 31.6058 187.165 33.5145C185.794 36.0962 185.472 39.5082 185.472 42.3944C185.472 45.2805 185.794 48.6925 187.165 51.2742C188.174 53.1723 189.578 54.6181 191.546 55.5038C192.185 55.7913 192.844 56.0273 193.516 56.2183L193.516 56.2181ZM204.328 56.2316C205.011 56.0398 205.68 55.8009 206.327 55.5072C208.285 54.6182 209.679 53.1644 210.684 51.274C212.055 48.6923 212.377 45.2803 212.377 42.3942C212.377 39.508 212.055 36.096 210.684 33.5143C209.674 31.6132 208.271 30.1494 206.309 29.2416C205.667 28.9444 205.002 28.7022 204.323 28.5075C204.426 28.7743 204.522 29.0436 204.612 29.3136C205.199 31.0834 205.487 32.9862 205.677 34.8375C205.935 37.3461 206.005 39.8736 206.005 42.3942C206.005 44.9124 205.935 47.4376 205.677 49.9437C205.487 51.7887 205.2 53.6874 204.609 55.4498C204.522 55.7116 204.428 55.9728 204.328 56.2315V56.2316ZM223.167 29.0047C223.296 29.2909 223.417 29.5809 223.531 29.8719L233.745 55.918C234.165 55.9047 234.584 55.8981 235.004 55.8981C235.388 55.8981 235.772 55.9037 236.157 55.9148L237.885 50.7625L230.62 30.4482L230.581 30.2531C230.503 29.8596 230.449 29.4564 230.437 29.0529C229.814 29.0702 229.191 29.0793 228.568 29.0793C226.767 29.0793 224.967 29.0591 223.167 29.0046V29.0047ZM264.107 43.748C265.634 45.1283 267.119 46.5638 268.48 48.1106C270.081 49.9294 270.817 52.1482 270.817 54.5595C270.817 55.2462 270.732 55.9243 270.536 56.569C271.252 56.4088 271.953 56.1872 272.631 55.8955C274.009 55.3027 275.23 54.4627 276.161 53.2724C276.947 52.2691 277.314 51.1696 277.314 49.8951C277.314 48.8655 277.165 47.7894 276.696 46.8627C276.201 45.8858 275.544 45.0112 274.773 44.2371C273.75 43.2102 272.659 42.2518 271.533 41.3411L271.501 41.3157L271.471 41.2894C270.36 40.3347 269.226 39.4066 268.066 38.5125C266.81 37.5441 265.646 36.4416 264.681 35.1772C263.564 33.7131 262.998 32.0091 262.998 30.1659C262.998 29.5221 263.08 28.8902 263.253 28.2873C262.824 28.4083 262.401 28.5534 261.986 28.7229C260.708 29.245 259.563 29.9926 258.677 31.0657C257.923 31.9805 257.63 33.0239 257.63 34.2C257.63 35.3122 257.847 36.38 258.376 37.3636C258.978 38.4833 259.747 39.4947 260.643 40.3937C261.777 41.5324 262.934 42.6489 264.107 43.7479L264.107 43.748ZM291.003 12.9875C291.382 14.2774 291.48 15.6926 291.48 16.9922V52.8576C291.48 53.8208 291.419 54.8467 291.187 55.8126C292.357 55.7858 293.527 55.7721 294.698 55.7721C295.7 55.7721 296.702 55.7822 297.704 55.8031C297.474 54.8401 297.413 53.8178 297.413 52.8576V12.5632C296.696 12.6483 295.978 12.7187 295.259 12.7768C293.843 12.8912 292.423 12.9577 291.003 12.9874L291.003 12.9875ZM304.426 42.1614C304.454 42.2145 304.481 42.2679 304.508 42.3217L304.522 42.3487L310.05 54.0773C310.321 54.6293 310.512 55.2292 310.573 55.8407C312.02 55.7952 313.469 55.7721 314.917 55.7721C315.899 55.7721 316.881 55.7859 317.863 55.8139C317.783 55.6677 317.704 55.5208 317.627 55.3732L308.632 38.2128L304.66 41.9411C304.584 42.0166 304.506 42.0901 304.426 42.1614V42.1614ZM312.152 29.31C312.318 29.1684 312.485 29.0284 312.654 28.89C312.55 28.8902 312.446 28.8904 312.342 28.8904C312.221 28.8904 312.1 28.8901 311.978 28.8895C312.041 29.0275 312.099 29.1676 312.152 29.31H312.152ZM342.15 57.8195L342.773 56.0205L344.799 49.9658L336.748 30.7708C336.52 30.2266 336.349 29.6432 336.293 29.0519C335.407 29.0723 334.52 29.0794 333.634 29.0794C332.135 29.0794 330.636 29.0513 329.138 29.0039C329.259 29.2499 329.375 29.4982 329.487 29.7475L342.15 57.8195ZM330.722 67.2994L332.431 66.7445C333.036 66.5481 333.793 66.2147 334.171 65.6766C334.413 65.3309 334.654 64.8895 334.654 64.4555C334.654 63.9681 334.599 63.4241 334.182 63.1083C333.511 62.5992 332.503 62.4865 331.688 62.4865C330.732 62.4865 329.654 62.6366 328.878 63.2424C328.389 63.624 328.219 64.0272 328.219 64.6446C328.219 65.2176 328.317 65.75 328.755 66.1505C329.33 66.6764 329.995 67.0477 330.722 67.2994Z" fill="#503C2F"/>
<path fill-rule="evenodd" clip-rule="evenodd" d="M20.7439 55.6815C20.6914 55.5508 20.6421 55.4179 20.5958 55.2831H7.8891C7.8511 55.3974 7.81015 55.5105 7.76611 55.6222C9.95301 55.6038 12.14 55.5951 14.327 55.5951C15.7746 55.5951 17.2222 55.6119 18.6695 55.637C19.361 55.649 20.0525 55.6637 20.7439 55.6815ZM20.1885 53.6908C20.044 52.897 19.9693 52.0836 19.9334 51.3022H8.47749C8.44812 52.1 8.38624 52.9089 8.26068 53.6908H20.1885H20.1885ZM19.9039 49.7098V47.3212H8.50203V49.7098H19.9039ZM19.9039 45.7288V43.3403H8.50203V45.7288H19.9039ZM19.9039 41.7478V39.3593H8.50203V41.7478H19.9039ZM19.9039 37.7669V35.3783H8.50203V37.7669H19.9039ZM19.9039 33.7859V31.3973H8.50203V33.7859H19.9039ZM19.9039 29.8049V27.4164H8.50203V29.8049H19.9039ZM19.9039 25.8239V23.4354H8.50203V25.8239H19.9039ZM19.9039 21.843V19.4544H8.50203V21.843H19.9039ZM19.9039 17.862V15.4734H8.50203V17.862H19.9039ZM19.9039 13.881V11.4925H8.50203V13.881H19.9039ZM19.9039 9.90003V8.44505C19.9039 8.14452 19.9072 7.83197 19.916 7.51149H8.49199C8.49978 7.88455 8.50203 8.25254 8.50203 8.61094V9.90003H19.9039ZM20.0112 5.91906C20.0894 5.11375 20.2209 4.2994 20.4372 3.53052H8.03503C8.23449 4.2881 8.34979 5.10002 8.41589 5.91906H20.0113H20.0112ZM334.013 65.6334C334.052 65.5892 334.088 65.5435 334.121 65.4961C334.364 65.1505 334.604 64.7091 334.604 64.2751C334.604 63.9257 334.576 63.5475 334.407 63.2449H328.62C328.29 63.5761 328.17 63.9441 328.17 64.4642C328.17 64.8886 328.224 65.2907 328.429 65.6334H334.013H334.013ZM342.101 57.639L342.723 55.84L342.91 55.283H341.038L342.101 57.6391V57.639ZM343.443 53.6905L344.242 51.302H339.242L340.32 53.6905H343.443ZM344.718 49.7096L343.716 47.321H337.446L338.524 49.7096H344.718ZM343.048 45.7286L342.046 43.34H335.651L336.728 45.7286H343.048ZM341.378 41.7476L340.377 39.3591H333.855L334.932 41.7476H341.378ZM339.709 37.7666L338.707 35.3781H332.059L333.136 37.7666H339.709ZM338.039 33.7857L337.037 31.3971H330.263L331.341 33.7857H338.039ZM336.422 29.8047C336.336 29.499 336.273 29.1863 336.243 28.8714C335.357 28.8917 334.471 28.8989 333.585 28.8989C332.086 28.8989 330.587 28.8707 329.088 28.8233C329.209 29.0693 329.325 29.3177 329.437 29.5669L329.545 29.8047H336.422ZM312.102 29.1294C312.269 28.9878 312.436 28.8478 312.605 28.7094C312.501 28.7096 312.397 28.7098 312.293 28.7098C312.172 28.7098 312.05 28.7095 311.929 28.7089C311.992 28.8469 312.05 28.987 312.102 29.1294H312.102ZM305.025 43.34L306.15 45.7285H312.617L311.365 43.34H305.025ZM306.901 47.321L308.027 49.7095H314.703L313.452 47.321H306.901ZM308.777 51.3019L309.903 53.6905H316.79L315.538 51.3019H308.777H308.777ZM310.469 55.2829C310.493 55.408 310.511 55.5338 310.523 55.6602C311.971 55.6147 313.419 55.5916 314.868 55.5916C315.85 55.5916 316.832 55.6054 317.814 55.6334C317.75 55.517 317.687 55.4001 317.625 55.2829H310.469ZM310.53 41.7476L309.278 39.3591H307.17L304.625 41.7476H310.53H310.53ZM290.953 12.8069C291.056 13.1573 291.139 13.5169 291.204 13.8809H297.364V12.3827C296.647 12.4679 295.928 12.5382 295.209 12.5963C293.793 12.7107 292.374 12.7773 290.953 12.8069ZM291.391 15.4733C291.42 15.9264 291.431 16.3755 291.431 16.8116V17.8618H297.364V15.4733H291.391ZM291.431 19.4543V21.8428H297.364V19.4543H291.431ZM291.431 23.4352V25.8238H297.364V23.4352H291.431ZM291.431 27.4162V29.8047H297.364V27.4162H291.431ZM291.431 31.3972V33.7857H297.364V31.3972H291.431ZM291.431 35.3782V37.7667H297.364V35.3782H291.431ZM291.431 39.3591V41.7477H297.364V39.3591H291.431ZM291.431 43.3401V45.7286H297.364V43.3401H291.431ZM291.431 47.3211V49.7096H297.364V47.3211H291.431ZM291.431 51.3021V52.6772C291.431 53.0092 291.424 53.3487 291.405 53.6906H297.39C297.371 53.3487 297.364 53.0092 297.364 52.6772V51.3021H291.431ZM291.213 55.283C291.19 55.4001 291.165 55.5166 291.137 55.6322C292.308 55.6054 293.478 55.5917 294.648 55.5917C295.651 55.5917 296.653 55.6018 297.655 55.6227C297.628 55.5102 297.604 55.3969 297.581 55.283H291.213ZM264.057 43.5676C264.836 44.2712 265.603 44.9891 266.349 45.7287H276.092C275.695 45.1269 275.235 44.5697 274.724 44.0567C274.482 43.8142 274.236 43.5754 273.988 43.3402H263.815L264.057 43.5676ZM267.883 47.3211C268.068 47.5223 268.251 47.7253 268.431 47.9302C268.921 48.4878 269.331 49.0829 269.663 49.7097H277.265C277.265 48.9108 277.174 48.0841 276.914 47.3211H267.883ZM270.322 51.3021C270.558 52.0669 270.698 52.8659 270.747 53.6906H275.592C275.774 53.5017 275.947 53.3024 276.112 53.0921C276.552 52.5302 276.861 51.9382 277.047 51.3021H270.322ZM270.715 55.2831C270.671 55.6591 270.596 56.0291 270.487 56.3886C271.203 56.2284 271.904 56.0068 272.582 55.7151C272.888 55.5837 273.185 55.44 273.474 55.283H270.715L270.715 55.2831ZM272.196 41.7478C271.96 41.5498 271.723 41.3542 271.484 41.1607L271.452 41.1354L271.422 41.1091C270.73 40.5149 270.03 39.931 269.32 39.3592H259.81C260.059 39.6543 260.32 39.9391 260.594 40.2133C261.108 40.7292 261.626 41.2405 262.149 41.7477H272.196L272.196 41.7478ZM267.313 37.7668C266.451 37.0439 265.645 36.251 264.933 35.3783H257.7C257.815 36.0035 258.017 36.6078 258.326 37.1833C258.433 37.3812 258.545 37.5757 258.661 37.7668H267.313ZM263.861 33.7858C263.47 33.0341 263.204 32.2343 263.064 31.3973H258.261C257.817 32.1199 257.615 32.9155 257.585 33.7858H263.861H263.861ZM262.951 29.8049C262.965 29.2235 263.047 28.6533 263.204 28.1069C262.775 28.228 262.351 28.373 261.936 28.5425C261.14 28.8677 260.396 29.2805 259.734 29.8049H262.951ZM223.118 28.8243C223.247 29.1104 223.368 29.4005 223.482 29.6915L223.526 29.8048H230.483C230.432 29.4971 230.397 29.1849 230.388 28.8726C229.765 28.8898 229.142 28.899 228.518 28.899C226.718 28.899 224.917 28.8787 223.118 28.8242V28.8243ZM224.151 31.3972L225.087 33.7858H231.829L230.975 31.3972H224.151ZM225.712 35.3782L226.649 37.7668H233.252L232.398 35.3782H225.712ZM227.273 39.3592L228.21 41.7477H234.676L233.822 39.3592H227.273ZM228.834 43.3402L229.771 45.7287H236.1L235.246 43.3402H228.834ZM230.395 47.3211L231.332 49.7097H237.523L236.669 47.3211H230.395ZM231.957 51.3021L232.893 53.6906H236.793L237.594 51.3021H231.957ZM233.518 55.2831L233.696 55.7377C234.115 55.7244 234.535 55.7178 234.954 55.7178C235.339 55.7178 235.723 55.7234 236.107 55.7345L236.259 55.2831H233.518ZM204.279 56.0512C204.961 55.8595 205.63 55.6205 206.277 55.3269C206.309 55.3125 206.341 55.2979 206.372 55.2831H204.556C204.469 55.5403 204.377 55.7969 204.279 56.0512ZM208.706 53.6907C209.418 53.0094 210.017 52.2083 210.521 51.3022H205.443C205.332 52.1032 205.191 52.9045 205.006 53.6907H208.706H208.706ZM211.247 49.7097C211.526 48.9482 211.738 48.1432 211.897 47.3212H205.823C205.776 48.1187 205.714 48.9152 205.633 49.7097H211.247H211.247ZM212.14 45.7288C212.234 44.9246 212.286 44.1205 212.311 43.3402H205.951C205.943 44.1364 205.927 44.9328 205.899 45.7288H212.14H212.14ZM212.325 41.7478C212.315 40.9747 212.281 40.1703 212.208 39.3592H205.919C205.942 40.1554 205.952 40.9519 205.955 41.7478H212.325ZM212.013 37.7668C211.883 36.9527 211.707 36.1481 211.469 35.3783H205.697C205.767 36.1731 205.82 36.9695 205.859 37.7668H212.013ZM210.86 33.7858C210.788 33.6327 210.713 33.4819 210.634 33.334C210.258 32.6256 209.827 31.9781 209.333 31.3973H205.154C205.314 32.188 205.434 32.989 205.531 33.7858H210.86ZM207.571 29.8049C207.164 29.5264 206.728 29.278 206.26 29.0612C205.617 28.764 204.952 28.5218 204.274 28.3271C204.377 28.5939 204.473 28.8632 204.562 29.1332C204.636 29.3551 204.705 29.5791 204.77 29.8049H207.571ZM193.467 56.0377C193.37 55.7879 193.28 55.5358 193.195 55.283H191.408C191.438 55.2965 191.467 55.31 191.497 55.3233C192.136 55.6107 192.795 55.8468 193.467 56.0377ZM192.745 53.6906C192.559 52.9044 192.419 52.1031 192.307 51.3021H187.23C187.735 52.2108 188.337 53.0112 189.053 53.6906H192.745H192.745ZM192.117 49.7097C192.036 48.9151 191.974 48.1187 191.927 47.3211H185.854C186.013 48.1432 186.224 48.9482 186.503 49.7097H192.117H192.117ZM191.852 45.7287C191.823 44.9328 191.807 44.1363 191.8 43.3402H185.44C185.464 44.1204 185.517 44.9245 185.61 45.7287H191.852H191.852ZM191.795 41.7477C191.798 40.9518 191.809 40.1553 191.831 39.3592H185.542C185.47 40.1703 185.435 40.9747 185.426 41.7477H191.795ZM191.891 37.7668C191.93 36.9695 191.983 36.173 192.054 35.3782H186.281C186.044 36.1481 185.867 36.9527 185.738 37.7668H191.891ZM192.22 33.7858C192.316 32.9889 192.436 32.1879 192.596 31.3972H188.421C187.926 31.9768 187.493 32.624 187.116 33.334C187.038 33.4819 186.963 33.6327 186.891 33.7858H192.22H192.22ZM192.981 29.8048C193.046 29.5791 193.115 29.3551 193.188 29.1331C193.276 28.8678 193.37 28.6031 193.471 28.3408C192.803 28.5347 192.148 28.774 191.514 29.0649C191.044 29.2806 190.605 29.5277 190.197 29.8049H192.981L192.981 29.8048ZM174.528 27.7981L172.315 29.3131C172.093 29.4644 171.885 29.6282 171.69 29.8047H176.086C176.039 29.6169 175.983 29.4308 175.921 29.2468C175.752 28.7501 175.472 28.3711 175.06 28.0503C174.913 27.9362 174.722 27.8554 174.528 27.7981ZM170.51 31.3972C170.333 31.8894 170.285 32.4531 170.285 32.948C170.285 33.2709 170.329 33.5422 170.456 33.7858H175.571C176.113 33.1171 176.27 32.2477 176.279 31.3972H170.51V31.3972ZM155.993 28.6911C156.099 29.0542 156.184 29.4272 156.25 29.8048H162.403V28.2669C161.686 28.3521 160.968 28.4225 160.248 28.4805C158.832 28.5949 157.413 28.6615 155.993 28.6911ZM156.433 31.3972C156.46 31.8368 156.47 32.2724 156.47 32.6959V33.7857H162.403V31.3972H156.433ZM156.47 35.3782V37.7667H162.403V35.3782H156.47ZM156.47 39.3591V41.7477H162.403V39.3591H156.47ZM156.47 43.3401V45.7286H162.403V43.3401H156.47ZM156.47 47.3211V49.7096H162.403V47.3211H156.47ZM156.47 51.3021V52.6772C156.47 53.0092 156.463 53.3487 156.444 53.6906H162.492C162.428 53.1403 162.403 52.5871 162.403 52.0469V51.3021H156.47H156.47ZM156.253 55.283C156.229 55.4031 156.203 55.5225 156.175 55.6409C157.555 55.6084 158.935 55.5917 160.316 55.5917C161.181 55.5917 162.046 55.5974 162.911 55.6094C162.874 55.5015 162.84 55.3927 162.808 55.283H156.253ZM133.556 56.3001C134.441 56.0741 135.3 55.7558 136.128 55.3404C136.165 55.3216 136.203 55.3024 136.24 55.283H133.981C133.854 55.6265 133.712 55.9668 133.556 56.3L133.556 56.3001ZM138.312 53.6906C138.976 52.9845 139.529 52.1689 139.996 51.3021H135.009C134.869 52.1192 134.697 52.9195 134.487 53.6906H138.312ZM140.722 49.7096C141.006 48.9519 141.23 48.1478 141.405 47.3211H135.468C135.414 48.1181 135.34 48.9178 135.243 49.7096H140.722ZM141.682 45.7286C141.794 44.9321 141.868 44.1292 141.916 43.3401H135.613C135.605 44.1181 135.588 44.9182 135.555 45.7286H141.682ZM141.98 41.7477C141.987 41.4139 141.99 41.0854 141.99 40.764C141.99 40.3137 141.982 39.8429 141.963 39.3591H135.588C135.609 40.1598 135.616 40.9578 135.618 41.7477H141.98H141.98ZM141.86 37.7667C141.786 36.9741 141.675 36.1684 141.515 35.3782H135.341C135.427 36.1693 135.486 36.9674 135.528 37.7667H141.86ZM141.11 33.7857C140.844 32.9313 140.502 32.1215 140.065 31.3972H134.635C134.786 31.9701 134.906 32.5407 135.007 33.0816C135.051 33.3152 135.091 33.55 135.129 33.7857H141.11ZM138.817 29.8047C137.449 28.4066 135.824 27.6383 133.75 27.6383C133.475 27.6383 133.2 27.6458 132.925 27.6621C132.932 27.671 132.939 27.68 132.947 27.6891C133.438 28.2978 133.821 29.0283 134.125 29.8047H138.817ZM115.11 12.8069C115.213 13.1573 115.295 13.5169 115.36 13.8809H121.52V12.3827C120.803 12.4679 120.085 12.5382 119.366 12.5963C117.95 12.7107 116.53 12.7773 115.11 12.8069ZM115.547 15.4733C115.576 15.9264 115.588 16.3755 115.588 16.8116V17.8618H121.52V15.4733H115.547ZM115.588 19.4543V21.8428H121.52V19.4543H115.588ZM115.588 23.4352V25.8238H121.52V23.4352H115.588ZM115.588 27.4162V29.8047H121.52V27.4162H115.588ZM115.588 31.3972V33.7857H121.52V31.3972H115.588ZM115.588 35.3782V37.7667H121.52V35.3782H115.588ZM115.588 39.3591V41.7477H121.52V39.3591H115.588ZM115.588 43.3401V45.7286H121.52V43.3401H115.588ZM115.588 47.3211V49.7096H121.52V47.3211H115.588ZM115.588 51.3021V53.6906H121.52V51.3021H115.588ZM115.588 55.283V55.4506C115.588 55.4642 115.588 55.478 115.588 55.4916C115.895 55.4111 116.204 55.3418 116.516 55.283H115.588V55.283ZM74.0388 28.6912C74.1455 29.0543 74.2299 29.4273 74.2962 29.8049H80.4488V28.267C79.7322 28.3521 79.0139 28.4225 78.2946 28.4806C76.8786 28.595 75.4591 28.6615 74.0388 28.6912ZM74.4787 31.3972C74.5059 31.8369 74.5165 32.2725 74.5165 32.6959V33.7858H80.4488V31.3972H74.4787ZM74.5165 35.3782V37.7668H80.4488V35.3782H74.5165ZM74.5165 39.3592V41.7477H80.4488V39.3592H74.5165ZM74.5165 43.3402V45.7287H80.4488V43.3402H74.5165ZM74.5165 47.3211V48.7692C74.5165 49.0769 74.5182 49.3915 74.524 49.7097H80.4488V47.3211H74.5165ZM74.5972 51.3021C74.6512 51.9727 74.7402 52.636 74.8858 53.2624C74.9182 53.402 74.9553 53.5458 74.9977 53.6906H80.5433C80.4759 53.1873 80.4488 52.6778 80.4488 52.173V51.3021H74.5972ZM75.81 55.2831C76.1951 55.6953 76.7621 56.0054 77.2644 56.2242C78.2482 56.6528 79.6834 56.7263 80.7479 56.7263C81.0514 56.7263 81.3555 56.7188 81.6593 56.7026C81.3485 56.2755 81.1018 55.7989 80.9192 55.2857L80.9182 55.283H75.8099L75.81 55.2831ZM92.9393 28.6912C93.046 29.0543 93.1304 29.4273 93.1967 29.8049H99.3494V28.267C98.6328 28.3522 97.9144 28.4226 97.1951 28.4807C95.7791 28.595 94.3595 28.6616 92.9393 28.6912ZM93.3793 31.3973C93.4065 31.8369 93.417 32.2725 93.417 32.696V33.7858H99.3494V31.3973H93.3793ZM93.417 35.3783V37.7668H99.3494V35.3783H93.417ZM93.417 39.3592V41.7478H99.3494V39.3592H93.417ZM93.417 43.3402V45.7288H99.3494V43.3402H93.417ZM93.417 47.3212V49.7097H99.3494V47.3212H93.417ZM93.417 51.3022V53.6907H99.4515C99.3758 53.009 99.3494 52.3251 99.3494 51.6688V51.3022H93.417ZM93.417 55.2831V56.0612C94.1531 55.9718 94.8916 55.9023 95.6312 55.8505C97.0327 55.7523 98.4369 55.6958 99.8415 55.6707C99.8029 55.5427 99.7671 55.4134 99.7339 55.2831H93.417ZM41.5205 53.5562C42.4862 53.2095 43.4352 52.8166 44.3621 52.3736C45.0613 52.0393 45.7421 51.6825 46.4031 51.3022H42.9279C42.5089 52.085 42.0418 52.8398 41.5205 53.5562H41.5205ZM48.86 49.7097C49.8575 48.9825 50.7971 48.1878 51.6725 47.3212H44.6094C44.3434 48.1308 44.042 48.9299 43.7001 49.7097H48.86ZM53.1391 45.7288C53.7671 44.9796 54.3532 44.1841 54.8945 43.3402H45.651C45.5474 43.8388 45.436 44.3351 45.3163 44.8286C45.2434 45.129 45.1665 45.4291 45.0854 45.7288H53.1391ZM55.8301 41.7478C56.2492 40.9666 56.6204 40.1697 56.9468 39.3592H46.3177C46.2135 40.1591 46.0932 40.9558 45.955 41.7478H55.8301ZM57.5256 37.7668C57.7813 36.9812 57.9981 36.1845 58.1788 35.3783H46.711C46.6554 36.1755 46.5869 36.9722 46.5041 37.7668H57.5256ZM58.4875 33.7858C58.6173 32.9969 58.7149 32.2003 58.7826 31.3973H46.8922C46.8737 32.192 46.8455 32.9887 46.8059 33.7858H58.4875ZM58.8779 29.8049C58.8935 29.3766 58.9012 28.9469 58.9012 28.5159C58.9012 28.1484 58.8963 27.7818 58.8867 27.4163H46.9124C46.9182 27.8951 46.9209 28.3725 46.9209 28.8477C46.9209 29.1662 46.9197 29.4853 46.917 29.8049H58.8779L58.8779 29.8049ZM58.8129 25.8239C58.7587 25.0199 58.6785 24.223 58.5696 23.4353H46.7818C46.8263 24.2329 46.8587 25.0299 46.8809 25.8239H58.8129ZM58.3069 21.8429C58.1511 21.0341 57.9617 20.2371 57.7361 19.4544H46.4471C46.5386 20.2483 46.6141 21.0452 46.676 21.8429H58.3069ZM57.2185 17.8619C56.922 17.0463 56.5812 16.2492 56.1928 15.4734H45.8372C45.9913 16.2635 46.1248 17.0605 46.2405 17.8619H57.2185ZM55.308 13.881C54.8001 13.0541 54.2298 12.2565 53.5917 11.4924H44.854C44.9853 11.9171 45.1071 12.344 45.2201 12.7715C45.3173 13.1392 45.4091 13.5092 45.4961 13.881H55.308ZM52.1105 9.89998C51.8881 9.68476 51.6598 9.47258 51.4243 9.26414C50.6985 8.62169 49.9285 8.03937 49.1236 7.51144H43.2688C43.66 8.28572 44.0054 9.08535 44.311 9.89998H52.1105ZM46.2662 5.919C44.5894 5.1283 42.8212 4.51583 41.0261 4.04301C41.5175 4.6373 41.9654 5.26514 42.3738 5.919H46.2662Z" fill="#503C2F"/>
</svg>
