<svg width="402" height="48" viewBox="0 0 402 48" fill="none" xmlns="http://www.w3.org/2000/svg">
<path d="M20.903 1.688C29.607 1.688 36.0497 3.608 40.231 7.44799C44.455 11.2453 46.567 16.7067 46.567 23.832C46.567 28.4827 45.5217 32.5573 43.431 36.056C41.383 39.512 38.3963 42.2 34.471 44.12C30.5457 46.04 25.831 47 20.327 47C19.6443 47 18.7483 46.9787 17.639 46.936C16.5297 46.8933 15.3563 46.872 14.119 46.872C12.9243 46.8293 11.8363 46.808 10.855 46.808C8.84968 46.808 6.88701 46.8293 4.96701 46.872C3.04701 46.872 1.51101 46.9147 0.359009 47V45.72C1.68168 45.6347 2.66301 45.464 3.30301 45.208C3.98568 44.952 4.43368 44.44 4.64701 43.672C4.90301 42.904 5.03101 41.752 5.03101 40.216V8.47199C5.03101 6.89333 4.90301 5.74133 4.64701 5.016C4.43368 4.24799 3.98568 3.73599 3.30301 3.48C2.66301 3.18133 1.68168 3.01066 0.359009 2.96799V1.688C1.51101 1.73066 3.04701 1.79466 4.96701 1.87999C6.88701 1.92266 8.80701 1.92266 10.727 1.87999C12.263 1.83733 14.0123 1.79466 15.975 1.752C17.9377 1.70933 19.5803 1.688 20.903 1.688ZM21.351 2.83999C19.3883 2.83999 18.1083 3.20266 17.511 3.92799C16.9137 4.65333 16.615 6.12533 16.615 8.34399V40.344C16.615 42.5627 16.9137 44.0347 17.511 44.76C18.151 45.4853 19.4523 45.848 21.415 45.848C24.6577 45.848 27.239 45.016 29.159 43.352C31.079 41.6453 32.4443 39.1707 33.255 35.928C34.1083 32.6853 34.535 28.7387 34.535 24.088C34.535 19.3093 34.087 15.3627 33.191 12.248C32.295 9.09066 30.8657 6.74399 28.903 5.20799C26.983 3.62933 24.4657 2.83999 21.351 2.83999Z" fill="#2f2f2f"/>
<path d="M92.014 1.688V2.96799C90.6913 3.18133 89.6887 3.58666 89.006 4.18399C88.3233 4.78133 87.8753 5.69866 87.662 6.93599C87.4487 8.17333 87.342 9.92266 87.342 12.184V28.376C87.342 31.1067 87.15 33.624 86.766 35.928C86.4247 38.232 85.742 40.2373 84.718 41.944C83.6087 43.7787 81.966 45.2293 79.79 46.296C77.614 47.3627 74.798 47.896 71.342 47.896C69.3793 47.896 67.3313 47.6613 65.198 47.192C63.1073 46.7653 61.23 45.9547 59.566 44.76C58.158 43.6507 57.07 42.3493 56.302 40.856C55.5767 39.3627 55.086 37.6133 54.83 35.608C54.574 33.56 54.446 31.2133 54.446 28.568V8.47199C54.446 6.89333 54.318 5.74133 54.062 5.016C53.8487 4.24799 53.4007 3.73599 52.718 3.48C52.078 3.18133 51.0967 3.01066 49.774 2.96799V1.688C50.926 1.73066 52.462 1.77333 54.382 1.81599C56.302 1.85866 58.3073 1.87999 60.398 1.87999C62.4887 1.87999 64.494 1.85866 66.414 1.81599C68.334 1.77333 69.934 1.73066 71.214 1.688V2.96799C69.7633 3.01066 68.654 3.18133 67.886 3.48C67.1607 3.73599 66.67 4.24799 66.414 5.016C66.158 5.74133 66.03 6.89333 66.03 8.47199V33.624C66.03 35.7147 66.1793 37.528 66.478 39.064C66.8193 40.6 67.31 41.8587 67.95 42.84C68.6327 43.8213 69.5073 44.5467 70.574 45.016C71.6407 45.4427 72.9207 45.656 74.414 45.656C77.358 45.656 79.662 44.9733 81.326 43.608C82.99 42.2 84.1633 40.2373 84.846 37.72C85.5287 35.2027 85.87 32.3227 85.87 29.08V13.208C85.87 10.6053 85.742 8.62133 85.486 7.25599C85.23 5.84799 84.654 4.84533 83.758 4.24799C82.862 3.60799 81.454 3.18133 79.534 2.96799V1.688C80.3447 1.73066 81.4113 1.77333 82.734 1.81599C84.0993 1.85866 85.3793 1.87999 86.574 1.87999C87.5553 1.87999 88.5367 1.85866 89.518 1.81599C90.542 1.77333 91.374 1.73066 92.014 1.688Z" fill="#2f2f2f"/>
<path d="M94.984 1.688C96.136 1.73066 97.672 1.77333 99.592 1.81599C101.512 1.85866 103.432 1.87999 105.352 1.87999C107.443 1.87999 109.448 1.85866 111.368 1.81599C113.331 1.77333 114.717 1.752 115.528 1.752C121.075 1.752 125.213 2.69066 127.944 4.56799C130.717 6.44533 132.104 8.856 132.104 11.8C132.104 13.2933 131.613 14.8293 130.632 16.408C129.651 17.944 128.136 19.3307 126.088 20.568C124.083 21.7627 121.501 22.5947 118.344 23.064V23.192C122.525 23.448 125.853 24.1733 128.328 25.368C130.845 26.52 132.659 27.9067 133.768 29.528C134.877 31.1493 135.432 32.8347 135.432 34.584C135.432 37.3573 134.685 39.6613 133.192 41.496C131.741 43.3307 129.629 44.7173 126.856 45.656C124.125 46.552 120.84 47 117 47C115.976 47 114.483 46.9787 112.52 46.936C110.557 46.8507 108.211 46.808 105.48 46.808C103.475 46.808 101.512 46.8293 99.592 46.872C97.672 46.872 96.136 46.9147 94.984 47V45.72C96.3067 45.6347 97.288 45.464 97.928 45.208C98.6107 44.952 99.0587 44.44 99.272 43.672C99.528 42.904 99.656 41.752 99.656 40.216V8.47199C99.656 6.89333 99.528 5.74133 99.272 5.016C99.0587 4.24799 98.6107 3.73599 97.928 3.48C97.288 3.18133 96.3067 3.01066 94.984 2.96799V1.688ZM114.952 2.96799C113.416 2.96799 112.413 3.33066 111.944 4.056C111.475 4.78133 111.24 6.25333 111.24 8.47199V40.216C111.24 41.7093 111.347 42.84 111.56 43.608C111.816 44.376 112.243 44.888 112.84 45.144C113.437 45.4 114.333 45.528 115.528 45.528C118.259 45.528 120.243 44.568 121.48 42.648C122.76 40.6853 123.4 37.912 123.4 34.328C123.4 31.0427 122.589 28.504 120.968 26.712C119.389 24.92 116.744 24.024 113.032 24.024H107.976C107.976 24.024 107.976 23.8533 107.976 23.512C107.976 23.128 107.976 22.936 107.976 22.936H113.48C115.315 22.936 116.723 22.4667 117.704 21.528C118.685 20.5467 119.368 19.2667 119.752 17.688C120.136 16.0667 120.328 14.3387 120.328 12.504C120.328 9.34666 119.901 6.97866 119.048 5.39999C118.237 3.77866 116.872 2.96799 114.952 2.96799Z" fill="#2f2f2f"/>
<path d="M138.984 1.688C140.136 1.73066 141.672 1.77333 143.592 1.81599C145.512 1.85866 147.432 1.87999 149.352 1.87999C151.443 1.87999 153.448 1.85866 155.368 1.81599C157.331 1.77333 158.717 1.752 159.528 1.752C163.709 1.752 167.144 2.17866 169.832 3.03199C172.563 3.88533 174.611 5.14399 175.976 6.80799C177.341 8.42933 178.024 10.456 178.024 12.888C178.024 14.424 177.704 15.9387 177.064 17.432C176.467 18.8827 175.421 20.2267 173.928 21.464C172.477 22.7013 170.451 23.6827 167.848 24.408C165.288 25.1333 162.045 25.496 158.12 25.496H151.976V24.216H157.48C159.827 24.216 161.597 23.7467 162.792 22.808C164.029 21.8267 164.861 20.5467 165.288 18.968C165.757 17.3467 165.992 15.5547 165.992 13.592C165.992 10.2213 165.459 7.61866 164.392 5.78399C163.325 3.90666 161.512 2.96799 158.952 2.96799C157.373 2.96799 156.349 3.33066 155.88 4.056C155.453 4.78133 155.24 6.25333 155.24 8.47199V40.216C155.24 41.752 155.347 42.904 155.56 43.672C155.816 44.44 156.264 44.952 156.904 45.208C157.587 45.464 158.589 45.6347 159.912 45.72V47C158.717 46.9147 157.181 46.872 155.304 46.872C153.469 46.8293 151.613 46.808 149.736 46.808C147.56 46.808 145.512 46.8293 143.592 46.872C141.672 46.872 140.136 46.9147 138.984 47V45.72C140.307 45.6347 141.288 45.464 141.928 45.208C142.611 44.952 143.059 44.44 143.272 43.672C143.528 42.904 143.656 41.752 143.656 40.216V8.47199C143.656 6.89333 143.528 5.74133 143.272 5.016C143.059 4.24799 142.611 3.73599 141.928 3.48C141.288 3.18133 140.307 3.01066 138.984 2.96799V1.688ZM151.72 24.408C153.384 24.4507 154.899 24.536 156.264 24.664C157.629 24.792 158.845 24.92 159.912 25.048C161.021 25.1333 161.981 25.1973 162.792 25.24C167.016 25.496 170.152 26.3067 172.2 27.672C174.291 28.9947 175.613 30.9787 176.168 33.624L177.512 40.28C177.896 41.9013 178.301 43.0533 178.728 43.736C179.155 44.376 179.752 44.6747 180.52 44.632C180.989 44.632 181.395 44.5467 181.736 44.376C182.077 44.1627 182.419 43.864 182.76 43.48L183.656 44.312C182.419 45.6347 181.075 46.552 179.624 47.064C178.173 47.6187 176.488 47.896 174.568 47.896C172.051 47.896 169.981 47.4053 168.36 46.424C166.781 45.4427 165.779 43.6293 165.352 40.984L164.264 34.584C164.008 32.8347 163.667 31.2773 163.24 29.912C162.856 28.5467 162.323 27.48 161.64 26.712C160.957 25.9013 159.997 25.496 158.76 25.496H151.848L151.72 24.408Z" fill="#2f2f2f"/>
<path d="M208.108 0.791992C212.801 0.791992 216.897 1.70933 220.396 3.54399C223.894 5.37866 226.604 8.02399 228.524 11.48C230.486 14.8933 231.468 19.0533 231.468 23.96C231.468 28.7387 230.465 32.92 228.46 36.504C226.497 40.088 223.745 42.8827 220.204 44.888C216.662 46.8933 212.609 47.896 208.044 47.896C203.393 47.896 199.297 46.9787 195.756 45.144C192.257 43.3093 189.526 40.664 187.564 37.208C185.644 33.752 184.684 29.592 184.684 24.728C184.684 19.9493 185.686 15.768 187.692 12.184C189.74 8.59999 192.513 5.80533 196.012 3.8C199.51 1.79466 203.542 0.791992 208.108 0.791992ZM207.852 1.94399C205.59 1.94399 203.628 2.90399 201.964 4.82399C200.3 6.74399 198.998 9.38933 198.06 12.76C197.164 16.1307 196.716 20.0347 196.716 24.472C196.716 28.9947 197.228 32.9413 198.252 36.312C199.318 39.64 200.726 42.2213 202.476 44.056C204.225 45.848 206.166 46.744 208.3 46.744C210.561 46.744 212.524 45.784 214.188 43.864C215.894 41.944 217.196 39.2987 218.092 35.928C218.988 32.5147 219.436 28.6107 219.436 24.216C219.436 19.6507 218.924 15.704 217.9 12.376C216.876 9.048 215.468 6.488 213.676 4.696C211.926 2.86133 209.985 1.94399 207.852 1.94399Z" fill="#2f2f2f"/>
<path d="M276.661 1.688V2.96799C275.723 3.39466 274.699 4.24799 273.59 5.528C272.48 6.76533 271.478 8.664 270.582 11.224L257.59 47.064C257.163 47.0213 256.694 47 256.182 47C255.712 46.9573 255.243 46.936 254.774 46.936C254.304 46.936 253.814 46.9573 253.302 47C252.832 47 252.384 47.0213 251.958 47.064L235.446 7.064C234.848 5.52799 234.187 4.48266 233.462 3.92799C232.779 3.33066 232.139 3.01066 231.542 2.96799V1.688C232.95 1.73066 234.592 1.77333 236.47 1.81599C238.39 1.85866 240.31 1.87999 242.23 1.87999C244.32 1.87999 246.262 1.85866 248.054 1.81599C249.888 1.77333 251.36 1.73066 252.47 1.688V2.96799C251.104 3.01066 250.038 3.15999 249.27 3.41599C248.544 3.67199 248.118 4.184 247.99 4.952C247.904 5.67733 248.16 6.80799 248.758 8.34399L260.342 37.336L258.934 39.128L266.997 16.984C268.235 13.528 268.875 10.7973 268.918 8.792C268.96 6.74399 268.512 5.27199 267.574 4.376C266.635 3.47999 265.312 3.01066 263.605 2.96799V1.688C265.141 1.73066 266.528 1.77333 267.766 1.81599C269.046 1.85866 270.39 1.87999 271.798 1.87999C272.694 1.87999 273.568 1.85866 274.422 1.81599C275.275 1.77333 276.021 1.73066 276.661 1.688Z" fill="#2f2f2f"/>
<path d="M294.627 0.855995C297.272 0.855995 299.32 1.13333 300.771 1.688C302.222 2.19999 303.459 2.75466 304.483 3.35199C304.995 3.65066 305.4 3.88533 305.699 4.056C306.04 4.18399 306.36 4.24799 306.659 4.24799C307.086 4.24799 307.384 4.01333 307.555 3.54399C307.768 3.07466 307.939 2.37066 308.067 1.432H309.539C309.496 2.28533 309.432 3.28799 309.347 4.43999C309.304 5.592 309.262 7.12799 309.219 9.04799C309.219 10.9253 309.219 13.4213 309.219 16.536H307.747C307.576 14.232 307.043 12.0133 306.147 9.87999C305.251 7.74666 304.014 5.97599 302.435 4.56799C300.899 3.15999 299 2.45599 296.739 2.45599C294.776 2.45599 293.155 3.01066 291.875 4.12C290.595 5.18666 289.955 6.72266 289.955 8.72799C289.955 10.3493 290.36 11.7573 291.171 12.952C291.982 14.104 293.198 15.2773 294.819 16.472C296.483 17.6667 298.574 19.1387 301.091 20.888C303.096 22.2107 304.888 23.5333 306.467 24.856C308.046 26.1787 309.304 27.672 310.243 29.336C311.224 31 311.715 33.0053 311.715 35.352C311.715 38.168 310.947 40.5147 309.411 42.392C307.875 44.2267 305.848 45.6133 303.331 46.552C300.814 47.448 298.062 47.896 295.075 47.896C292.302 47.896 290.083 47.64 288.419 47.128C286.798 46.616 285.411 46.0827 284.259 45.528C283.32 44.9307 282.595 44.632 282.083 44.632C281.656 44.632 281.336 44.8667 281.123 45.336C280.952 45.8053 280.803 46.5093 280.675 47.448H279.203C279.288 46.3813 279.331 45.144 279.331 43.736C279.374 42.2853 279.395 40.4293 279.395 38.168C279.438 35.9067 279.459 33.0267 279.459 29.528H280.931C281.102 32.4293 281.571 35.1387 282.339 37.656C283.15 40.1733 284.366 42.2213 285.987 43.8C287.651 45.336 289.848 46.104 292.579 46.104C294.115 46.104 295.459 45.848 296.611 45.336C297.763 44.824 298.68 44.0773 299.363 43.096C300.046 42.072 300.387 40.8347 300.387 39.384C300.387 37.592 299.982 36.0347 299.171 34.712C298.36 33.3893 297.251 32.152 295.843 31C294.435 29.8053 292.792 28.6107 290.915 27.416C288.91 26.0933 287.032 24.7493 285.283 23.384C283.534 22.0187 282.126 20.504 281.059 18.84C280.035 17.1333 279.523 15.0853 279.523 12.696C279.523 9.96533 280.227 7.72533 281.635 5.97599C283.043 4.22666 284.899 2.94666 287.203 2.13599C289.55 1.28266 292.024 0.855995 294.627 0.855995Z" fill="#2f2f2f"/>
<path d="M359.821 1.688V2.904C358.413 3.24533 356.877 3.90666 355.213 4.88799C353.549 5.82666 351.778 7.36266 349.901 9.49599L338.061 23.32L342.477 17.304L357.645 41.816C358.242 42.7547 358.84 43.5227 359.437 44.12C360.077 44.7173 360.909 45.2507 361.933 45.72V47C360.269 46.9147 358.477 46.872 356.557 46.872C354.637 46.8293 352.845 46.808 351.181 46.808C350.242 46.808 349.09 46.8293 347.725 46.872C346.36 46.872 344.632 46.9147 342.541 47V45.72C344.418 45.6347 345.528 45.4 345.869 45.016C346.21 44.632 346.061 43.9067 345.421 42.84L336.077 27.48C335.565 26.584 335.096 25.9227 334.669 25.496C334.285 25.0693 333.901 24.7707 333.517 24.6C333.133 24.3867 332.621 24.2587 331.981 24.216V22.936C333.858 22.8507 335.586 22.2747 337.165 21.208C338.744 20.1413 340.536 18.4347 342.541 16.088L345.549 12.568C347.256 10.6053 348.194 8.91999 348.365 7.51199C348.578 6.10399 348.216 4.99466 347.277 4.18399C346.381 3.37333 345.101 2.94666 343.437 2.904V1.688C344.546 1.73066 345.613 1.77333 346.637 1.81599C347.661 1.81599 348.706 1.83733 349.773 1.87999C350.882 1.87999 352.141 1.87999 353.549 1.87999C354.872 1.87999 356.045 1.85866 357.069 1.81599C358.093 1.77333 359.01 1.73066 359.821 1.688ZM337.037 1.688V2.96799C335.714 3.01066 334.712 3.18133 334.029 3.48C333.346 3.73599 332.898 4.24799 332.685 5.016C332.472 5.74133 332.365 6.89333 332.365 8.47199V40.216C332.365 41.752 332.472 42.904 332.685 43.672C332.941 44.44 333.389 44.952 334.029 45.208C334.712 45.464 335.714 45.6347 337.037 45.72V47C335.842 46.9147 334.306 46.872 332.429 46.872C330.594 46.8293 328.738 46.808 326.861 46.808C324.685 46.808 322.637 46.8293 320.717 46.872C318.797 46.872 317.261 46.9147 316.109 47V45.72C317.432 45.6347 318.413 45.464 319.053 45.208C319.736 44.952 320.184 44.44 320.397 43.672C320.653 42.904 320.781 41.752 320.781 40.216V8.47199C320.781 6.89333 320.653 5.74133 320.397 5.016C320.184 4.24799 319.736 3.73599 319.053 3.48C318.413 3.18133 317.432 3.01066 316.109 2.96799V1.688C317.261 1.73066 318.797 1.77333 320.717 1.81599C322.637 1.85866 324.685 1.87999 326.861 1.87999C328.738 1.87999 330.594 1.85866 332.429 1.81599C334.306 1.77333 335.842 1.73066 337.037 1.688Z" fill="#2f2f2f"/>
<path d="M401.189 1.62399V2.904C400.25 3.33066 399.248 4.16266 398.181 5.39999C397.157 6.59466 396.026 8.40799 394.789 10.84L382.949 34.264H379.301L364.325 6.55199C363.6 5.14399 362.917 4.20533 362.277 3.73599C361.637 3.22399 361.082 2.96799 360.613 2.96799V1.62399C361.85 1.75199 363.13 1.85866 364.453 1.94399C365.776 1.98666 367.226 2.008 368.805 2.008C370.853 2.008 373.05 1.96533 375.397 1.87999C377.744 1.79466 379.898 1.70933 381.861 1.62399V2.96799C380.794 2.96799 379.813 3.03199 378.917 3.15999C378.064 3.28799 377.445 3.54399 377.061 3.92799C376.72 4.31199 376.762 4.95199 377.189 5.848L387.109 24.856L384.613 28.12L390.629 16.088C392.293 12.8027 393.189 10.2213 393.317 8.34399C393.488 6.42399 393.082 5.05866 392.101 4.24799C391.162 3.39466 389.84 2.94666 388.133 2.904V1.62399C389.669 1.66666 391.056 1.70933 392.293 1.752C393.573 1.79466 394.917 1.81599 396.325 1.81599C397.221 1.81599 398.096 1.79466 398.949 1.752C399.802 1.70933 400.549 1.66666 401.189 1.62399ZM388.005 23V40.216C388.005 41.752 388.112 42.904 388.325 43.672C388.581 44.44 389.029 44.952 389.669 45.208C390.352 45.464 391.354 45.6347 392.677 45.72V47C391.482 46.9147 389.904 46.872 387.941 46.872C386.021 46.8293 384.122 46.808 382.245 46.808C380.154 46.808 378.149 46.8293 376.229 46.872C374.352 46.872 372.858 46.9147 371.749 47V45.72C373.072 45.6347 374.053 45.464 374.693 45.208C375.376 44.952 375.824 44.44 376.037 43.672C376.293 42.904 376.421 41.752 376.421 40.216V27.096L382.693 31.064L388.005 23Z" fill="#2f2f2f"/>
</svg>
